M48
; DRILL file KiCad 10.0.3 date 2026-06-19T04:33:44
; FORMAT={-:-/ absolute / metric / decimal}
; #@! TF.CreationDate,2026-06-19T04:33:44-04:00
; #@! TF.GenerationSoftware,Kicad,Pcbnew,10.0.3
; #@! TF.FileFunction,Plated,1,2,PTH
FMAT,2
METRIC
; #@! TA.AperFunction,Plated,PTH,ViaDrill
T1C0.300
; #@! TA.AperFunction,Plated,PTH,ComponentDrill
T2C0.400
; #@! TA.AperFunction,Plated,PTH,ComponentDrill
T3C0.750
; #@! TA.AperFunction,Plated,PTH,ComponentDrill
T4C0.800
; #@! TA.AperFunction,Plated,PTH,ComponentDrill
T5C2.200
%
G90
G05
T1
X51.25Y-65.5
X51.25Y-66.25
X51.456Y-69.206
X51.5Y-67.0
X52.584Y-97.666
X53.25Y-62.0
X53.25Y-69.75
X53.5Y-63.165
X54.75Y-65.025
X56.188Y-64.823
X56.25Y-51.75
X56.25Y-75.0
X57.0Y-82.75
X57.75Y-67.0
X57.75Y-67.75
X58.5Y-67.0
X58.55Y-87.25
X58.668Y-74.821
X58.75Y-59.25
X59.15Y-86.686
X59.6Y-68.264
X59.75Y-86.0
X59.817Y-71.099
X60.383Y-70.534
X60.949Y-69.968
X60.974Y-62.1
X61.0Y-57.5
X61.0Y-61.225
X61.0Y-78.0
X61.514Y-69.402
X62.08Y-68.837
X63.04Y-71.21
X63.36Y-70.477
X63.5Y-78.0
X63.5Y-78.75
X63.591Y-61.92
X63.683Y-64.9
X63.7Y-63.553
X63.956Y-53.441
X64.0Y-83.0
X64.0Y-98.6
X64.25Y-78.0
X64.25Y-78.75
X64.26Y-60.793
X64.502Y-55.117
X64.823Y-68.073
X65.204Y-70.4
X65.25Y-62.5
X65.517Y-65.4
X65.696Y-60.738
X66.0Y-71.5
X66.102Y-57.621
X66.25Y-73.75
X66.769Y-65.756
X66.825Y-52.57
X67.0Y-64.5
X67.075Y-61.0
X67.5Y-96.5
X67.75Y-87.25
X67.769Y-67.662
X67.8Y-65.82
X67.925Y-61.0
X68.392Y-52.987
X68.5Y-55.5
X68.7Y-64.758
X68.796Y-63.891
X68.9Y-58.927
X69.657Y-84.016
X70.0Y-69.483
X70.0Y-70.283
X70.75Y-60.5
X71.5Y-90.75
X72.536Y-74.164
X72.737Y-90.864
X73.5Y-73.5
X73.5Y-74.25
X73.715Y-64.1
X73.75Y-65.962
X74.0Y-68.25
X74.0Y-69.0
X74.25Y-73.5
X74.25Y-74.25
X74.25Y-78.25
X74.25Y-79.0
X74.5Y-64.75
X74.5Y-91.25
X74.75Y-68.25
X74.75Y-69.0
X75.0Y-89.25
X76.5Y-78.5
X76.5Y-79.25
X77.25Y-79.25
X77.5Y-73.25
X77.5Y-74.0
X77.75Y-76.9
X78.0Y-93.75
X78.25Y-73.25
X78.25Y-74.0
X78.25Y-84.75
X78.765Y-60.485
X82.0Y-69.409
X83.0Y-64.5
X83.0Y-65.25
X83.75Y-64.5
X83.75Y-65.25
X84.0Y-77.5
X84.0Y-85.5
X84.25Y-61.416
X84.25Y-69.25
X85.5Y-94.5
X91.25Y-76.25
X91.337Y-68.587
X91.5Y-84.5
X91.5Y-92.5
X92.209Y-70.459
X92.66Y-78.023
X92.665Y-86.0
X92.75Y-63.016
X93.0Y-75.0
X93.0Y-83.25
X93.25Y-60.25
X93.25Y-61.0
X93.25Y-91.25
X93.5Y-67.0
X94.0Y-60.25
X94.0Y-61.0
X97.0Y-60.0
X97.0Y-90.0
X97.5Y-74.0
X97.5Y-82.0
X97.75Y-65.75
X99.0Y-62.5
X99.0Y-63.25
X99.0Y-71.25
X99.0Y-72.0
T2
X73.35Y-53.0
X73.833Y-51.833
X73.833Y-54.167
X75.0Y-51.35
X75.0Y-54.65
X76.167Y-51.833
X76.167Y-54.167
X76.65Y-53.0
X86.85Y-53.0
X86.85Y-97.0
X87.333Y-51.833
X87.333Y-54.167
X87.333Y-95.833
X87.333Y-98.167
X88.5Y-51.35
X88.5Y-54.65
X88.5Y-95.35
X88.5Y-98.65
X89.667Y-51.833
X89.667Y-54.167
X89.667Y-95.833
X89.667Y-98.167
X90.15Y-53.0
X90.15Y-97.0
T3
X56.258Y-72.1
X56.258Y-77.9
T5
X75.0Y-53.0
X88.5Y-53.0
X88.5Y-97.0
T4
G00X52.877Y-70.67
M15
G01X52.278Y-70.67
M16
G05
G00X52.877Y-79.33
M15
G01X52.278Y-79.33
M16
G05
G00X57.158Y-70.67
M15
G01X56.357Y-70.67
M16
G05
G00X57.157Y-79.33
M15
G01X56.358Y-79.33
M16
G05
M30
