%TF.GenerationSoftware,KiCad,Pcbnew,10.0.3*%
%TF.CreationDate,2026-06-19T04:33:47-04:00*%
%TF.ProjectId,Guardrail FC,47756172-6472-4616-996c-2046432e6b69,1*%
%TF.SameCoordinates,Original*%
%TF.FileFunction,Copper,L1,Top*%
%TF.FilePolarity,Positive*%
%FSLAX46Y46*%
G04 Gerber Fmt 4.6, Leading zero omitted, Abs format (unit mm)*
G04 Created by KiCad (PCBNEW 10.0.3) date 2026-06-19 04:33:47*
%MOMM*%
%LPD*%
G01*
G04 APERTURE LIST*
G04 Aperture macros list*
%AMRoundRect*
0 Rectangle with rounded corners*
0 $1 Rounding radius*
0 $2 $3 $4 $5 $6 $7 $8 $9 X,Y pos of 4 corners*
0 Add a 4 corners polygon primitive as box body*
4,1,4,$2,$3,$4,$5,$6,$7,$8,$9,$2,$3,0*
0 Add four circle primitives for the rounded corners*
1,1,$1+$1,$2,$3*
1,1,$1+$1,$4,$5*
1,1,$1+$1,$6,$7*
1,1,$1+$1,$8,$9*
0 Add four rect primitives between the rounded corners*
20,1,$1+$1,$2,$3,$4,$5,0*
20,1,$1+$1,$4,$5,$6,$7,0*
20,1,$1+$1,$6,$7,$8,$9,0*
20,1,$1+$1,$8,$9,$2,$3,0*%
%AMRotRect*
0 Rectangle, with rotation*
0 The origin of the aperture is its center*
0 $1 length*
0 $2 width*
0 $3 Rotation angle, in degrees counterclockwise*
0 Add horizontal line*
21,1,$1,$2,0,0,$3*%
%AMFreePoly0*
4,1,23,0.500000,-0.750000,0.000000,-0.750000,0.000000,-0.745722,-0.065263,-0.745722,-0.191342,-0.711940,-0.304381,-0.646677,-0.396677,-0.554381,-0.461940,-0.441342,-0.495722,-0.315263,-0.495722,-0.250000,-0.500000,-0.250000,-0.500000,0.250000,-0.495722,0.250000,-0.495722,0.315263,-0.461940,0.441342,-0.396677,0.554381,-0.304381,0.646677,-0.191342,0.711940,-0.065263,0.745722,0.000000,0.745722,
0.000000,0.750000,0.500000,0.750000,0.500000,-0.750000,0.500000,-0.750000,$1*%
%AMFreePoly1*
4,1,23,0.000000,0.745722,0.065263,0.745722,0.191342,0.711940,0.304381,0.646677,0.396677,0.554381,0.461940,0.441342,0.495722,0.315263,0.495722,0.250000,0.500000,0.250000,0.500000,-0.250000,0.495722,-0.250000,0.495722,-0.315263,0.461940,-0.441342,0.396677,-0.554381,0.304381,-0.646677,0.191342,-0.711940,0.065263,-0.745722,0.000000,-0.745722,0.000000,-0.750000,-0.500000,-0.750000,
-0.500000,0.750000,0.000000,0.750000,0.000000,0.745722,0.000000,0.745722,$1*%
G04 Aperture macros list end*
%TA.AperFunction,EtchedComponent*%
%ADD10C,0.000000*%
%TD*%
%TA.AperFunction,SMDPad,CuDef*%
%ADD11RoundRect,0.237500X0.300000X0.237500X-0.300000X0.237500X-0.300000X-0.237500X0.300000X-0.237500X0*%
%TD*%
%TA.AperFunction,SMDPad,CuDef*%
%ADD12RoundRect,0.237500X-0.237500X0.250000X-0.237500X-0.250000X0.237500X-0.250000X0.237500X0.250000X0*%
%TD*%
%TA.AperFunction,SMDPad,CuDef*%
%ADD13RoundRect,0.237500X-0.300000X-0.237500X0.300000X-0.237500X0.300000X0.237500X-0.300000X0.237500X0*%
%TD*%
%TA.AperFunction,SMDPad,CuDef*%
%ADD14RoundRect,0.237500X-0.250000X-0.237500X0.250000X-0.237500X0.250000X0.237500X-0.250000X0.237500X0*%
%TD*%
%TA.AperFunction,SMDPad,CuDef*%
%ADD15RoundRect,0.218750X0.256250X-0.218750X0.256250X0.218750X-0.256250X0.218750X-0.256250X-0.218750X0*%
%TD*%
%TA.AperFunction,SMDPad,CuDef*%
%ADD16R,3.300000X0.850000*%
%TD*%
%TA.AperFunction,ComponentPad*%
%ADD17C,0.700000*%
%TD*%
%TA.AperFunction,ComponentPad*%
%ADD18C,4.400000*%
%TD*%
%TA.AperFunction,SMDPad,CuDef*%
%ADD19RoundRect,0.250000X-0.450000X-0.350000X0.450000X-0.350000X0.450000X0.350000X-0.450000X0.350000X0*%
%TD*%
%TA.AperFunction,HeatsinkPad*%
%ADD20R,0.200000X1.600000*%
%TD*%
%TA.AperFunction,SMDPad,CuDef*%
%ADD21RoundRect,0.062500X-0.387500X-0.062500X0.387500X-0.062500X0.387500X0.062500X-0.387500X0.062500X0*%
%TD*%
%TA.AperFunction,SMDPad,CuDef*%
%ADD22RoundRect,0.237500X-0.237500X0.300000X-0.237500X-0.300000X0.237500X-0.300000X0.237500X0.300000X0*%
%TD*%
%TA.AperFunction,SMDPad,CuDef*%
%ADD23RoundRect,0.237500X0.237500X-0.300000X0.237500X0.300000X-0.237500X0.300000X-0.237500X-0.300000X0*%
%TD*%
%TA.AperFunction,SMDPad,CuDef*%
%ADD24RoundRect,0.112500X-0.187500X-0.112500X0.187500X-0.112500X0.187500X0.112500X-0.187500X0.112500X0*%
%TD*%
%TA.AperFunction,SMDPad,CuDef*%
%ADD25RoundRect,0.112500X0.187500X0.112500X-0.187500X0.112500X-0.187500X-0.112500X0.187500X-0.112500X0*%
%TD*%
%TA.AperFunction,SMDPad,CuDef*%
%ADD26RoundRect,0.237500X-0.344715X0.008839X0.008839X-0.344715X0.344715X-0.008839X-0.008839X0.344715X0*%
%TD*%
%TA.AperFunction,SMDPad,CuDef*%
%ADD27R,0.532000X1.072000*%
%TD*%
%TA.AperFunction,SMDPad,CuDef*%
%ADD28R,0.280000X0.675000*%
%TD*%
%TA.AperFunction,SMDPad,CuDef*%
%ADD29R,0.675000X0.280000*%
%TD*%
%TA.AperFunction,SMDPad,CuDef*%
%ADD30FreePoly0,90.000000*%
%TD*%
%TA.AperFunction,SMDPad,CuDef*%
%ADD31FreePoly1,90.000000*%
%TD*%
%TA.AperFunction,SMDPad,CuDef*%
%ADD32R,2.100000X0.950000*%
%TD*%
%TA.AperFunction,SMDPad,CuDef*%
%ADD33RoundRect,0.237500X0.250000X0.237500X-0.250000X0.237500X-0.250000X-0.237500X0.250000X-0.237500X0*%
%TD*%
%TA.AperFunction,SMDPad,CuDef*%
%ADD34RoundRect,0.237500X0.237500X-0.250000X0.237500X0.250000X-0.237500X0.250000X-0.237500X-0.250000X0*%
%TD*%
%TA.AperFunction,SMDPad,CuDef*%
%ADD35RotRect,1.000000X0.900000X45.000000*%
%TD*%
%TA.AperFunction,SMDPad,CuDef*%
%ADD36R,1.800000X1.500000*%
%TD*%
%TA.AperFunction,SMDPad,CuDef*%
%ADD37R,1.500000X1.800000*%
%TD*%
%TA.AperFunction,HeatsinkPad*%
%ADD38R,3.200000X3.200000*%
%TD*%
%TA.AperFunction,SMDPad,CuDef*%
%ADD39RoundRect,0.050000X-0.050000X-0.387500X0.050000X-0.387500X0.050000X0.387500X-0.050000X0.387500X0*%
%TD*%
%TA.AperFunction,SMDPad,CuDef*%
%ADD40RoundRect,0.050000X-0.387500X-0.050000X0.387500X-0.050000X0.387500X0.050000X-0.387500X0.050000X0*%
%TD*%
%TA.AperFunction,SMDPad,CuDef*%
%ADD41R,1.300000X0.300000*%
%TD*%
%TA.AperFunction,ComponentPad*%
%ADD42O,1.800000X1.200000*%
%TD*%
%TA.AperFunction,ComponentPad*%
%ADD43O,2.000000X1.200000*%
%TD*%
%TA.AperFunction,ComponentPad*%
%ADD44C,0.750000*%
%TD*%
%TA.AperFunction,SMDPad,CuDef*%
%ADD45R,0.600000X0.400000*%
%TD*%
%TA.AperFunction,ViaPad*%
%ADD46C,0.600000*%
%TD*%
%TA.AperFunction,Conductor*%
%ADD47C,0.200000*%
%TD*%
%TA.AperFunction,Conductor*%
%ADD48C,1.000000*%
%TD*%
%TA.AperFunction,Conductor*%
%ADD49C,0.400000*%
%TD*%
%TA.AperFunction,Conductor*%
%ADD50C,0.300000*%
%TD*%
G04 APERTURE END LIST*
D10*
%TA.AperFunction,EtchedComponent*%
%TO.C,JP1*%
G36*
X74050000Y-94600000D02*
G01*
X73650000Y-94600000D01*
X73650000Y-94100000D01*
X74050000Y-94100000D01*
X74050000Y-94600000D01*
G37*
%TD.AperFunction*%
%TA.AperFunction,EtchedComponent*%
G36*
X74850000Y-94600000D02*
G01*
X74450000Y-94600000D01*
X74450000Y-94100000D01*
X74850000Y-94100000D01*
X74850000Y-94600000D01*
G37*
%TD.AperFunction*%
%TD*%
D11*
%TO.P,C11,2*%
%TO.N,GND*%
X59387500Y-60250000D03*
%TO.P,C11,1*%
%TO.N,+3.3V*%
X61112500Y-60250000D03*
%TD*%
D12*
%TO.P,R4,1*%
%TO.N,+3.3V*%
X70750000Y-93337500D03*
%TO.P,R4,2*%
%TO.N,Net-(D1-A)*%
X70750000Y-95162500D03*
%TD*%
D13*
%TO.P,C20,2*%
%TO.N,GND*%
X62862500Y-81500000D03*
%TO.P,C20,1*%
%TO.N,+3.3V*%
X61137500Y-81500000D03*
%TD*%
D14*
%TO.P,R11,2*%
%TO.N,GND*%
X61575000Y-73750000D03*
%TO.P,R11,1*%
%TO.N,Net-(USB1-CC1)*%
X59750000Y-73750000D03*
%TD*%
D15*
%TO.P,D1,1,K_1*%
%TO.N,Net-(D1-K)*%
X72250000Y-95037500D03*
%TO.P,D1,2,A_2*%
%TO.N,Net-(D1-A)*%
X72250000Y-93462500D03*
%TD*%
D16*
%TO.P,J2,6,Pin_6_6*%
%TO.N,GND*%
X80074663Y-80564467D03*
%TO.P,J2,5,Pin_5_5*%
X86214663Y-80564467D03*
%TO.P,J2,4,Pin_4_4*%
%TO.N,+BATT*%
X80074663Y-83104467D03*
%TO.P,J2,3,Pin_3_3*%
X86214663Y-83104467D03*
%TO.P,J2,2,Pin_2_2*%
%TO.N,GPIO10*%
X80074663Y-85644467D03*
%TO.P,J2,1,Pin_1_1*%
%TO.N,GPIO9*%
X86214663Y-85644467D03*
%TD*%
D14*
%TO.P,R7,2*%
%TO.N,GND*%
X74437500Y-85250000D03*
%TO.P,R7,1*%
%TO.N,Net-(U3-FB)*%
X72612500Y-85250000D03*
%TD*%
%TO.P,R6,2*%
%TO.N,Net-(U3-FB)*%
X70937500Y-85250000D03*
%TO.P,R6,1*%
%TO.N,+3.3V*%
X69112500Y-85250000D03*
%TD*%
D11*
%TO.P,C17,2*%
%TO.N,+3.3V*%
X70912500Y-83750000D03*
%TO.P,C17,1*%
%TO.N,Net-(U3-FB)*%
X72637500Y-83750000D03*
%TD*%
D17*
%TO.P,H1,1*%
%TO.N,N/C*%
X76650000Y-53000000D03*
X76166726Y-54166726D03*
X76166726Y-51833274D03*
X75000000Y-54650000D03*
D18*
X75000000Y-53000000D03*
D17*
X75000000Y-51350000D03*
X73833274Y-54166726D03*
X73833274Y-51833274D03*
X73350000Y-53000000D03*
%TD*%
D16*
%TO.P,J7,6,Pin_6_6*%
%TO.N,GND*%
X90514663Y-80564467D03*
%TO.P,J7,5,Pin_5_5*%
X96654663Y-80564467D03*
%TO.P,J7,4,Pin_4_4*%
%TO.N,+BATT*%
X90514663Y-83104467D03*
%TO.P,J7,3,Pin_3_3*%
X96654663Y-83104467D03*
%TO.P,J7,2,Pin_2_2*%
%TO.N,GPIO22*%
X90514663Y-85644467D03*
%TO.P,J7,1,Pin_1_1*%
%TO.N,GPIO21*%
X96654663Y-85644467D03*
%TD*%
%TO.P,J3,6,Pin_6_6*%
%TO.N,GND*%
X80074663Y-72446670D03*
%TO.P,J3,5,Pin_5_5*%
X86214663Y-72446670D03*
%TO.P,J3,4,Pin_4_4*%
%TO.N,+BATT*%
X80074663Y-74986670D03*
%TO.P,J3,3,Pin_3_3*%
X86214663Y-74986670D03*
%TO.P,J3,2,Pin_2_2*%
%TO.N,GPIO12*%
X80074663Y-77526670D03*
%TO.P,J3,1,Pin_1_1*%
%TO.N,GPIO11*%
X86214663Y-77526670D03*
%TD*%
D19*
%TO.P,Y1,4,G_4*%
%TO.N,GND*%
X65150000Y-72800000D03*
%TO.P,Y1,3,3_3*%
%TO.N,Net-(C4-Pad1)*%
X67350000Y-72800000D03*
%TO.P,Y1,2,G_2*%
%TO.N,GND*%
X67350000Y-74500000D03*
%TO.P,Y1,1,1_1*%
%TO.N,X_IN*%
X65150000Y-74500000D03*
%TD*%
D15*
%TO.P,D2,2,A_2*%
%TO.N,Net-(D2-A)*%
X71980000Y-73287500D03*
%TO.P,D2,1,K_1*%
%TO.N,GND*%
X71980000Y-74862500D03*
%TD*%
D20*
%TO.P,U2,9,EP_9*%
%TO.N,GND*%
X66225000Y-52737500D03*
D21*
%TO.P,U2,8,VCC_8*%
%TO.N,+3.3V*%
X67650000Y-51987500D03*
%TO.P,U2,7,~{RESET_}(IO3)_7*%
%TO.N,SPI_SD3*%
X67650000Y-52487500D03*
%TO.P,U2,6,CLK_6*%
%TO.N,SPI_CLK*%
X67650000Y-52987500D03*
%TO.P,U2,5,DI_(IO0)_5*%
%TO.N,SPI_SD0*%
X67650000Y-53487500D03*
%TO.P,U2,4,GND_4*%
%TO.N,GND*%
X64800000Y-53487500D03*
%TO.P,U2,3,~{WP_}(IO2)_3*%
%TO.N,SPI_SD2*%
X64800000Y-52987500D03*
%TO.P,U2,2,DO_(IO1)_2*%
%TO.N,SPI_SD1*%
X64800000Y-52487500D03*
%TO.P,U2,1,~{CS}_1*%
%TO.N,SPI_CS*%
X64800000Y-51987500D03*
%TD*%
D16*
%TO.P,J4,6,Pin_6_6*%
%TO.N,GND*%
X80074663Y-64328873D03*
%TO.P,J4,5,Pin_5_5*%
X86214663Y-64328873D03*
%TO.P,J4,4,Pin_4_4*%
%TO.N,+BATT*%
X80074663Y-66868873D03*
%TO.P,J4,3,Pin_3_3*%
X86214663Y-66868873D03*
%TO.P,J4,2,Pin_2_2*%
%TO.N,GPIO14*%
X80074663Y-69408873D03*
%TO.P,J4,1,Pin_1_1*%
%TO.N,GPIO13*%
X86214663Y-69408873D03*
%TD*%
D13*
%TO.P,C23,2*%
%TO.N,GND*%
X53345381Y-60944935D03*
%TO.P,C23,1*%
%TO.N,+3.3V*%
X51620381Y-60944935D03*
%TD*%
D22*
%TO.P,C21,1*%
%TO.N,+3.3V*%
X69250000Y-93387500D03*
%TO.P,C21,2*%
%TO.N,GND*%
X69250000Y-95112500D03*
%TD*%
D23*
%TO.P,C1,2*%
%TO.N,GND*%
X68500000Y-56637500D03*
%TO.P,C1,1*%
%TO.N,+1.1V*%
X68500000Y-58362500D03*
%TD*%
D11*
%TO.P,C12,2*%
%TO.N,GND*%
X64775000Y-69500000D03*
%TO.P,C12,1*%
%TO.N,+3.3V*%
X66500000Y-69500000D03*
%TD*%
D12*
%TO.P,R5,2*%
%TO.N,Net-(D2-A)*%
X72000000Y-71750000D03*
%TO.P,R5,1*%
%TO.N,GPIO17*%
X72000000Y-69925000D03*
%TD*%
D22*
%TO.P,C7,2*%
%TO.N,GND*%
X71250000Y-66250000D03*
%TO.P,C7,1*%
%TO.N,+3.3V*%
X71250000Y-64525000D03*
%TD*%
D16*
%TO.P,J9,6,Pin_6_6*%
%TO.N,GND*%
X90514663Y-64328873D03*
%TO.P,J9,5,Pin_5_5*%
X96654663Y-64328873D03*
%TO.P,J9,4,Pin_4_4*%
%TO.N,+BATT*%
X90514663Y-66868873D03*
%TO.P,J9,3,Pin_3_3*%
X96654663Y-66868873D03*
%TO.P,J9,2,Pin_2_2*%
%TO.N,GPIO26*%
X90514663Y-69408873D03*
%TO.P,J9,1,Pin_1_1*%
%TO.N,GPIO25*%
X96654663Y-69408873D03*
%TD*%
D22*
%TO.P,C4,2*%
%TO.N,GND*%
X69100000Y-74550000D03*
%TO.P,C4,1*%
%TO.N,Net-(C4-Pad1)*%
X69100000Y-72825000D03*
%TD*%
D11*
%TO.P,C15,2*%
%TO.N,+5V*%
X72500000Y-88250000D03*
%TO.P,C15,1*%
%TO.N,GND*%
X74225000Y-88250000D03*
%TD*%
D23*
%TO.P,C9,2*%
%TO.N,GND*%
X67000000Y-56637500D03*
%TO.P,C9,1*%
%TO.N,+3.3V*%
X67000000Y-58362500D03*
%TD*%
%TO.P,C3,2*%
%TO.N,GND*%
X65500000Y-56637500D03*
%TO.P,C3,1*%
%TO.N,+1.1V*%
X65500000Y-58362500D03*
%TD*%
D16*
%TO.P,J5,6,Pin_6_6*%
%TO.N,GND*%
X80074663Y-56211076D03*
%TO.P,J5,5,Pin_5_5*%
X86214663Y-56211076D03*
%TO.P,J5,4,Pin_4_4*%
%TO.N,+BATT*%
X80074663Y-58751076D03*
%TO.P,J5,3,Pin_3_3*%
X86214663Y-58751076D03*
%TO.P,J5,2,Pin_2_2*%
%TO.N,GPIO16*%
X80074663Y-61291076D03*
%TO.P,J5,1,Pin_1_1*%
%TO.N,GPIO15*%
X86214663Y-61291076D03*
%TD*%
D24*
%TO.P,D4,2,A_2*%
%TO.N,+BATT*%
X77470000Y-91225000D03*
%TO.P,D4,1,K_1*%
%TO.N,+5V*%
X75370000Y-91225000D03*
%TD*%
D25*
%TO.P,D3,2,A_2*%
%TO.N,VBUS*%
X58700000Y-72000000D03*
%TO.P,D3,1,K_1*%
%TO.N,+5V*%
X60800000Y-72000000D03*
%TD*%
D13*
%TO.P,C8,2*%
%TO.N,GND*%
X72612500Y-59500000D03*
%TO.P,C8,1*%
%TO.N,+3.3V*%
X70887500Y-59500000D03*
%TD*%
D26*
%TO.P,R3,2*%
%TO.N,+3.3V*%
X52395235Y-58395235D03*
%TO.P,R3,1*%
%TO.N,RUN*%
X51104765Y-57104765D03*
%TD*%
D27*
%TO.P,U3,6,LX_6*%
%TO.N,Net-(U3-LX)*%
X70825000Y-89600000D03*
%TO.P,U3,5,IN_5*%
%TO.N,+5V*%
X71775000Y-89600000D03*
%TO.P,U3,4,EN_4*%
X72725000Y-89600000D03*
%TO.P,U3,3,FB_3*%
%TO.N,Net-(U3-FB)*%
X72725000Y-91900000D03*
%TO.P,U3,2,GND_2*%
%TO.N,GND*%
X71775000Y-91900000D03*
%TO.P,U3,1,BS_1*%
%TO.N,Net-(U3-BS)*%
X70825000Y-91900000D03*
%TD*%
D28*
%TO.P,U5,14,SDX_14*%
%TO.N,SDA0*%
X52500000Y-66990000D03*
%TO.P,U5,13,SCX_13*%
%TO.N,SCL0*%
X53000000Y-66990000D03*
%TO.P,U5,12,CSB_12*%
%TO.N,+3.3V*%
X53500000Y-66990000D03*
D29*
%TO.P,U5,11,OSDO_11*%
%TO.N,unconnected-(U5-OSDO-Pad11)*%
X54260000Y-67250000D03*
%TO.P,U5,10,OCSB_10*%
%TO.N,unconnected-(U5-OCSB-Pad10)*%
X54260000Y-67750000D03*
%TO.P,U5,9,INT2_9*%
%TO.N,unconnected-(U5-INT2-Pad9)*%
X54260000Y-68250000D03*
%TO.P,U5,8,VDD_8*%
%TO.N,+3.3V*%
X54260000Y-68750000D03*
D28*
%TO.P,U5,7,GND_7*%
%TO.N,GND*%
X53500000Y-69010000D03*
%TO.P,U5,6,GNDIO_6*%
X53000000Y-69010000D03*
%TO.P,U5,5,VDDIO_5*%
%TO.N,+3.3V*%
X52500000Y-69010000D03*
D29*
%TO.P,U5,4,INT1_4*%
%TO.N,GPIO6*%
X51740000Y-68750000D03*
%TO.P,U5,3,ASCX_3*%
%TO.N,unconnected-(U5-ASCX-Pad3)*%
X51740000Y-68250000D03*
%TO.P,U5,2,ASDX_2*%
%TO.N,unconnected-(U5-ASDX-Pad2)*%
X51740000Y-67750000D03*
%TO.P,U5,1,SDO/SA0_1*%
%TO.N,GND*%
X51740000Y-67250000D03*
%TD*%
D17*
%TO.P,H2,1*%
%TO.N,N/C*%
X90150000Y-53000000D03*
X89666726Y-54166726D03*
X89666726Y-51833274D03*
X88500000Y-54650000D03*
D18*
X88500000Y-53000000D03*
D17*
X88500000Y-51350000D03*
X87333274Y-54166726D03*
X87333274Y-51833274D03*
X86850000Y-53000000D03*
%TD*%
%TO.P,H3,1*%
%TO.N,N/C*%
X90150000Y-97000000D03*
X89666726Y-98166726D03*
X89666726Y-95833274D03*
X88500000Y-98650000D03*
D18*
X88500000Y-97000000D03*
D17*
X88500000Y-95350000D03*
X87333274Y-98166726D03*
X87333274Y-95833274D03*
X86850000Y-97000000D03*
%TD*%
D16*
%TO.P,J1,6,Pin_6_6*%
%TO.N,GND*%
X80074663Y-88682264D03*
%TO.P,J1,5,Pin_5_5*%
X86214663Y-88682264D03*
%TO.P,J1,4,Pin_4_4*%
%TO.N,+BATT*%
X80074663Y-91222264D03*
%TO.P,J1,3,Pin_3_3*%
X86214663Y-91222264D03*
%TO.P,J1,2,Pin_2_2*%
%TO.N,GPIO8*%
X80074663Y-93762264D03*
%TO.P,J1,1,Pin_1_1*%
%TO.N,GPIO7*%
X86214663Y-93762264D03*
%TD*%
D30*
%TO.P,JP1,1,A_1*%
%TO.N,Net-(D1-K)*%
X74250000Y-95000000D03*
D31*
%TO.P,JP1,2,B_2*%
%TO.N,GND*%
X74250000Y-93700000D03*
%TD*%
D11*
%TO.P,C16,2*%
%TO.N,+5V*%
X72500000Y-86750000D03*
%TO.P,C16,1*%
%TO.N,GND*%
X74225000Y-86750000D03*
%TD*%
D26*
%TO.P,R2,2*%
%TO.N,GND*%
X58040470Y-58290470D03*
%TO.P,R2,1*%
%TO.N,Net-(R2-Pad1)*%
X56750000Y-57000000D03*
%TD*%
D32*
%TO.P,L1,2,2_2*%
%TO.N,+3.3V*%
X70612500Y-86680000D03*
%TO.P,L1,1,1_1*%
%TO.N,Net-(U3-LX)*%
X70612500Y-88320000D03*
%TD*%
D22*
%TO.P,C22,2*%
%TO.N,GND*%
X67750000Y-95112500D03*
%TO.P,C22,1*%
%TO.N,+3.3V*%
X67750000Y-93387500D03*
%TD*%
D33*
%TO.P,R10,2*%
%TO.N,Net-(USB1-CC2)*%
X59000000Y-77000000D03*
%TO.P,R10,1*%
%TO.N,GND*%
X60825000Y-77000000D03*
%TD*%
D16*
%TO.P,J6,6,Pin_6_6*%
%TO.N,GND*%
X90514663Y-88682264D03*
%TO.P,J6,5,Pin_5_5*%
X96654663Y-88682264D03*
%TO.P,J6,4,Pin_4_4*%
%TO.N,+BATT*%
X90514663Y-91222264D03*
%TO.P,J6,3,Pin_3_3*%
X96654663Y-91222264D03*
%TO.P,J6,2,Pin_2_2*%
%TO.N,GPIO20*%
X90514663Y-93762264D03*
%TO.P,J6,1,Pin_1_1*%
%TO.N,GPIO19*%
X96654663Y-93762264D03*
%TD*%
D23*
%TO.P,C2,2*%
%TO.N,X_IN*%
X63350000Y-72825000D03*
%TO.P,C2,1*%
%TO.N,GND*%
X63350000Y-74550000D03*
%TD*%
D13*
%TO.P,C5,2*%
%TO.N,GND*%
X69862500Y-68250000D03*
%TO.P,C5,1*%
%TO.N,+1.1V*%
X68137500Y-68250000D03*
%TD*%
D14*
%TO.P,R1,2*%
%TO.N,Net-(C4-Pad1)*%
X69012500Y-71050000D03*
%TO.P,R1,1*%
%TO.N,X_OUT*%
X67187500Y-71050000D03*
%TD*%
D12*
%TO.P,R8,2*%
%TO.N,SDA0*%
X56000000Y-62662500D03*
%TO.P,R8,1*%
%TO.N,+3.3V*%
X56000000Y-60837500D03*
%TD*%
D34*
%TO.P,R9,2*%
%TO.N,+3.3V*%
X57500000Y-60837500D03*
%TO.P,R9,1*%
%TO.N,SCL0*%
X57500000Y-62662500D03*
%TD*%
D13*
%TO.P,C24,2*%
%TO.N,GND*%
X55612500Y-65750000D03*
%TO.P,C24,1*%
%TO.N,+3.3V*%
X53887500Y-65750000D03*
%TD*%
D16*
%TO.P,J8,6,Pin_6_6*%
%TO.N,GND*%
X90514663Y-72446670D03*
%TO.P,J8,5,Pin_5_5*%
X96654663Y-72446670D03*
%TO.P,J8,4,Pin_4_4*%
%TO.N,+BATT*%
X90514663Y-74986670D03*
%TO.P,J8,3,Pin_3_3*%
X96654663Y-74986670D03*
%TO.P,J8,2,Pin_2_2*%
%TO.N,GPIO24*%
X90514663Y-77526670D03*
%TO.P,J8,1,Pin_1_1*%
%TO.N,GPIO23*%
X96654663Y-77526670D03*
%TD*%
D35*
%TO.P,SW1,4,4_4*%
%TO.N,SPI_CS*%
X64217514Y-54515076D03*
%TO.P,SW1,3,3_3*%
X60116295Y-58616295D03*
%TO.P,SW1,2,2_2*%
%TO.N,Net-(R2-Pad1)*%
X61601219Y-51898781D03*
%TO.P,SW1,1,1_1*%
X57500000Y-56000000D03*
%TD*%
D36*
%TO.P,U6,20,GND_20*%
%TO.N,GND*%
X65662500Y-87400000D03*
%TO.P,U6,19,EXTINT0_19*%
%TO.N,unconnected-(U6-EXTINT0-Pad19)*%
X65662500Y-89300000D03*
%TO.P,U6,18,RESET_N_18*%
%TO.N,unconnected-(U6-RESET_N-Pad18)*%
X65662500Y-91200000D03*
%TO.P,U6,17,VCC_17*%
%TO.N,+3.3V*%
X65662500Y-93100000D03*
%TO.P,U6,16,GND_16*%
%TO.N,GND*%
X65662500Y-95000000D03*
D37*
%TO.P,U6,15,GND_15*%
X62862500Y-97800000D03*
%TO.P,U6,14,RxD_14*%
%TO.N,GPIO0*%
X60962500Y-97800000D03*
%TO.P,U6,13,TxD_13*%
%TO.N,GPIO1*%
X59062500Y-97800000D03*
%TO.P,U6,12,SCL_12*%
%TO.N,unconnected-(U6-SCL-Pad12)*%
X57162500Y-97800000D03*
%TO.P,U6,11,GND_11*%
%TO.N,GND*%
X55262500Y-97800000D03*
D36*
%TO.P,U6,10,GND_10*%
X52462500Y-95000000D03*
%TO.P,U6,9,SDA_9*%
%TO.N,unconnected-(U6-SDA-Pad9)*%
X52462500Y-93100000D03*
%TO.P,U6,8,SAFEBOOT_N_8*%
%TO.N,unconnected-(U6-SAFEBOOT_N-Pad8)*%
X52462500Y-91200000D03*
%TO.P,U6,7,TIMEPULSE_7*%
%TO.N,GPIO2*%
X52462500Y-89300000D03*
%TO.P,U6,6,GND_6*%
%TO.N,GND*%
X52462500Y-87400000D03*
D37*
%TO.P,U6,5,GND_5*%
X55262500Y-84600000D03*
%TO.P,U6,4,GND_4*%
X57162500Y-84600000D03*
%TO.P,U6,3,V_BCKP_3*%
%TO.N,+3.3V*%
X59062500Y-84600000D03*
%TO.P,U6,2,VCC_IO_2*%
X60962500Y-84600000D03*
%TO.P,U6,1,GND_1*%
%TO.N,GND*%
X62862500Y-84600000D03*
%TD*%
D16*
%TO.P,J10,6,Pin_6_6*%
%TO.N,GND*%
X90514663Y-56211076D03*
%TO.P,J10,5,Pin_5_5*%
X96654663Y-56211076D03*
%TO.P,J10,4,Pin_4_4*%
%TO.N,+BATT*%
X90514663Y-58751076D03*
%TO.P,J10,3,Pin_3_3*%
X96654663Y-58751076D03*
%TO.P,J10,2,Pin_2_2*%
%TO.N,GPIO28*%
X90514663Y-61291076D03*
%TO.P,J10,1,Pin_1_1*%
%TO.N,GPIO27*%
X96654663Y-61291076D03*
%TD*%
D22*
%TO.P,C6,2*%
%TO.N,GND*%
X72750000Y-66250000D03*
%TO.P,C6,1*%
%TO.N,+3.3V*%
X72750000Y-64525000D03*
%TD*%
D11*
%TO.P,C10,2*%
%TO.N,GND*%
X59387500Y-64500000D03*
%TO.P,C10,1*%
%TO.N,+3.3V*%
X61112500Y-64500000D03*
%TD*%
%TO.P,C19,2*%
%TO.N,+3.3V*%
X70912500Y-80750000D03*
%TO.P,C19,1*%
%TO.N,GND*%
X72637500Y-80750000D03*
%TD*%
D38*
%TO.P,U1,57,GND_57*%
%TO.N,GND*%
X66200000Y-63300000D03*
D39*
%TO.P,U1,56,QSPI_SS_56*%
%TO.N,SPI_CS*%
X63600000Y-59862500D03*
%TO.P,U1,55,QSPI_SD1_55*%
%TO.N,SPI_SD1*%
X64000000Y-59862500D03*
%TO.P,U1,54,QSPI_SD2_54*%
%TO.N,SPI_SD2*%
X64400000Y-59862500D03*
%TO.P,U1,53,QSPI_SD0_53*%
%TO.N,SPI_SD0*%
X64800000Y-59862500D03*
%TO.P,U1,52,QSPI_SCLK_52*%
%TO.N,SPI_CLK*%
X65200000Y-59862500D03*
%TO.P,U1,51,QSPI_SD3_51*%
%TO.N,SPI_SD3*%
X65600000Y-59862500D03*
%TO.P,U1,50,DVDD_50*%
%TO.N,+1.1V*%
X66000000Y-59862500D03*
%TO.P,U1,49,IOVDD_49*%
%TO.N,+3.3V*%
X66400000Y-59862500D03*
%TO.P,U1,48,USB_VDD_48*%
X66800000Y-59862500D03*
%TO.P,U1,47,USB_DP_47*%
%TO.N,USB_D+*%
X67200000Y-59862500D03*
%TO.P,U1,46,USB_DM_46*%
%TO.N,USB_D-*%
X67600000Y-59862500D03*
%TO.P,U1,45,VREG_VOUT_45*%
%TO.N,+1.1V*%
X68000000Y-59862500D03*
%TO.P,U1,44,VREG_IN_44*%
%TO.N,+3.3V*%
X68400000Y-59862500D03*
%TO.P,U1,43,ADC_AVDD_43*%
X68800000Y-59862500D03*
D40*
%TO.P,U1,42,IOVDD_42*%
X69637500Y-60700000D03*
%TO.P,U1,41,GPIO29_ADC3_41*%
%TO.N,GPIO29*%
X69637500Y-61100000D03*
%TO.P,U1,40,GPIO28_ADC2_40*%
%TO.N,GPIO28*%
X69637500Y-61500000D03*
%TO.P,U1,39,GPIO27_ADC1_39*%
%TO.N,GPIO27*%
X69637500Y-61900000D03*
%TO.P,U1,38,GPIO26_ADC0_38*%
%TO.N,GPIO26*%
X69637500Y-62300000D03*
%TO.P,U1,37,GPIO25_37*%
%TO.N,GPIO25*%
X69637500Y-62700000D03*
%TO.P,U1,36,GPIO24_36*%
%TO.N,GPIO24*%
X69637500Y-63100000D03*
%TO.P,U1,35,GPIO23_35*%
%TO.N,GPIO23*%
X69637500Y-63500000D03*
%TO.P,U1,34,GPIO22_34*%
%TO.N,GPIO22*%
X69637500Y-63900000D03*
%TO.P,U1,33,IOVDD_33*%
%TO.N,+3.3V*%
X69637500Y-64300000D03*
%TO.P,U1,32,GPIO21_32*%
%TO.N,GPIO21*%
X69637500Y-64700000D03*
%TO.P,U1,31,GPIO20_31*%
%TO.N,GPIO20*%
X69637500Y-65100000D03*
%TO.P,U1,30,GPIO19_30*%
%TO.N,GPIO19*%
X69637500Y-65500000D03*
%TO.P,U1,29,GPIO18_29*%
%TO.N,GPIO18*%
X69637500Y-65900000D03*
D39*
%TO.P,U1,28,GPIO17_28*%
%TO.N,GPIO17*%
X68800000Y-66737500D03*
%TO.P,U1,27,GPIO16_27*%
%TO.N,GPIO16*%
X68400000Y-66737500D03*
%TO.P,U1,26,RUN_26*%
%TO.N,RUN*%
X68000000Y-66737500D03*
%TO.P,U1,25,SWD_25*%
%TO.N,SWD*%
X67600000Y-66737500D03*
%TO.P,U1,24,SWCLK_24*%
%TO.N,SWCLK*%
X67200000Y-66737500D03*
%TO.P,U1,23,DVDD_23*%
%TO.N,+1.1V*%
X66800000Y-66737500D03*
%TO.P,U1,22,IOVDD_22*%
%TO.N,+3.3V*%
X66400000Y-66737500D03*
%TO.P,U1,21,XOUT_21*%
%TO.N,X_OUT*%
X66000000Y-66737500D03*
%TO.P,U1,20,XIN_20*%
%TO.N,X_IN*%
X65600000Y-66737500D03*
%TO.P,U1,19,TESTEN_19*%
%TO.N,GND*%
X65200000Y-66737500D03*
%TO.P,U1,18,GPIO15_18*%
%TO.N,GPIO15*%
X64800000Y-66737500D03*
%TO.P,U1,17,GPIO14_17*%
%TO.N,GPIO14*%
X64400000Y-66737500D03*
%TO.P,U1,16,GPIO13_16*%
%TO.N,GPIO13*%
X64000000Y-66737500D03*
%TO.P,U1,15,GPIO12_15*%
%TO.N,GPIO12*%
X63600000Y-66737500D03*
D40*
%TO.P,U1,14,GPIO11_14*%
%TO.N,GPIO11*%
X62762500Y-65900000D03*
%TO.P,U1,13,GPIO10_13*%
%TO.N,GPIO10*%
X62762500Y-65500000D03*
%TO.P,U1,12,GPIO9_12*%
%TO.N,GPIO9*%
X62762500Y-65100000D03*
%TO.P,U1,11,GPIO8_11*%
%TO.N,GPIO8*%
X62762500Y-64700000D03*
%TO.P,U1,10,IOVDD_10*%
%TO.N,+3.3V*%
X62762500Y-64300000D03*
%TO.P,U1,9,GPIO7_9*%
%TO.N,GPIO7*%
X62762500Y-63900000D03*
%TO.P,U1,8,GPIO6_8*%
%TO.N,GPIO6*%
X62762500Y-63500000D03*
%TO.P,U1,7,GPIO5_7*%
%TO.N,SCL0*%
X62762500Y-63100000D03*
%TO.P,U1,6,GPIO4_6*%
%TO.N,SDA0*%
X62762500Y-62700000D03*
%TO.P,U1,5,GPIO3_5*%
%TO.N,GPIO3*%
X62762500Y-62300000D03*
%TO.P,U1,4,GPIO2_4*%
%TO.N,GPIO2*%
X62762500Y-61900000D03*
%TO.P,U1,3,GPIO1_3*%
%TO.N,GPIO1*%
X62762500Y-61500000D03*
%TO.P,U1,2,GPIO0_2*%
%TO.N,GPIO0*%
X62762500Y-61100000D03*
%TO.P,U1,1,IOVDD_1*%
%TO.N,+3.3V*%
X62762500Y-60700000D03*
%TD*%
D41*
%TO.P,USB1,B12,GND_B12*%
%TO.N,GND*%
X57517500Y-71950000D03*
%TO.P,USB1,B9,VBUS_B9*%
%TO.N,VBUS*%
X57517500Y-72750000D03*
%TO.P,USB1,B8,SBU2_B8*%
%TO.N,unconnected-(USB1-SBU2-PadB8)*%
X57517500Y-73250000D03*
%TO.P,USB1,B7,DN2_B7*%
%TO.N,USB_D-*%
X57517500Y-74250000D03*
%TO.P,USB1,B6,DP2_B6*%
%TO.N,USB_D+*%
X57517500Y-75750000D03*
%TO.P,USB1,B5,CC2_B5*%
%TO.N,Net-(USB1-CC2)*%
X57517500Y-76750000D03*
%TO.P,USB1,B4,VBUS_B4*%
%TO.N,VBUS*%
X57517500Y-77250000D03*
%TO.P,USB1,B1,GND_B1*%
%TO.N,GND*%
X57517500Y-78050000D03*
%TO.P,USB1,A12,GND_A12*%
X57517500Y-78350000D03*
%TO.P,USB1,A9,VBUS_A9*%
%TO.N,VBUS*%
X57517500Y-77550000D03*
%TO.P,USB1,A8,SBU1_A8*%
%TO.N,unconnected-(USB1-SBU1-PadA8)*%
X57517500Y-76250000D03*
%TO.P,USB1,A7,DN1_A7*%
%TO.N,USB_D-*%
X57517500Y-75250000D03*
%TO.P,USB1,A6,DP1_A6*%
%TO.N,USB_D+*%
X57517500Y-74750000D03*
%TO.P,USB1,A5,CC1_A5*%
%TO.N,Net-(USB1-CC1)*%
X57517500Y-73750000D03*
%TO.P,USB1,A4,VBUS_A4*%
%TO.N,VBUS*%
X57517500Y-72450000D03*
%TO.P,USB1,A1,GND_A1*%
%TO.N,GND*%
X57517500Y-71650000D03*
D42*
%TO.P,USB1,3,SH_3*%
X52577500Y-70670000D03*
%TO.P,USB1,2,SH_2*%
X52577500Y-79330000D03*
D43*
%TO.P,USB1,1,SH_1*%
X56757500Y-79330000D03*
%TO.P,USB1,0,SH_0*%
X56757500Y-70670000D03*
D44*
%TO.P,USB1,*%
%TO.N,*%
X56257500Y-77900000D03*
X56257500Y-72100000D03*
%TD*%
D11*
%TO.P,C18,2*%
%TO.N,+3.3V*%
X70912500Y-82250000D03*
%TO.P,C18,1*%
%TO.N,GND*%
X72637500Y-82250000D03*
%TD*%
D22*
%TO.P,C14,2*%
%TO.N,GND*%
X69650000Y-53575000D03*
%TO.P,C14,1*%
%TO.N,+3.3V*%
X69650000Y-51850000D03*
%TD*%
D23*
%TO.P,C25,2*%
%TO.N,GND*%
X55500000Y-67387500D03*
%TO.P,C25,1*%
%TO.N,+3.3V*%
X55500000Y-69112500D03*
%TD*%
%TO.P,C13,2*%
%TO.N,Net-(U3-LX)*%
X69025000Y-89887500D03*
%TO.P,C13,1*%
%TO.N,Net-(U3-BS)*%
X69025000Y-91612500D03*
%TD*%
D35*
%TO.P,SW2,4,4_4*%
%TO.N,GND*%
X57601219Y-53648781D03*
%TO.P,SW2,3,3_3*%
X53500000Y-57750000D03*
%TO.P,SW2,2,2_2*%
%TO.N,RUN*%
X54984924Y-51032486D03*
%TO.P,SW2,1,1_1*%
X50883705Y-55133705D03*
%TD*%
D45*
%TO.P,U4,8,VDD_8*%
%TO.N,+3.3V*%
X51232881Y-62464935D03*
%TO.P,U4,7,GND_7*%
%TO.N,GND*%
X51232881Y-63124935D03*
%TO.P,U4,6,VDDIO_6*%
%TO.N,+3.3V*%
X51232881Y-63764935D03*
%TO.P,U4,5,SDO_5*%
%TO.N,GND*%
X51232881Y-64424935D03*
%TO.P,U4,4,SCK_4*%
%TO.N,SCL0*%
X52672881Y-64424935D03*
%TO.P,U4,3,SDA_3*%
%TO.N,SDA0*%
X52672881Y-63764935D03*
%TO.P,U4,2,CSB_2*%
%TO.N,+3.3V*%
X52672881Y-63124935D03*
%TO.P,U4,1,GND_1*%
%TO.N,GND*%
X52672881Y-62464935D03*
%TD*%
D46*
%TO.N,GPIO8*%
X59817290Y-71099438D03*
%TO.N,GND*%
X64250000Y-78750000D03*
X83750000Y-64500000D03*
X58750000Y-59250000D03*
X74250000Y-78250000D03*
X73500000Y-74250000D03*
%TO.N,RUN*%
X67800000Y-65820230D03*
%TO.N,GND*%
X74000000Y-69000000D03*
%TO.N,GPIO26*%
X92750000Y-63016076D03*
%TO.N,GND*%
X51250000Y-66250000D03*
%TO.N,GPIO16*%
X78765491Y-60484509D03*
%TO.N,SPI_SD3*%
X66825000Y-52570116D03*
%TO.N,GND*%
X93250000Y-61000000D03*
X83000000Y-64500000D03*
%TO.N,GPIO26*%
X91336768Y-68586768D03*
%TO.N,GPIO12*%
X77750000Y-76900000D03*
%TO.N,GND*%
X76500000Y-79250000D03*
%TO.N,+3.3V*%
X66768771Y-65756305D03*
%TO.N,GND*%
X75000000Y-89250000D03*
%TO.N,GPIO0*%
X59750000Y-86000000D03*
%TO.N,GPIO22*%
X73714584Y-64100000D03*
%TO.N,GND*%
X51500000Y-67000000D03*
%TO.N,GPIO16*%
X70000000Y-70282632D03*
%TO.N,GND*%
X77500000Y-73250000D03*
%TO.N,+BATT*%
X93500000Y-67000000D03*
%TO.N,GPIO10*%
X78250000Y-84750000D03*
%TO.N,GPIO0*%
X61000000Y-61225000D03*
%TO.N,GND*%
X66000000Y-71500000D03*
%TO.N,+BATT*%
X97750000Y-65750000D03*
%TO.N,GPIO22*%
X91500000Y-84500000D03*
%TO.N,GPIO1*%
X59150000Y-86685995D03*
%TO.N,GND*%
X99000000Y-72000000D03*
X57000000Y-82750000D03*
X67000000Y-64500000D03*
X83000000Y-65250000D03*
%TO.N,GPIO22*%
X92659551Y-78022995D03*
%TO.N,+3.3V*%
X74500000Y-64750000D03*
%TO.N,GPIO15*%
X84250000Y-61416076D03*
%TO.N,GND*%
X72535882Y-74164065D03*
%TO.N,GPIO20*%
X73750000Y-65962500D03*
%TO.N,GPIO12*%
X62080038Y-68836690D03*
%TO.N,GND*%
X93250000Y-60250000D03*
X74750000Y-68250000D03*
X57750000Y-67000000D03*
%TO.N,GPIO2*%
X63590794Y-61920386D03*
%TO.N,GPIO14*%
X82000000Y-69408873D03*
%TO.N,GPIO24*%
X91250000Y-76250000D03*
%TO.N,GND*%
X64250000Y-78000000D03*
%TO.N,GPIO6*%
X56187729Y-64823301D03*
%TO.N,GND*%
X57750000Y-67750000D03*
%TO.N,GPIO11*%
X61514351Y-69402377D03*
%TO.N,GPIO20*%
X68700012Y-64758411D03*
%TO.N,GND*%
X63500000Y-78000000D03*
%TO.N,+BATT*%
X93250000Y-91250000D03*
X93000000Y-83250000D03*
%TO.N,USB_D-*%
X67925000Y-61000000D03*
%TO.N,GND*%
X52584227Y-97665773D03*
X74250000Y-73500000D03*
X70000000Y-69482629D03*
%TO.N,GPIO10*%
X60948664Y-69968064D03*
%TO.N,GPIO13*%
X84250000Y-69250000D03*
%TO.N,GND*%
X77250000Y-79250000D03*
X78250000Y-73250000D03*
%TO.N,+5V*%
X74500000Y-91250000D03*
%TO.N,GND*%
X99000000Y-62500000D03*
%TO.N,USB_D+*%
X56250000Y-75000000D03*
%TO.N,GND*%
X73500000Y-73500000D03*
%TO.N,GPIO1*%
X60973527Y-62100000D03*
%TO.N,GND*%
X74250000Y-79000000D03*
%TO.N,GPIO8*%
X78000000Y-93750000D03*
%TO.N,GND*%
X67500000Y-96500000D03*
%TO.N,GPIO7*%
X63700000Y-63553390D03*
%TO.N,GND*%
X63500000Y-78750000D03*
%TO.N,+BATT*%
X97500000Y-74000000D03*
%TO.N,SPI_CS*%
X64502101Y-55117374D03*
%TO.N,GPIO2*%
X58550000Y-87250000D03*
%TO.N,GND*%
X64000000Y-83000000D03*
%TO.N,USB_D+*%
X67075000Y-61000000D03*
%TO.N,GPIO9*%
X60382977Y-70533751D03*
%TO.N,+3.3V*%
X70750000Y-60500000D03*
%TO.N,GND*%
X65204414Y-70400000D03*
%TO.N,GPIO9*%
X84000000Y-85500000D03*
%TO.N,GPIO14*%
X63359890Y-70477366D03*
%TO.N,+3.3V*%
X53500000Y-63164935D03*
%TO.N,+5V*%
X72737500Y-90863998D03*
%TO.N,GND*%
X63956351Y-53440737D03*
X58500000Y-67000000D03*
%TO.N,GPIO9*%
X59600000Y-68263585D03*
%TO.N,GPIO24*%
X92209265Y-70459265D03*
%TO.N,GPIO22*%
X68795753Y-63891045D03*
%TO.N,+3.3V*%
X54750000Y-65024935D03*
%TO.N,GND*%
X77500000Y-74000000D03*
%TO.N,SPI_SD3*%
X65695578Y-60738479D03*
%TO.N,GPIO15*%
X65516726Y-65400000D03*
%TO.N,GND*%
X51250000Y-65500000D03*
X83750000Y-65250000D03*
%TO.N,SPI_CLK*%
X64260090Y-60792725D03*
%TO.N,GND*%
X71500000Y-90750000D03*
%TO.N,+BATT*%
X97500000Y-82000000D03*
%TO.N,GND*%
X67750000Y-87250000D03*
%TO.N,+BATT*%
X93000000Y-75000000D03*
%TO.N,GPIO13*%
X63039563Y-71210437D03*
%TO.N,GND*%
X99000000Y-63250000D03*
%TO.N,+1.1V*%
X67768648Y-67662172D03*
%TO.N,+5V*%
X69657006Y-84015544D03*
%TO.N,GND*%
X94000000Y-61000000D03*
X99000000Y-71250000D03*
%TO.N,GPIO7*%
X85500000Y-94500000D03*
%TO.N,GND*%
X64823315Y-68073315D03*
%TO.N,+BATT*%
X97000000Y-90000000D03*
%TO.N,GND*%
X64000000Y-98600000D03*
%TO.N,GPIO11*%
X84000000Y-77500000D03*
%TO.N,USB_D-*%
X58667501Y-74821495D03*
%TO.N,+BATT*%
X97000000Y-60000000D03*
%TO.N,GPIO9*%
X63683275Y-64900000D03*
%TO.N,+1.1V*%
X68900000Y-58927035D03*
%TO.N,GPIO20*%
X91500000Y-92500000D03*
%TO.N,RUN*%
X56250000Y-51750000D03*
%TO.N,GND*%
X53250000Y-62000000D03*
%TO.N,SPI_CS*%
X61000000Y-57500000D03*
%TO.N,GND*%
X74750000Y-69000000D03*
X76500000Y-78500000D03*
X74250000Y-74250000D03*
X61000000Y-78000000D03*
%TO.N,SPI_CLK*%
X68392384Y-52987500D03*
%TO.N,+1.1V*%
X66102101Y-57620503D03*
%TO.N,GND*%
X53250000Y-69750000D03*
X66250000Y-73750000D03*
%TO.N,GPIO6*%
X51455735Y-69205735D03*
%TO.N,GND*%
X65250000Y-62500000D03*
X74000000Y-68250000D03*
X78250000Y-74000000D03*
X68500000Y-55500000D03*
%TO.N,GPIO20*%
X92664665Y-86000000D03*
%TO.N,GND*%
X94000000Y-60250000D03*
%TD*%
%TO.N,GND*%
D47*
X65150000Y-72800000D02*
X65300000Y-72800000D01*
%TO.N,GPIO25*%
X94704663Y-65843873D02*
X94704663Y-67458873D01*
%TO.N,GPIO28*%
X77028820Y-62016076D02*
X89789663Y-62016076D01*
%TO.N,GND*%
X51740000Y-67250000D02*
X51740000Y-67240000D01*
%TO.N,GPIO2*%
X52950000Y-89300000D02*
X55000000Y-87250000D01*
%TO.N,SPI_SD1*%
X62845763Y-54911449D02*
X63925000Y-55990686D01*
%TO.N,+3.3V*%
X70750000Y-60500000D02*
X70750000Y-59637500D01*
%TO.N,GPIO22*%
X92230874Y-78451672D02*
X92659551Y-78022995D01*
%TO.N,Net-(C4-Pad1)*%
X67350000Y-72800000D02*
X69075000Y-72800000D01*
%TO.N,GPIO19*%
X94704663Y-89407264D02*
X94704663Y-91812264D01*
%TO.N,GPIO12*%
X63600000Y-66737500D02*
X63600000Y-67316728D01*
%TO.N,+BATT*%
D48*
X80074663Y-74986670D02*
X92986670Y-74986670D01*
%TO.N,+3.3V*%
D49*
X69412500Y-85250000D02*
X70912500Y-83750000D01*
%TO.N,GPIO20*%
D47*
X69041601Y-65100000D02*
X69637500Y-65100000D01*
%TO.N,+3.3V*%
D49*
X60962500Y-84600000D02*
X60962500Y-81675000D01*
D47*
X51620381Y-62077435D02*
X51232881Y-62464935D01*
%TO.N,GPIO22*%
X78201672Y-78451672D02*
X92230874Y-78451672D01*
%TO.N,X_IN*%
X63959890Y-72215110D02*
X63350000Y-72825000D01*
%TO.N,GPIO12*%
X77750000Y-76900000D02*
X79447993Y-76900000D01*
%TO.N,GPIO19*%
X70355092Y-65500000D02*
X70475000Y-65619908D01*
%TO.N,Net-(U3-FB)*%
D49*
X70937500Y-85250000D02*
X72612500Y-85250000D01*
%TO.N,SCL0*%
D47*
X52672881Y-64424935D02*
X55737565Y-64424935D01*
%TO.N,+3.3V*%
X52232881Y-63124935D02*
X52672881Y-63124935D01*
%TO.N,RUN*%
X68000000Y-66737500D02*
X68000000Y-65861523D01*
%TO.N,GND*%
X59387500Y-59887500D02*
X58750000Y-59250000D01*
X50600000Y-63257816D02*
X50600000Y-64199870D01*
%TO.N,+3.3V*%
D49*
X70037500Y-86680000D02*
X66962500Y-89755000D01*
%TO.N,Net-(USB1-CC2)*%
D47*
X58750000Y-76750000D02*
X57517500Y-76750000D01*
%TO.N,SDA0*%
X52500000Y-66990000D02*
X52072881Y-66562881D01*
%TO.N,+3.3V*%
X66800000Y-58562500D02*
X67000000Y-58362500D01*
%TO.N,SPI_SD1*%
X63924999Y-58891725D02*
X63925001Y-59223097D01*
%TO.N,GND*%
X56330000Y-70670000D02*
X56757500Y-70670000D01*
%TO.N,SPI_CS*%
X65550000Y-52273114D02*
X65264386Y-51987500D01*
%TO.N,GPIO20*%
X78124663Y-86369467D02*
X92295198Y-86369467D01*
%TO.N,GPIO19*%
X70475000Y-65619908D02*
X70475000Y-66779222D01*
%TO.N,GPIO24*%
X91250000Y-76791333D02*
X90514663Y-77526670D01*
%TO.N,+3.3V*%
X64300000Y-61703640D02*
X64048180Y-61451820D01*
%TO.N,+5V*%
D49*
X71775000Y-89600000D02*
X72725000Y-89600000D01*
%TO.N,Net-(U3-FB)*%
D47*
X73337500Y-85975000D02*
X72612500Y-85250000D01*
%TO.N,+3.3V*%
X71250000Y-64525000D02*
X71025000Y-64300000D01*
%TO.N,GPIO1*%
X62128300Y-61500000D02*
X62228640Y-61500000D01*
%TO.N,+3.3V*%
D49*
X70542500Y-86680000D02*
X69112500Y-85250000D01*
%TO.N,GPIO17*%
D47*
X69737500Y-66737500D02*
X68800000Y-66737500D01*
%TO.N,+1.1V*%
X68137500Y-68250000D02*
X68137500Y-68031024D01*
%TO.N,X_IN*%
X63937500Y-69033278D02*
X63937500Y-70206447D01*
%TO.N,Net-(U3-LX)*%
D49*
X70537500Y-89887500D02*
X70825000Y-89600000D01*
%TO.N,GPIO1*%
D47*
X59150000Y-86685995D02*
X59150000Y-97712500D01*
%TO.N,SPI_CS*%
X62353795Y-58616295D02*
X63600000Y-59862500D01*
%TO.N,+3.3V*%
X64100000Y-61400000D02*
X64048180Y-61451820D01*
%TO.N,+5V*%
D49*
X72500000Y-88875000D02*
X72187500Y-89187500D01*
%TO.N,+3.3V*%
D47*
X66400000Y-61350000D02*
X66350000Y-61400000D01*
%TO.N,GPIO22*%
X68818375Y-63891045D02*
X68827330Y-63900000D01*
%TO.N,GPIO20*%
X92295198Y-86369467D02*
X92664665Y-86000000D01*
%TO.N,+3.3V*%
D49*
X70612500Y-86680000D02*
X70037500Y-86680000D01*
%TO.N,+BATT*%
D48*
X97000000Y-60000000D02*
X97000000Y-59096413D01*
%TO.N,+3.3V*%
D47*
X70750000Y-93337500D02*
X65900000Y-93337500D01*
X57500000Y-60837500D02*
X57687500Y-61025000D01*
%TO.N,GPIO22*%
X91500000Y-84659130D02*
X90514663Y-85644467D01*
%TO.N,+BATT*%
D48*
X80074663Y-91222264D02*
X93222264Y-91222264D01*
%TO.N,RUN*%
D47*
X67800000Y-65661523D02*
X67800000Y-65820230D01*
%TO.N,GND*%
X58040470Y-58540470D02*
X58750000Y-59250000D01*
%TO.N,+3.3V*%
X74500000Y-64750000D02*
X72975000Y-64750000D01*
%TO.N,GND*%
X65765255Y-66000000D02*
X66200000Y-65565255D01*
X50825065Y-64424935D02*
X51232881Y-64424935D01*
%TO.N,GPIO19*%
X92066866Y-86769467D02*
X94704663Y-89407264D01*
%TO.N,GPIO16*%
X69951474Y-70282632D02*
X70000000Y-70282632D01*
%TO.N,GPIO9*%
X86070196Y-85500000D02*
X86214663Y-85644467D01*
%TO.N,SDA0*%
X52072881Y-66562881D02*
X52072881Y-63830621D01*
%TO.N,Net-(D1-A)*%
X72250000Y-93462500D02*
X72250000Y-93662500D01*
%TO.N,GPIO12*%
X63600000Y-67316728D02*
X62080038Y-68836690D01*
%TO.N,+3.3V*%
D49*
X59937500Y-80300000D02*
X59937500Y-75937500D01*
%TO.N,GND*%
D48*
X67750000Y-95112500D02*
X67750000Y-96250000D01*
%TO.N,GPIO16*%
D47*
X68475000Y-67475000D02*
X68666722Y-67475000D01*
%TO.N,Net-(D1-A)*%
X72250000Y-93662500D02*
X70750000Y-95162500D01*
%TO.N,USB_D-*%
X57517500Y-75250000D02*
X58417500Y-75250000D01*
X58417500Y-74250000D02*
X58667501Y-74500001D01*
%TO.N,RUN*%
X50883705Y-55133705D02*
X54984924Y-51032486D01*
%TO.N,GPIO6*%
X51455735Y-68794265D02*
X51500000Y-68750000D01*
%TO.N,SPI_SD0*%
X64800000Y-59862500D02*
X64800000Y-58966722D01*
%TO.N,Net-(R2-Pad1)*%
X56750000Y-57000000D02*
X56750000Y-56750000D01*
%TO.N,GND*%
X65200000Y-66737500D02*
X65200000Y-67696630D01*
%TO.N,GPIO23*%
X75250000Y-63500000D02*
X77100000Y-65350000D01*
%TO.N,GPIO10*%
X60250000Y-69269400D02*
X60948664Y-69968064D01*
X62762500Y-65500000D02*
X62228640Y-65500000D01*
%TO.N,+3.3V*%
X51377500Y-71042792D02*
X51904708Y-71570000D01*
%TO.N,SPI_SD2*%
X64400000Y-59862500D02*
X64400000Y-59328640D01*
%TO.N,GND*%
X52785065Y-62464935D02*
X53250000Y-62000000D01*
%TO.N,GPIO27*%
X95529663Y-62416076D02*
X96654663Y-61291076D01*
%TO.N,GPIO22*%
X74850000Y-64100000D02*
X76700000Y-65950000D01*
%TO.N,GPIO6*%
X56187729Y-64823301D02*
X57511030Y-63500000D01*
%TO.N,+3.3V*%
D49*
X66962500Y-92350000D02*
X66212500Y-93100000D01*
D47*
X54024935Y-65750000D02*
X54750000Y-65024935D01*
%TO.N,GPIO10*%
X79180196Y-84750000D02*
X80074663Y-85644467D01*
%TO.N,GND*%
X70048526Y-69482629D02*
X70000000Y-69482629D01*
%TO.N,GPIO0*%
X60962500Y-96916659D02*
X60962500Y-97800000D01*
%TO.N,GND*%
X71980000Y-74862500D02*
X71980000Y-74719947D01*
%TO.N,+3.3V*%
X66400000Y-66737500D02*
X66400000Y-66125076D01*
%TO.N,GPIO26*%
X92550000Y-62816076D02*
X76697448Y-62816076D01*
%TO.N,+5V*%
D49*
X72187500Y-89187500D02*
X72312500Y-89187500D01*
%TO.N,GND*%
D47*
X65200000Y-66737500D02*
X65200000Y-66203640D01*
%TO.N,SPI_CS*%
X60116295Y-58616295D02*
X62353795Y-58616295D01*
%TO.N,VBUS*%
X58250000Y-72450000D02*
X57517500Y-72450000D01*
%TO.N,GPIO19*%
X75500000Y-71804222D02*
X75500000Y-84310490D01*
%TO.N,GND*%
X74225000Y-88475000D02*
X75000000Y-89250000D01*
%TO.N,GPIO16*%
X68400000Y-66737500D02*
X68400000Y-67400000D01*
%TO.N,RUN*%
X50883705Y-56883705D02*
X51104765Y-57104765D01*
%TO.N,+3.3V*%
X51620381Y-60944935D02*
X51620381Y-62077435D01*
%TO.N,Net-(U3-LX)*%
D49*
X69025000Y-89887500D02*
X70537500Y-89887500D01*
%TO.N,+3.3V*%
D47*
X67887500Y-57475000D02*
X68966722Y-57475000D01*
%TO.N,SPI_SD2*%
X64325000Y-55825000D02*
X63245763Y-54745763D01*
%TO.N,GPIO24*%
X78000000Y-70500000D02*
X77500000Y-70000000D01*
%TO.N,SPI_SD3*%
X66907616Y-52487500D02*
X67650000Y-52487500D01*
%TO.N,VBUS*%
X57167500Y-77200000D02*
X56567500Y-77200000D01*
X56567500Y-77200000D02*
X55650000Y-76282500D01*
%TO.N,X_OUT*%
X66000000Y-68445778D02*
X65662500Y-68783278D01*
%TO.N,GND*%
X66000000Y-71500000D02*
X66000000Y-73034744D01*
X64800000Y-53487500D02*
X64003114Y-53487500D01*
%TO.N,GPIO8*%
X62228640Y-64700000D02*
X59000000Y-67928640D01*
%TO.N,USB_D-*%
X67600000Y-60675000D02*
X67925000Y-61000000D01*
%TO.N,GPIO0*%
X59750000Y-86000000D02*
X59750000Y-95701474D01*
%TO.N,GPIO20*%
X75900000Y-66900000D02*
X75900000Y-84144804D01*
%TO.N,GPIO1*%
X62003301Y-61625000D02*
X62128300Y-61500000D01*
%TO.N,+3.3V*%
X52500000Y-69010000D02*
X51377500Y-70132500D01*
%TO.N,X_IN*%
X65155092Y-68725000D02*
X65600000Y-68280093D01*
%TO.N,+1.1V*%
X68500000Y-58362500D02*
X68000000Y-58862500D01*
%TO.N,GND*%
X53500000Y-69010000D02*
X53500000Y-69500000D01*
%TO.N,GPIO26*%
X91336768Y-68586768D02*
X90514663Y-69408873D01*
%TO.N,GPIO23*%
X69637500Y-63500000D02*
X75250000Y-63500000D01*
%TO.N,X_OUT*%
X66700000Y-71050000D02*
X67187500Y-71050000D01*
%TO.N,GPIO21*%
X94704663Y-82079467D02*
X94704663Y-83694467D01*
%TO.N,GPIO28*%
X69637500Y-61500000D02*
X76512744Y-61500000D01*
%TO.N,GND*%
X65200000Y-67696630D02*
X64823315Y-68073315D01*
%TO.N,+3.3V*%
D49*
X59062500Y-84600000D02*
X60962500Y-84600000D01*
%TO.N,GND*%
D48*
X55262500Y-97800000D02*
X52718454Y-97800000D01*
X55262500Y-84600000D02*
X57162500Y-84600000D01*
%TO.N,+3.3V*%
D47*
X70887500Y-56479222D02*
X70425000Y-56016722D01*
%TO.N,GPIO8*%
X78012264Y-93762264D02*
X80074663Y-93762264D01*
%TO.N,SPI_SD3*%
X65600000Y-59862500D02*
X65600000Y-60642901D01*
%TO.N,VBUS*%
X55650000Y-76282500D02*
X55650000Y-73732805D01*
%TO.N,GPIO16*%
X68666722Y-67475000D02*
X69025000Y-67833278D01*
%TO.N,+1.1V*%
X66000000Y-58862500D02*
X65500000Y-58362500D01*
%TO.N,Net-(U3-FB)*%
D49*
X72612500Y-83775000D02*
X72637500Y-83750000D01*
%TO.N,GND*%
D47*
X66200000Y-63700000D02*
X67000000Y-64500000D01*
%TO.N,+3.3V*%
X66400000Y-69400000D02*
X66400000Y-66737500D01*
%TO.N,Net-(C4-Pad1)*%
X69075000Y-72800000D02*
X69100000Y-72825000D01*
%TO.N,GPIO19*%
X77958978Y-86769467D02*
X92066866Y-86769467D01*
%TO.N,+3.3V*%
D49*
X60637500Y-72909598D02*
X58827902Y-71100000D01*
%TO.N,Net-(U3-LX)*%
X70825000Y-89600000D02*
X70825000Y-88532500D01*
%TO.N,+3.3V*%
D47*
X68966722Y-57475000D02*
X70425000Y-56016722D01*
X61162500Y-64300000D02*
X62762500Y-64300000D01*
%TO.N,GPIO16*%
X78765491Y-60484509D02*
X79268096Y-60484509D01*
%TO.N,+5V*%
D49*
X75345000Y-91250000D02*
X75370000Y-91225000D01*
%TO.N,X_IN*%
D47*
X64245778Y-68725000D02*
X65155092Y-68725000D01*
%TO.N,+3.3V*%
X51620381Y-60944935D02*
X51620381Y-59170089D01*
%TO.N,SDA0*%
X56787500Y-61875000D02*
X58125000Y-61875000D01*
%TO.N,GPIO24*%
X77500000Y-70000000D02*
X77500000Y-64750000D01*
%TO.N,GPIO22*%
X68795753Y-63891045D02*
X68818375Y-63891045D01*
%TO.N,+3.3V*%
X51620381Y-59170089D02*
X52395235Y-58395235D01*
%TO.N,GPIO21*%
X94704663Y-83694467D02*
X96654663Y-85644467D01*
%TO.N,VBUS*%
X56566403Y-72816403D02*
X56932805Y-72450000D01*
%TO.N,GPIO24*%
X77500000Y-64750000D02*
X75850000Y-63100000D01*
%TO.N,+1.1V*%
X68500000Y-58362500D02*
X68500000Y-58527035D01*
X68000000Y-58862500D02*
X68000000Y-59862500D01*
%TO.N,GPIO13*%
X62750000Y-70920874D02*
X63039563Y-71210437D01*
%TO.N,SPI_SD2*%
X64188851Y-52840737D02*
X64260614Y-52912500D01*
%TO.N,GND*%
X50855735Y-67644265D02*
X50855735Y-71855735D01*
X70600000Y-70034103D02*
X70048526Y-69482629D01*
%TO.N,+3.3V*%
D49*
X57014214Y-69112500D02*
X55500000Y-69112500D01*
%TO.N,X_IN*%
D47*
X65600000Y-68280093D02*
X65600000Y-66737500D01*
%TO.N,SCL0*%
X55737565Y-64424935D02*
X57500000Y-62662500D01*
%TO.N,GPIO13*%
X62750000Y-68732414D02*
X62750000Y-70920874D01*
%TO.N,+3.3V*%
D49*
X59937500Y-75937500D02*
X60637500Y-75237500D01*
%TO.N,+BATT*%
D48*
X77472736Y-91222264D02*
X77470000Y-91225000D01*
%TO.N,SDA0*%
D47*
X52138567Y-63764935D02*
X52672881Y-63764935D01*
%TO.N,USB_D+*%
X56500000Y-74750000D02*
X56250000Y-75000000D01*
%TO.N,+BATT*%
D48*
X97750000Y-65750000D02*
X97750000Y-65773536D01*
%TO.N,GPIO17*%
D47*
X72000000Y-69000000D02*
X69737500Y-66737500D01*
%TO.N,GPIO21*%
X91476868Y-78851672D02*
X94704663Y-82079467D01*
%TO.N,+3.3V*%
X51377500Y-70132500D02*
X51377500Y-71042792D01*
%TO.N,X_OUT*%
X66000000Y-66737500D02*
X66000000Y-68445778D01*
%TO.N,VBUS*%
X55650000Y-73732805D02*
X56566403Y-72816403D01*
%TO.N,GND*%
D48*
X62862500Y-84600000D02*
X62862500Y-84137500D01*
%TO.N,GPIO6*%
D47*
X57511030Y-63500000D02*
X62762500Y-63500000D01*
%TO.N,SPI_SD1*%
X64800000Y-52487500D02*
X64753237Y-52440737D01*
%TO.N,GND*%
D48*
X62862500Y-84137500D02*
X64000000Y-83000000D01*
X65662500Y-87400000D02*
X67600000Y-87400000D01*
%TO.N,GPIO26*%
D47*
X76697448Y-62816076D02*
X76181372Y-62300000D01*
%TO.N,+3.3V*%
X66800000Y-59862500D02*
X66800000Y-58562500D01*
%TO.N,GPIO16*%
X69025000Y-67833278D02*
X69025000Y-69356158D01*
%TO.N,+BATT*%
D48*
X80074663Y-83104467D02*
X92854467Y-83104467D01*
%TO.N,GPIO17*%
D47*
X72000000Y-69925000D02*
X72000000Y-69000000D01*
%TO.N,GPIO9*%
X62762500Y-65100000D02*
X63483275Y-65100000D01*
%TO.N,GPIO10*%
X60250000Y-67478640D02*
X60250000Y-69269400D01*
%TO.N,GPIO13*%
X64000000Y-67482414D02*
X62750000Y-68732414D01*
%TO.N,GND*%
X53000000Y-69500000D02*
X53250000Y-69750000D01*
D48*
X52462500Y-87400000D02*
X55262500Y-84600000D01*
%TO.N,SPI_SD1*%
D47*
X62845763Y-53137110D02*
X62845763Y-54911449D01*
%TO.N,GPIO2*%
X55000000Y-87250000D02*
X58550000Y-87250000D01*
%TO.N,GPIO1*%
X60973527Y-62100000D02*
X61448529Y-61625000D01*
%TO.N,+3.3V*%
X55500000Y-69112500D02*
X54622500Y-69112500D01*
X51232881Y-63764935D02*
X51572881Y-63764935D01*
%TO.N,GPIO21*%
X76300000Y-77115686D02*
X78035987Y-78851672D01*
X70171360Y-64700000D02*
X70475000Y-65003640D01*
%TO.N,+3.3V*%
X68400000Y-59862500D02*
X68800000Y-59862500D01*
%TO.N,GND*%
X68500000Y-56637500D02*
X68500000Y-55500000D01*
%TO.N,Net-(U3-FB)*%
X73337500Y-91287500D02*
X73337500Y-85975000D01*
%TO.N,GPIO8*%
X78000000Y-93750000D02*
X78012264Y-93762264D01*
%TO.N,GND*%
X62750000Y-52250000D02*
X61750000Y-53250000D01*
X66000000Y-73034744D02*
X66665256Y-73700000D01*
%TO.N,SDA0*%
X52072881Y-63830621D02*
X52138567Y-63764935D01*
%TO.N,SPI_SD0*%
X67345778Y-53487500D02*
X67650000Y-53487500D01*
%TO.N,Net-(R2-Pad1)*%
X56750000Y-56750000D02*
X57500000Y-56000000D01*
%TO.N,SPI_SD2*%
X64325000Y-59057408D02*
X64325000Y-55825000D01*
%TO.N,GPIO0*%
X59901769Y-95853243D02*
X59901769Y-95855928D01*
%TO.N,VBUS*%
X56932805Y-72450000D02*
X57517500Y-72450000D01*
X57517500Y-77250000D02*
X57517500Y-77550000D01*
%TO.N,GPIO27*%
X69637500Y-61900000D02*
X76347058Y-61900000D01*
%TO.N,+3.3V*%
X53250292Y-71570000D02*
X54260000Y-70560292D01*
%TO.N,SPI_CS*%
X65550000Y-53818986D02*
X65550000Y-52273114D01*
%TO.N,GND*%
X50855735Y-71855735D02*
X51750000Y-72750000D01*
%TO.N,SCL0*%
X62762500Y-63100000D02*
X57937500Y-63100000D01*
%TO.N,GPIO28*%
X76512744Y-61500000D02*
X77028820Y-62016076D01*
%TO.N,SPI_SD3*%
X66825000Y-52570116D02*
X66907616Y-52487500D01*
%TO.N,VBUS*%
X57517500Y-72750000D02*
X56632806Y-72750000D01*
%TO.N,+3.3V*%
X55827435Y-60837500D02*
X53500000Y-63164935D01*
%TO.N,GPIO16*%
X68400000Y-67400000D02*
X68475000Y-67475000D01*
%TO.N,+BATT*%
D48*
X97500000Y-82000000D02*
X97500000Y-82259130D01*
%TO.N,+3.3V*%
D47*
X61112500Y-60250000D02*
X62312500Y-60250000D01*
%TO.N,SPI_SD2*%
X64351643Y-52987500D02*
X64800000Y-52987500D01*
%TO.N,Net-(C4-Pad1)*%
X69100000Y-72825000D02*
X69100000Y-71137500D01*
%TO.N,+1.1V*%
X68137500Y-68031024D02*
X67768648Y-67662172D01*
%TO.N,GPIO21*%
X75112500Y-65362500D02*
X76300000Y-66550000D01*
%TO.N,+BATT*%
D48*
X80074663Y-91222264D02*
X77472736Y-91222264D01*
%TO.N,+3.3V*%
D47*
X72975000Y-64750000D02*
X72750000Y-64525000D01*
%TO.N,+1.1V*%
X66000000Y-59862500D02*
X66000000Y-58862500D01*
%TO.N,+3.3V*%
D49*
X60962500Y-81675000D02*
X61137500Y-81500000D01*
D47*
X70425000Y-56016722D02*
X70425000Y-52625000D01*
X54622500Y-69112500D02*
X54260000Y-68750000D01*
%TO.N,GPIO21*%
X76300000Y-66550000D02*
X76300000Y-77115686D01*
%TO.N,GND*%
X60825000Y-77825000D02*
X61000000Y-78000000D01*
%TO.N,GPIO9*%
X63483275Y-65100000D02*
X63683275Y-64900000D01*
%TO.N,GPIO6*%
X51500000Y-68750000D02*
X51740000Y-68750000D01*
%TO.N,+3.3V*%
X62762500Y-64300000D02*
X63950000Y-64300000D01*
%TO.N,GPIO21*%
X78035987Y-78851672D02*
X91476868Y-78851672D01*
%TO.N,+3.3V*%
X51572881Y-62464935D02*
X52232881Y-63124935D01*
X53500000Y-67527500D02*
X52500000Y-68527500D01*
%TO.N,GND*%
X59387500Y-60250000D02*
X59387500Y-59887500D01*
%TO.N,+5V*%
D50*
X66765544Y-84015544D02*
X69657006Y-84015544D01*
%TO.N,SPI_CLK*%
D47*
X64803635Y-60792725D02*
X64260090Y-60792725D01*
%TO.N,+3.3V*%
X53887500Y-65750000D02*
X54024935Y-65750000D01*
X51232881Y-62464935D02*
X51572881Y-62464935D01*
%TO.N,GPIO14*%
X64400000Y-66737500D02*
X64400000Y-67648100D01*
%TO.N,SPI_CLK*%
X65200000Y-59862500D02*
X65200000Y-60396360D01*
%TO.N,GPIO14*%
X82000000Y-69408873D02*
X80074663Y-69408873D01*
%TO.N,+5V*%
D49*
X74500000Y-91250000D02*
X75345000Y-91250000D01*
%TO.N,SDA0*%
D47*
X54897565Y-63764935D02*
X56000000Y-62662500D01*
%TO.N,GPIO7*%
X85500000Y-94476927D02*
X86214663Y-93762264D01*
%TO.N,GND*%
X66200000Y-63300000D02*
X66050000Y-63300000D01*
%TO.N,X_IN*%
X63937500Y-70206447D02*
X63959890Y-70228837D01*
%TO.N,+3.3V*%
X66400000Y-66125076D02*
X66768771Y-65756305D01*
%TO.N,GND*%
X67350000Y-74500000D02*
X67000000Y-74500000D01*
%TO.N,GPIO7*%
X62762500Y-63900000D02*
X63353390Y-63900000D01*
%TO.N,+5V*%
D49*
X72187500Y-89187500D02*
X71775000Y-89600000D01*
%TO.N,GND*%
D47*
X51232881Y-63124935D02*
X50732881Y-63124935D01*
%TO.N,SPI_SD0*%
X64725000Y-58891722D02*
X64725000Y-56108278D01*
%TO.N,Net-(U3-LX)*%
D49*
X70825000Y-88532500D02*
X70612500Y-88320000D01*
%TO.N,SPI_SD2*%
D47*
X64276643Y-52912500D02*
X64351643Y-52987500D01*
%TO.N,GND*%
X67000000Y-74500000D02*
X66250000Y-73750000D01*
%TO.N,SPI_SD2*%
X64260614Y-52912500D02*
X64276643Y-52912500D01*
%TO.N,GPIO25*%
X69637500Y-62700000D02*
X76015686Y-62700000D01*
%TO.N,Net-(C4-Pad1)*%
X69100000Y-71137500D02*
X69012500Y-71050000D01*
%TO.N,GPIO13*%
X64000000Y-66737500D02*
X64000000Y-67482414D01*
%TO.N,X_IN*%
X63937500Y-69033278D02*
X64245778Y-68725000D01*
%TO.N,SPI_SD1*%
X64753237Y-52440737D02*
X63542136Y-52440737D01*
%TO.N,+3.3V*%
X52672881Y-63124935D02*
X53460000Y-63124935D01*
%TO.N,GPIO15*%
X65437954Y-65400000D02*
X65516726Y-65400000D01*
%TO.N,SPI_SD0*%
X64725000Y-56108278D02*
X67345778Y-53487500D01*
%TO.N,SPI_SD1*%
X63925001Y-59223097D02*
X64000000Y-59298095D01*
%TO.N,+3.3V*%
D49*
X69112500Y-85250000D02*
X69412500Y-85250000D01*
X70612500Y-86680000D02*
X70542500Y-86680000D01*
%TO.N,+BATT*%
D48*
X97000000Y-59096413D02*
X96654663Y-58751076D01*
%TO.N,GND*%
D47*
X64775000Y-69538209D02*
X64775000Y-69500000D01*
%TO.N,SPI_CS*%
X61000000Y-57500000D02*
X61000000Y-57732590D01*
%TO.N,+3.3V*%
X53500000Y-66137500D02*
X53887500Y-65750000D01*
D49*
X66212500Y-93100000D02*
X65662500Y-93100000D01*
%TO.N,GPIO19*%
D47*
X94704663Y-91812264D02*
X96654663Y-93762264D01*
%TO.N,GND*%
X62750000Y-51750000D02*
X62750000Y-52250000D01*
%TO.N,GPIO8*%
X62762500Y-64700000D02*
X62228640Y-64700000D01*
%TO.N,GND*%
X64003114Y-53487500D02*
X63956351Y-53440737D01*
%TO.N,GPIO27*%
X76347058Y-61900000D02*
X76863134Y-62416076D01*
%TO.N,X_OUT*%
X65662500Y-70012500D02*
X66700000Y-71050000D01*
%TO.N,GND*%
D48*
X52718454Y-97800000D02*
X52584227Y-97665773D01*
%TO.N,+1.1V*%
D47*
X68137500Y-68250000D02*
X67778640Y-68250000D01*
%TO.N,GPIO20*%
X68700012Y-64758411D02*
X69041601Y-65100000D01*
%TO.N,VBUS*%
X58700000Y-72000000D02*
X57950000Y-72750000D01*
%TO.N,GPIO11*%
X61000000Y-67662500D02*
X61000000Y-68888026D01*
%TO.N,GPIO8*%
X59000000Y-67928640D02*
X59000000Y-70282148D01*
%TO.N,GPIO26*%
X76181372Y-62300000D02*
X69637500Y-62300000D01*
%TO.N,Net-(R2-Pad1)*%
X61601219Y-51898781D02*
X57500000Y-56000000D01*
%TO.N,Net-(USB1-CC2)*%
X59000000Y-77000000D02*
X58750000Y-76750000D01*
%TO.N,Net-(U3-FB)*%
D49*
X72612500Y-85250000D02*
X72612500Y-83775000D01*
%TO.N,RUN*%
D47*
X56250000Y-51750000D02*
X55702438Y-51750000D01*
%TO.N,GND*%
D48*
X62862500Y-97800000D02*
X63200000Y-97800000D01*
%TO.N,SPI_SD2*%
D47*
X63707822Y-52840737D02*
X64188851Y-52840737D01*
%TO.N,GPIO22*%
X76700000Y-76950000D02*
X78201672Y-78451672D01*
%TO.N,VBUS*%
X56632806Y-72750000D02*
X56566403Y-72816403D01*
%TO.N,GPIO22*%
X68827330Y-63900000D02*
X69637500Y-63900000D01*
%TO.N,+3.3V*%
X51572881Y-63764935D02*
X52212881Y-63124935D01*
X69650000Y-51850000D02*
X67787500Y-51850000D01*
%TO.N,GPIO9*%
X84000000Y-85500000D02*
X86070196Y-85500000D01*
%TO.N,SDA0*%
X52672881Y-63764935D02*
X54897565Y-63764935D01*
%TO.N,RUN*%
X68000000Y-65861523D02*
X67800000Y-65661523D01*
%TO.N,GND*%
X71775000Y-91025000D02*
X71500000Y-90750000D01*
X70600000Y-72650000D02*
X70600000Y-70034103D01*
%TO.N,VBUS*%
X58700000Y-72000000D02*
X58250000Y-72450000D01*
%TO.N,GND*%
X53500000Y-69500000D02*
X53250000Y-69750000D01*
%TO.N,GPIO16*%
X69025000Y-69356158D02*
X69951474Y-70282632D01*
%TO.N,+BATT*%
D48*
X97500000Y-74141333D02*
X96654663Y-74986670D01*
%TO.N,GPIO24*%
D47*
X75850000Y-63100000D02*
X69637500Y-63100000D01*
%TO.N,GND*%
X66200000Y-65565255D02*
X66200000Y-63300000D01*
D48*
X67600000Y-87400000D02*
X67750000Y-87250000D01*
%TO.N,+3.3V*%
D47*
X71025000Y-64300000D02*
X69637500Y-64300000D01*
%TO.N,GPIO2*%
X52462500Y-89300000D02*
X52950000Y-89300000D01*
%TO.N,GND*%
X52672881Y-62464935D02*
X52785065Y-62464935D01*
%TO.N,+BATT*%
D48*
X80074663Y-58751076D02*
X96654663Y-58751076D01*
%TO.N,GND*%
D47*
X65204414Y-70400000D02*
X65204414Y-69967623D01*
%TO.N,GPIO27*%
X76863134Y-62416076D02*
X95529663Y-62416076D01*
%TO.N,X_IN*%
X65150000Y-74500000D02*
X65025000Y-74500000D01*
%TO.N,GPIO20*%
X91500000Y-92776927D02*
X90514663Y-93762264D01*
%TO.N,+3.3V*%
D49*
X60637500Y-75237500D02*
X60637500Y-72909598D01*
%TO.N,SPI_CLK*%
D47*
X65200000Y-60396360D02*
X64803635Y-60792725D01*
%TO.N,+3.3V*%
X57687500Y-61025000D02*
X60337500Y-61025000D01*
%TO.N,SCL0*%
X57937500Y-63100000D02*
X57500000Y-62662500D01*
%TO.N,SPI_CS*%
X64217514Y-54515076D02*
X64853910Y-54515076D01*
%TO.N,GND*%
D48*
X63200000Y-97800000D02*
X64000000Y-98600000D01*
%TO.N,GPIO24*%
D47*
X92168530Y-70500000D02*
X78000000Y-70500000D01*
%TO.N,+5V*%
D49*
X72725000Y-90851498D02*
X72737500Y-90863998D01*
%TO.N,GPIO23*%
D47*
X77100000Y-70165686D02*
X77834315Y-70900000D01*
%TO.N,Net-(U3-BS)*%
D49*
X70537500Y-91612500D02*
X70825000Y-91900000D01*
%TO.N,SPI_SD0*%
D47*
X64800000Y-58966722D02*
X64725000Y-58891722D01*
%TO.N,GPIO10*%
X78250000Y-84750000D02*
X79180196Y-84750000D01*
%TO.N,USB_D+*%
X57517500Y-75750000D02*
X56617500Y-75750000D01*
%TO.N,GPIO19*%
X70475000Y-66779222D02*
X75500000Y-71804222D01*
%TO.N,+3.3V*%
X61112500Y-64250000D02*
X61162500Y-64300000D01*
%TO.N,+5V*%
D49*
X72500000Y-88250000D02*
X72500000Y-89375000D01*
D50*
X62412500Y-79662500D02*
X66765544Y-84015544D01*
%TO.N,+3.3V*%
D47*
X63296360Y-60700000D02*
X62762500Y-60700000D01*
%TO.N,+BATT*%
D48*
X97000000Y-90000000D02*
X97000000Y-90876927D01*
%TO.N,USB_D+*%
D47*
X67200000Y-60875000D02*
X67075000Y-61000000D01*
%TO.N,GND*%
X65150000Y-72800000D02*
X65150000Y-72350000D01*
D48*
X65662500Y-95000000D02*
X69137500Y-95000000D01*
%TO.N,USB_D-*%
D47*
X58667501Y-74999999D02*
X58667501Y-74821495D01*
%TO.N,SCL0*%
X53000000Y-66990000D02*
X53050000Y-66940000D01*
%TO.N,GPIO8*%
X59000000Y-70282148D02*
X59817290Y-71099438D01*
%TO.N,+3.3V*%
X66500000Y-69500000D02*
X66400000Y-69400000D01*
%TO.N,SPI_SD1*%
X63925001Y-58891723D02*
X63924999Y-58891725D01*
%TO.N,GPIO1*%
X61448529Y-61625000D02*
X62003301Y-61625000D01*
%TO.N,+3.3V*%
X64048180Y-61451820D02*
X63296360Y-60700000D01*
X52500000Y-68527500D02*
X52500000Y-69010000D01*
%TO.N,GPIO25*%
X76531762Y-63216076D02*
X92076866Y-63216076D01*
%TO.N,Net-(D2-A)*%
X72000000Y-71750000D02*
X72000000Y-73267500D01*
%TO.N,GND*%
D48*
X67750000Y-96250000D02*
X67500000Y-96500000D01*
%TO.N,GPIO21*%
D47*
X70475000Y-65003640D02*
X70475000Y-65054222D01*
%TO.N,GPIO12*%
X79447993Y-76900000D02*
X80074663Y-77526670D01*
%TO.N,USB_D+*%
X56617500Y-75750000D02*
X56250000Y-75382500D01*
%TO.N,SCL0*%
X53050000Y-64802054D02*
X52672881Y-64424935D01*
%TO.N,+BATT*%
D48*
X97500000Y-82259130D02*
X96654663Y-83104467D01*
%TO.N,X_OUT*%
D47*
X65662500Y-68783278D02*
X65662500Y-70012500D01*
%TO.N,SPI_CS*%
X64217514Y-54515076D02*
X64217514Y-54832787D01*
%TO.N,+BATT*%
D48*
X80074663Y-66868873D02*
X80205790Y-67000000D01*
%TO.N,+3.3V*%
D47*
X65900000Y-93337500D02*
X65662500Y-93100000D01*
%TO.N,GND*%
X65204414Y-69967623D02*
X64775000Y-69538209D01*
%TO.N,+3.3V*%
X63950000Y-64300000D02*
X64300000Y-63950000D01*
%TO.N,GPIO19*%
X75500000Y-84310490D02*
X77958978Y-86769467D01*
%TO.N,GPIO23*%
X91642993Y-70900000D02*
X94704663Y-73961670D01*
%TO.N,GPIO0*%
X61000000Y-61225000D02*
X61837615Y-61225000D01*
%TO.N,USB_D-*%
X67600000Y-59862500D02*
X67600000Y-60675000D01*
%TO.N,GND*%
X69862500Y-69345129D02*
X70000000Y-69482629D01*
D48*
X57162500Y-82912500D02*
X57000000Y-82750000D01*
%TO.N,+3.3V*%
D47*
X72750000Y-64525000D02*
X71250000Y-64525000D01*
%TO.N,X_IN*%
X65025000Y-74500000D02*
X63350000Y-72825000D01*
%TO.N,GND*%
X58040470Y-58290470D02*
X58040470Y-58540470D01*
D48*
X57162500Y-84600000D02*
X57162500Y-82912500D01*
%TO.N,GPIO6*%
D47*
X51455735Y-69205735D02*
X51455735Y-68794265D01*
%TO.N,+1.1V*%
X67778640Y-68250000D02*
X66800000Y-67271360D01*
%TO.N,SPI_SD2*%
X63245763Y-54745763D02*
X63245763Y-53302796D01*
%TO.N,+3.3V*%
X53460000Y-63124935D02*
X53500000Y-63164935D01*
%TO.N,RUN*%
X50883705Y-55133705D02*
X50883705Y-56883705D01*
%TO.N,GPIO0*%
X61962615Y-61100000D02*
X62762500Y-61100000D01*
%TO.N,GPIO20*%
X74962500Y-65962500D02*
X75900000Y-66900000D01*
%TO.N,GND*%
X65150000Y-72350000D02*
X66000000Y-71500000D01*
X60825000Y-77000000D02*
X60825000Y-77825000D01*
%TO.N,GPIO23*%
X77834315Y-70900000D02*
X91642993Y-70900000D01*
%TO.N,GPIO11*%
X84000000Y-77500000D02*
X84026670Y-77526670D01*
%TO.N,GPIO22*%
X76700000Y-65950000D02*
X76700000Y-76950000D01*
%TO.N,+3.3V*%
X52212881Y-63124935D02*
X52672881Y-63124935D01*
X66350000Y-61400000D02*
X64100000Y-61400000D01*
%TO.N,USB_D-*%
X58667501Y-74500001D02*
X58667501Y-74821495D01*
%TO.N,GPIO11*%
X84026670Y-77526670D02*
X86214663Y-77526670D01*
%TO.N,GPIO14*%
X63150000Y-70267476D02*
X63359890Y-70477366D01*
%TO.N,GPIO24*%
X91250000Y-76250000D02*
X91250000Y-76791333D01*
%TO.N,GPIO21*%
X70783278Y-65362500D02*
X75112500Y-65362500D01*
%TO.N,GPIO10*%
X62228640Y-65500000D02*
X60250000Y-67478640D01*
%TO.N,VBUS*%
X57517500Y-77550000D02*
X57167500Y-77200000D01*
%TO.N,SPI_SD2*%
X64400000Y-59328640D02*
X64400000Y-59132407D01*
%TO.N,+3.3V*%
X53500000Y-66990000D02*
X53500000Y-67527500D01*
%TO.N,GND*%
X53000000Y-69010000D02*
X53000000Y-69500000D01*
%TO.N,GPIO9*%
X59600000Y-69750774D02*
X60382977Y-70533751D01*
%TO.N,+3.3V*%
D49*
X69112500Y-85250000D02*
X68462500Y-85900000D01*
X61712500Y-85900000D02*
X60962500Y-85150000D01*
%TO.N,GPIO21*%
D47*
X69637500Y-64700000D02*
X70171360Y-64700000D01*
%TO.N,Net-(USB1-CC1)*%
X59750000Y-73750000D02*
X57517500Y-73750000D01*
%TO.N,+3.3V*%
X64300000Y-63950000D02*
X64300000Y-61703640D01*
%TO.N,+BATT*%
D48*
X92986670Y-74986670D02*
X93000000Y-75000000D01*
%TO.N,SPI_SD3*%
D47*
X65600000Y-60642901D02*
X65695578Y-60738479D01*
%TO.N,+BATT*%
D48*
X92854467Y-83104467D02*
X93000000Y-83250000D01*
%TO.N,Net-(D1-K)*%
D47*
X74250000Y-95000000D02*
X72287500Y-95000000D01*
%TO.N,GPIO15*%
X86089663Y-61416076D02*
X86214663Y-61291076D01*
%TO.N,GPIO2*%
X63590794Y-61920386D02*
X63570408Y-61900000D01*
%TO.N,GPIO20*%
X75900000Y-84144804D02*
X78124663Y-86369467D01*
%TO.N,SPI_SD2*%
X63245763Y-53302796D02*
X63707822Y-52840737D01*
%TO.N,GND*%
X51740000Y-67240000D02*
X51500000Y-67000000D01*
%TO.N,VBUS*%
X57517500Y-72450000D02*
X57517500Y-72750000D01*
%TO.N,GPIO14*%
X64400000Y-67648100D02*
X63150000Y-68898100D01*
%TO.N,GPIO26*%
X92750000Y-63016076D02*
X92550000Y-62816076D01*
%TO.N,+3.3V*%
X70837500Y-59500000D02*
X69637500Y-60700000D01*
D49*
X68462500Y-85900000D02*
X61712500Y-85900000D01*
D47*
X53500000Y-66990000D02*
X53500000Y-66137500D01*
%TO.N,+5V*%
D49*
X72312500Y-89187500D02*
X72500000Y-89375000D01*
%TO.N,GND*%
D47*
X74225000Y-88250000D02*
X74225000Y-88475000D01*
%TO.N,GPIO21*%
X70475000Y-65054222D02*
X70783278Y-65362500D01*
%TO.N,GPIO14*%
X63150000Y-68898100D02*
X63150000Y-70267476D01*
%TO.N,USB_D+*%
X67200000Y-59862500D02*
X67200000Y-60875000D01*
%TO.N,SCL0*%
X53050000Y-66940000D02*
X53050000Y-64802054D01*
%TO.N,GND*%
X51500000Y-67000000D02*
X50855735Y-67644265D01*
%TO.N,SPI_CLK*%
X67650000Y-52987500D02*
X68392384Y-52987500D01*
%TO.N,+3.3V*%
X70887500Y-59500000D02*
X70837500Y-59500000D01*
%TO.N,GPIO16*%
X79268096Y-60484509D02*
X80074663Y-61291076D01*
%TO.N,GPIO19*%
X69637500Y-65500000D02*
X70355092Y-65500000D01*
%TO.N,+BATT*%
D48*
X97000000Y-90876927D02*
X96654663Y-91222264D01*
%TO.N,GPIO0*%
D47*
X59901769Y-95855928D02*
X60962500Y-96916659D01*
%TO.N,USB_D+*%
X56250000Y-75382500D02*
X56250000Y-75000000D01*
%TO.N,+3.3V*%
X66400000Y-59862500D02*
X66800000Y-59862500D01*
%TO.N,GPIO11*%
X62762500Y-65900000D02*
X61000000Y-67662500D01*
%TO.N,GND*%
X66050000Y-63300000D02*
X65250000Y-62500000D01*
%TO.N,Net-(D1-K)*%
X72287500Y-95000000D02*
X72250000Y-95037500D01*
%TO.N,GND*%
X50600000Y-64199870D02*
X50825065Y-64424935D01*
X71775000Y-91900000D02*
X71775000Y-91025000D01*
%TO.N,+3.3V*%
X70750000Y-59637500D02*
X70887500Y-59500000D01*
%TO.N,GND*%
X50732881Y-63124935D02*
X50600000Y-63257816D01*
%TO.N,USB_D+*%
X57517500Y-74750000D02*
X56500000Y-74750000D01*
%TO.N,GND*%
D48*
X69137500Y-95000000D02*
X69250000Y-95112500D01*
%TO.N,+3.3V*%
D47*
X67000000Y-58362500D02*
X67887500Y-57475000D01*
%TO.N,Net-(U3-FB)*%
X72725000Y-91900000D02*
X73337500Y-91287500D01*
%TO.N,GND*%
X51750000Y-72750000D02*
X54250000Y-72750000D01*
%TO.N,GPIO24*%
X92209265Y-70459265D02*
X92168530Y-70500000D01*
%TO.N,+3.3V*%
X51904708Y-71570000D02*
X53250292Y-71570000D01*
%TO.N,SDA0*%
X56000000Y-62662500D02*
X56787500Y-61875000D01*
%TO.N,Net-(U3-BS)*%
D49*
X69025000Y-91612500D02*
X70537500Y-91612500D01*
%TO.N,+5V*%
D50*
X62412500Y-73262568D02*
X62412500Y-79662500D01*
%TO.N,GPIO23*%
D47*
X94704663Y-75576670D02*
X96654663Y-77526670D01*
%TO.N,GPIO20*%
X91500000Y-92500000D02*
X91500000Y-92776927D01*
%TO.N,GPIO7*%
X63353390Y-63900000D02*
X63700000Y-63553390D01*
%TO.N,+5V*%
D50*
X60800000Y-72000000D02*
X61149932Y-72000000D01*
%TO.N,VBUS*%
D47*
X57950000Y-72750000D02*
X57517500Y-72750000D01*
%TO.N,+3.3V*%
D49*
X60962500Y-85150000D02*
X60962500Y-84600000D01*
%TO.N,GND*%
D47*
X66665256Y-73700000D02*
X69550000Y-73700000D01*
%TO.N,SPI_CS*%
X65264386Y-51987500D02*
X64800000Y-51987500D01*
%TO.N,+3.3V*%
X60337500Y-61025000D02*
X61112500Y-60250000D01*
%TO.N,GND*%
X71980000Y-74719947D02*
X72535882Y-74164065D01*
%TO.N,+3.3V*%
X62312500Y-60250000D02*
X62762500Y-60700000D01*
D49*
X58827902Y-70926188D02*
X57014214Y-69112500D01*
%TO.N,GND*%
D47*
X65200000Y-66203640D02*
X65403640Y-66000000D01*
%TO.N,+1.1V*%
X65500000Y-58362500D02*
X65500000Y-58222604D01*
%TO.N,GPIO23*%
X77100000Y-65350000D02*
X77100000Y-70165686D01*
%TO.N,+5V*%
D50*
X61149932Y-72000000D02*
X62412500Y-73262568D01*
%TO.N,+1.1V*%
D47*
X68500000Y-58527035D02*
X68900000Y-58927035D01*
%TO.N,+BATT*%
D48*
X97750000Y-65773536D02*
X96654663Y-66868873D01*
%TO.N,SPI_SD1*%
D47*
X64000000Y-59298095D02*
X64000000Y-59862500D01*
%TO.N,GPIO7*%
X85500000Y-94500000D02*
X85500000Y-94476927D01*
%TO.N,SPI_CS*%
X64217514Y-54832787D02*
X64502101Y-55117374D01*
%TO.N,+BATT*%
D48*
X93222264Y-91222264D02*
X93250000Y-91250000D01*
%TO.N,+3.3V*%
D49*
X70912500Y-83750000D02*
X70912500Y-80750000D01*
%TO.N,GND*%
D47*
X65300000Y-72800000D02*
X66250000Y-73750000D01*
%TO.N,X_IN*%
X63959890Y-70228837D02*
X63959890Y-72215110D01*
%TO.N,+3.3V*%
X56000000Y-60837500D02*
X55827435Y-60837500D01*
%TO.N,GPIO1*%
X59150000Y-97712500D02*
X59062500Y-97800000D01*
%TO.N,+5V*%
D49*
X72500000Y-89375000D02*
X72725000Y-89600000D01*
%TO.N,USB_D-*%
D47*
X57517500Y-74250000D02*
X58417500Y-74250000D01*
%TO.N,SDA0*%
X58125000Y-61875000D02*
X58950000Y-62700000D01*
%TO.N,Net-(D2-A)*%
X72000000Y-73267500D02*
X71980000Y-73287500D01*
%TO.N,SPI_SD1*%
X63542136Y-52440737D02*
X62845763Y-53137110D01*
%TO.N,+3.3V*%
X70887500Y-59500000D02*
X70887500Y-56479222D01*
%TO.N,SDA0*%
X58950000Y-62700000D02*
X62762500Y-62700000D01*
%TO.N,SPI_CS*%
X64853910Y-54515076D02*
X65550000Y-53818986D01*
%TO.N,+BATT*%
D48*
X97500000Y-74000000D02*
X97500000Y-74141333D01*
%TO.N,GND*%
D47*
X65403640Y-66000000D02*
X65765255Y-66000000D01*
X69862500Y-68250000D02*
X69862500Y-69345129D01*
X69550000Y-73700000D02*
X70600000Y-72650000D01*
%TO.N,+1.1V*%
X65500000Y-58222604D02*
X66102101Y-57620503D01*
%TO.N,GPIO28*%
X89789663Y-62016076D02*
X90514663Y-61291076D01*
%TO.N,+3.3V*%
D49*
X61137500Y-81500000D02*
X59937500Y-80300000D01*
%TO.N,GPIO15*%
D47*
X64800000Y-66737500D02*
X64800000Y-66037954D01*
%TO.N,GPIO0*%
X61837615Y-61225000D02*
X61962615Y-61100000D01*
%TO.N,USB_D-*%
X58417500Y-75250000D02*
X58667501Y-74999999D01*
%TO.N,GPIO25*%
X94704663Y-67458873D02*
X96654663Y-69408873D01*
%TO.N,+5V*%
D49*
X72500000Y-86750000D02*
X72500000Y-88875000D01*
%TO.N,GND*%
D48*
X52462500Y-97544046D02*
X52584227Y-97665773D01*
%TO.N,GPIO23*%
D47*
X94704663Y-73961670D02*
X94704663Y-75576670D01*
%TO.N,GND*%
X54250000Y-72750000D02*
X56330000Y-70670000D01*
%TO.N,+3.3V*%
X70425000Y-52625000D02*
X69650000Y-51850000D01*
%TO.N,GPIO2*%
X63570408Y-61900000D02*
X62762500Y-61900000D01*
%TO.N,GPIO9*%
X59600000Y-68263585D02*
X59600000Y-69750774D01*
%TO.N,GPIO11*%
X61000000Y-68888026D02*
X61514351Y-69402377D01*
%TO.N,GPIO13*%
X84408873Y-69408873D02*
X86214663Y-69408873D01*
%TO.N,GND*%
D48*
X52462500Y-95000000D02*
X52462500Y-97544046D01*
%TO.N,+3.3V*%
D47*
X56000000Y-60837500D02*
X57500000Y-60837500D01*
%TO.N,RUN*%
X55702438Y-51750000D02*
X54984924Y-51032486D01*
%TO.N,GPIO20*%
X73750000Y-65962500D02*
X74962500Y-65962500D01*
%TO.N,+3.3V*%
D49*
X66962500Y-89755000D02*
X66962500Y-92350000D01*
%TO.N,GPIO0*%
D47*
X59750000Y-95701474D02*
X59901769Y-95853243D01*
%TO.N,GPIO1*%
X62228640Y-61500000D02*
X62762500Y-61500000D01*
%TO.N,GND*%
X66200000Y-63300000D02*
X66200000Y-63700000D01*
%TO.N,+3.3V*%
D49*
X58827902Y-71100000D02*
X58827902Y-70926188D01*
%TO.N,GPIO15*%
D47*
X64800000Y-66037954D02*
X65437954Y-65400000D01*
%TO.N,+3.3V*%
X67787500Y-51850000D02*
X67650000Y-51987500D01*
X66400000Y-59862500D02*
X66400000Y-61350000D01*
%TO.N,GPIO25*%
X76015686Y-62700000D02*
X76531762Y-63216076D01*
%TO.N,SPI_CS*%
X61000000Y-57732590D02*
X60116295Y-58616295D01*
%TO.N,GPIO15*%
X84250000Y-61416076D02*
X86089663Y-61416076D01*
%TO.N,SPI_SD2*%
X64400000Y-59132407D02*
X64325000Y-59057408D01*
%TO.N,+3.3V*%
X54260000Y-70560292D02*
X54260000Y-68750000D01*
%TO.N,GPIO25*%
X92076866Y-63216076D02*
X94704663Y-65843873D01*
%TO.N,GPIO13*%
X84250000Y-69250000D02*
X84408873Y-69408873D01*
%TO.N,+BATT*%
D48*
X80205790Y-67000000D02*
X93500000Y-67000000D01*
%TO.N,GPIO22*%
D47*
X91500000Y-84500000D02*
X91500000Y-84659130D01*
%TO.N,+3.3V*%
X68800000Y-59862500D02*
X69637500Y-60700000D01*
%TO.N,SPI_SD1*%
X63925000Y-55990686D02*
X63925001Y-58891723D01*
%TO.N,+1.1V*%
X66800000Y-67271360D02*
X66800000Y-66737500D01*
%TO.N,GPIO22*%
X73714584Y-64100000D02*
X74850000Y-64100000D01*
%TO.N,+5V*%
D49*
X72725000Y-89600000D02*
X72725000Y-90851498D01*
%TD*%
%TA.AperFunction,Conductor*%
%TO.N,GND*%
G36*
X70964156Y-70264775D02*
G01*
X71020828Y-70305641D01*
X71040609Y-70342707D01*
X71070396Y-70432597D01*
X71089090Y-70489011D01*
X71089092Y-70489015D01*
X71089093Y-70489018D01*
X71179661Y-70635851D01*
X71293629Y-70749819D01*
X71327114Y-70811142D01*
X71322130Y-70880834D01*
X71293629Y-70925181D01*
X71179661Y-71039148D01*
X71089093Y-71185981D01*
X71089092Y-71185984D01*
X71034826Y-71349747D01*
X71034826Y-71349748D01*
X71034825Y-71349748D01*
X71024500Y-71450815D01*
X71024500Y-72049169D01*
X71024501Y-72049187D01*
X71034825Y-72150252D01*
X71061914Y-72231999D01*
X71089092Y-72314016D01*
X71171052Y-72446895D01*
X71179621Y-72460786D01*
X71198061Y-72528179D01*
X71177138Y-72594842D01*
X71161767Y-72613560D01*
X71155721Y-72619606D01*
X71155716Y-72619612D01*
X71067455Y-72762704D01*
X71067450Y-72762715D01*
X71061475Y-72780747D01*
X71014564Y-72922315D01*
X71014564Y-72922316D01*
X71014563Y-72922316D01*
X71004500Y-73020818D01*
X71004500Y-73554181D01*
X71014563Y-73652683D01*
X71067450Y-73812284D01*
X71067455Y-73812295D01*
X71155716Y-73955387D01*
X71155719Y-73955391D01*
X71274608Y-74074280D01*
X71274612Y-74074283D01*
X71417704Y-74162544D01*
X71417707Y-74162545D01*
X71417713Y-74162549D01*
X71577315Y-74215436D01*
X71675826Y-74225500D01*
X71675831Y-74225500D01*
X72284169Y-74225500D01*
X72284174Y-74225500D01*
X72382685Y-74215436D01*
X72542287Y-74162549D01*
X72685391Y-74074281D01*
X72804281Y-73955391D01*
X72892549Y-73812287D01*
X72945436Y-73652685D01*
X72955500Y-73554174D01*
X72955500Y-73020826D01*
X72945436Y-72922315D01*
X72892549Y-72762713D01*
X72892545Y-72762707D01*
X72892544Y-72762704D01*
X72801313Y-72614797D01*
X72782872Y-72547405D01*
X72803794Y-72480741D01*
X72819172Y-72462017D01*
X72820340Y-72460850D01*
X72910908Y-72314016D01*
X72965174Y-72150253D01*
X72975500Y-72049177D01*
X72975499Y-71450824D01*
X72974794Y-71443926D01*
X72965174Y-71349747D01*
X72956688Y-71324138D01*
X72910908Y-71185984D01*
X72820340Y-71039150D01*
X72706371Y-70925181D01*
X72672886Y-70863858D01*
X72677870Y-70794166D01*
X72706371Y-70749819D01*
X72729420Y-70726770D01*
X72820340Y-70635850D01*
X72910908Y-70489016D01*
X72953366Y-70360884D01*
X72993137Y-70303441D01*
X73057653Y-70276618D01*
X73126429Y-70288933D01*
X73158752Y-70312209D01*
X74863181Y-72016638D01*
X74896666Y-72077961D01*
X74899500Y-72104319D01*
X74899500Y-84223820D01*
X74899499Y-84223838D01*
X74899499Y-84389544D01*
X74899498Y-84389544D01*
X74899499Y-84389547D01*
X74940423Y-84542275D01*
X74940424Y-84542276D01*
X74953005Y-84564069D01*
X74953006Y-84564070D01*
X75019475Y-84679199D01*
X75019481Y-84679207D01*
X75138349Y-84798075D01*
X75138355Y-84798080D01*
X77474117Y-87133841D01*
X77474127Y-87133852D01*
X77478457Y-87138182D01*
X77478458Y-87138183D01*
X77590262Y-87249987D01*
X77677073Y-87300106D01*
X77677075Y-87300108D01*
X77715129Y-87322078D01*
X77727193Y-87329044D01*
X77879921Y-87369967D01*
X78038035Y-87369967D01*
X91766769Y-87369967D01*
X91833808Y-87389652D01*
X91854450Y-87406286D01*
X94067844Y-89619680D01*
X94101329Y-89681003D01*
X94104163Y-89707361D01*
X94104163Y-90389879D01*
X94084478Y-90456918D01*
X94031674Y-90502673D01*
X93962516Y-90512617D01*
X93898960Y-90483592D01*
X93892482Y-90477560D01*
X93860049Y-90445127D01*
X93860045Y-90445124D01*
X93696184Y-90335635D01*
X93696171Y-90335628D01*
X93554468Y-90276933D01*
X93554459Y-90276930D01*
X93546370Y-90273580D01*
X93514100Y-90260213D01*
X93408189Y-90239146D01*
X93404836Y-90238479D01*
X93404832Y-90238478D01*
X93320807Y-90221764D01*
X93320805Y-90221764D01*
X80173204Y-90221764D01*
X77374195Y-90221764D01*
X77374193Y-90221764D01*
X77286811Y-90239146D01*
X77286810Y-90239146D01*
X77180907Y-90260211D01*
X77180895Y-90260214D01*
X77148628Y-90273579D01*
X77148629Y-90273580D01*
X76998824Y-90335630D01*
X76998815Y-90335635D01*
X76834955Y-90445123D01*
X76799818Y-90480261D01*
X76695597Y-90584482D01*
X76695595Y-90584484D01*
X76692861Y-90587219D01*
X76692859Y-90587221D01*
X76583372Y-90751079D01*
X76583367Y-90751089D01*
X76507949Y-90933163D01*
X76507947Y-90933171D01*
X76469500Y-91126455D01*
X76469500Y-91323544D01*
X76507947Y-91516828D01*
X76507949Y-91516836D01*
X76583367Y-91698910D01*
X76583372Y-91698920D01*
X76692860Y-91862780D01*
X76692863Y-91862784D01*
X76832215Y-92002136D01*
X76832219Y-92002139D01*
X76996079Y-92111627D01*
X76996083Y-92111629D01*
X76996086Y-92111631D01*
X77178164Y-92187051D01*
X77357700Y-92222763D01*
X77371455Y-92225499D01*
X77371458Y-92225500D01*
X77371460Y-92225500D01*
X77568538Y-92225500D01*
X77568540Y-92225500D01*
X77570317Y-92225146D01*
X77594507Y-92222764D01*
X79976122Y-92222764D01*
X90587868Y-92222764D01*
X90654907Y-92242449D01*
X90700662Y-92295253D01*
X90710606Y-92364411D01*
X90709485Y-92370955D01*
X90699500Y-92421153D01*
X90699500Y-92421158D01*
X90699500Y-92578842D01*
X90709009Y-92626650D01*
X90711348Y-92638408D01*
X90710640Y-92646315D01*
X90713414Y-92653752D01*
X90707570Y-92680615D01*
X90705119Y-92708000D01*
X90699870Y-92716007D01*
X90698562Y-92722025D01*
X90677411Y-92750279D01*
X90627245Y-92800445D01*
X90565922Y-92833930D01*
X90539564Y-92836764D01*
X88816792Y-92836764D01*
X88816786Y-92836765D01*
X88757179Y-92843172D01*
X88622334Y-92893466D01*
X88622327Y-92893470D01*
X88507118Y-92979716D01*
X88463929Y-93037409D01*
X88407995Y-93079279D01*
X88338303Y-93084263D01*
X88276980Y-93050777D01*
X88265397Y-93037409D01*
X88244039Y-93008879D01*
X88222209Y-92979718D01*
X88222207Y-92979717D01*
X88222207Y-92979716D01*
X88106998Y-92893470D01*
X88106991Y-92893466D01*
X87972145Y-92843172D01*
X87972146Y-92843172D01*
X87912546Y-92836765D01*
X87912544Y-92836764D01*
X87912536Y-92836764D01*
X87912527Y-92836764D01*
X84516792Y-92836764D01*
X84516786Y-92836765D01*
X84457179Y-92843172D01*
X84322334Y-92893466D01*
X84322327Y-92893470D01*
X84207118Y-92979716D01*
X84207115Y-92979719D01*
X84120869Y-93094928D01*
X84120865Y-93094935D01*
X84070571Y-93229781D01*
X84064164Y-93289380D01*
X84064164Y-93289387D01*
X84064163Y-93289399D01*
X84064163Y-94235134D01*
X84064164Y-94235140D01*
X84070571Y-94294747D01*
X84120865Y-94429592D01*
X84120869Y-94429599D01*
X84207115Y-94544808D01*
X84207118Y-94544811D01*
X84322327Y-94631057D01*
X84322334Y-94631061D01*
X84367281Y-94647825D01*
X84457180Y-94681355D01*
X84516790Y-94687764D01*
X84628465Y-94687763D01*
X84695504Y-94707447D01*
X84741259Y-94760251D01*
X84743026Y-94764311D01*
X84790602Y-94879172D01*
X84790609Y-94879185D01*
X84878210Y-95010288D01*
X84878213Y-95010292D01*
X84989707Y-95121786D01*
X84989711Y-95121789D01*
X85120814Y-95209390D01*
X85120827Y-95209397D01*
X85266498Y-95269735D01*
X85266503Y-95269737D01*
X85421153Y-95300499D01*
X85421156Y-95300500D01*
X85421158Y-95300500D01*
X85578844Y-95300500D01*
X85578845Y-95300499D01*
X85733497Y-95269737D01*
X85879179Y-95209394D01*
X86010289Y-95121789D01*
X86121789Y-95010289D01*
X86209394Y-94879179D01*
X86230009Y-94829410D01*
X86256974Y-94764311D01*
X86300815Y-94709907D01*
X86367109Y-94687842D01*
X86371535Y-94687763D01*
X86713817Y-94687763D01*
X86780856Y-94707448D01*
X86826611Y-94760252D01*
X86836555Y-94829410D01*
X86807530Y-94892966D01*
X86791130Y-94908710D01*
X86697696Y-94983220D01*
X86483220Y-95197696D01*
X86294107Y-95434837D01*
X86132733Y-95691661D01*
X86001133Y-95964931D01*
X85900957Y-96251216D01*
X85900953Y-96251228D01*
X85833460Y-96546937D01*
X85833457Y-96546951D01*
X85799500Y-96848336D01*
X85799500Y-97151663D01*
X85833457Y-97453048D01*
X85833460Y-97453062D01*
X85900953Y-97748771D01*
X85900957Y-97748783D01*
X86001133Y-98035068D01*
X86132733Y-98308338D01*
X86132735Y-98308341D01*
X86294108Y-98565164D01*
X86483221Y-98802304D01*
X86697696Y-99016779D01*
X86934836Y-99205892D01*
X86951364Y-99216277D01*
X87037668Y-99270506D01*
X87083959Y-99322841D01*
X87094607Y-99391894D01*
X87066232Y-99455743D01*
X87007842Y-99494115D01*
X86971696Y-99499500D01*
X66874000Y-99499500D01*
X66806961Y-99479815D01*
X66761206Y-99427011D01*
X66750000Y-99375500D01*
X66750000Y-94396912D01*
X66751286Y-94392529D01*
X66750316Y-94388067D01*
X66761040Y-94359312D01*
X66769685Y-94329873D01*
X66773581Y-94325687D01*
X66774732Y-94322603D01*
X66799689Y-94297646D01*
X66873382Y-94242479D01*
X66938846Y-94218061D01*
X67007119Y-94232912D01*
X67035374Y-94254064D01*
X67051650Y-94270340D01*
X67198484Y-94360908D01*
X67362247Y-94415174D01*
X67463323Y-94425500D01*
X68036676Y-94425499D01*
X68036684Y-94425498D01*
X68036687Y-94425498D01*
X68092030Y-94419844D01*
X68137753Y-94415174D01*
X68301516Y-94360908D01*
X68434903Y-94278633D01*
X68502295Y-94260193D01*
X68565097Y-94278634D01*
X68698475Y-94360903D01*
X68698478Y-94360904D01*
X68698484Y-94360908D01*
X68862247Y-94415174D01*
X68963323Y-94425500D01*
X69536676Y-94425499D01*
X69536684Y-94425498D01*
X69536687Y-94425498D01*
X69592030Y-94419844D01*
X69637753Y-94415174D01*
X69709534Y-94391387D01*
X69779360Y-94388986D01*
X69839403Y-94424717D01*
X69870596Y-94487237D01*
X69863036Y-94556697D01*
X69854077Y-94574189D01*
X69839094Y-94598479D01*
X69839092Y-94598484D01*
X69784826Y-94762247D01*
X69784826Y-94762248D01*
X69784825Y-94762248D01*
X69774500Y-94863315D01*
X69774500Y-95461669D01*
X69774501Y-95461687D01*
X69784825Y-95562752D01*
X69797334Y-95600500D01*
X69839092Y-95726516D01*
X69929660Y-95873350D01*
X70051650Y-95995340D01*
X70198484Y-96085908D01*
X70362247Y-96140174D01*
X70463323Y-96150500D01*
X71036676Y-96150499D01*
X71036684Y-96150498D01*
X71036687Y-96150498D01*
X71092030Y-96144844D01*
X71137753Y-96140174D01*
X71301516Y-96085908D01*
X71448350Y-95995340D01*
X71521546Y-95922143D01*
X71582865Y-95888661D01*
X71652557Y-95893645D01*
X71674320Y-95904288D01*
X71687713Y-95912549D01*
X71847315Y-95965436D01*
X71945826Y-95975500D01*
X71945831Y-95975500D01*
X72554169Y-95975500D01*
X72554174Y-95975500D01*
X72652685Y-95965436D01*
X72812287Y-95912549D01*
X72955391Y-95824281D01*
X73074281Y-95705391D01*
X73074284Y-95705385D01*
X73078762Y-95699724D01*
X73080823Y-95701353D01*
X73123653Y-95662813D01*
X73192613Y-95651575D01*
X73256701Y-95679404D01*
X73264950Y-95686940D01*
X73335551Y-95757541D01*
X73335555Y-95757544D01*
X73440232Y-95837867D01*
X73440236Y-95837869D01*
X73440243Y-95837875D01*
X73440250Y-95837879D01*
X73554248Y-95903696D01*
X73554249Y-95903697D01*
X73554252Y-95903698D01*
X73554257Y-95903701D01*
X73676171Y-95954200D01*
X73803338Y-95988275D01*
X73934174Y-96005500D01*
X73934181Y-96005500D01*
X74565819Y-96005500D01*
X74565826Y-96005500D01*
X74696662Y-95988275D01*
X74823829Y-95954200D01*
X74945743Y-95903701D01*
X75059757Y-95837875D01*
X75164449Y-95757541D01*
X75257541Y-95664449D01*
X75337875Y-95559757D01*
X75403701Y-95445743D01*
X75454200Y-95323829D01*
X75488275Y-95196662D01*
X75505500Y-95065826D01*
X75505500Y-94500000D01*
X75500355Y-94428060D01*
X75499603Y-94425500D01*
X75480637Y-94360907D01*
X75459819Y-94290008D01*
X75424557Y-94235140D01*
X75382032Y-94168969D01*
X75382028Y-94168965D01*
X75273299Y-94074750D01*
X75273297Y-94074748D01*
X75273294Y-94074746D01*
X75273290Y-94074744D01*
X75142419Y-94014976D01*
X75142414Y-94014975D01*
X75000000Y-93994500D01*
X73500000Y-93994500D01*
X73499997Y-93994500D01*
X73428058Y-93999645D01*
X73356479Y-94020663D01*
X73286610Y-94020663D01*
X73227831Y-93982889D01*
X73198806Y-93919334D01*
X73198400Y-93887137D01*
X73199876Y-93874640D01*
X73215436Y-93827685D01*
X73225500Y-93729174D01*
X73225500Y-93671153D01*
X77199500Y-93671153D01*
X77199500Y-93828846D01*
X77230261Y-93983489D01*
X77230264Y-93983501D01*
X77290602Y-94129172D01*
X77290609Y-94129185D01*
X77378210Y-94260288D01*
X77378213Y-94260292D01*
X77489707Y-94371786D01*
X77489711Y-94371789D01*
X77620814Y-94459390D01*
X77620827Y-94459397D01*
X77688040Y-94487237D01*
X77766503Y-94519737D01*
X77892543Y-94544808D01*
X77921153Y-94550499D01*
X77921156Y-94550500D01*
X77921158Y-94550500D01*
X78033446Y-94550500D01*
X78100485Y-94570185D01*
X78107757Y-94575233D01*
X78182332Y-94631060D01*
X78182334Y-94631061D01*
X78317180Y-94681355D01*
X78317179Y-94681355D01*
X78324107Y-94682099D01*
X78376790Y-94687764D01*
X81772535Y-94687763D01*
X81832146Y-94681355D01*
X81966994Y-94631060D01*
X82082209Y-94544810D01*
X82168459Y-94429595D01*
X82218754Y-94294747D01*
X82225163Y-94235137D01*
X82225162Y-93289392D01*
X82218754Y-93229781D01*
X82206091Y-93195831D01*
X82168460Y-93094935D01*
X82168456Y-93094928D01*
X82082210Y-92979719D01*
X82082207Y-92979716D01*
X81966998Y-92893470D01*
X81966991Y-92893466D01*
X81832145Y-92843172D01*
X81832146Y-92843172D01*
X81772546Y-92836765D01*
X81772544Y-92836764D01*
X81772536Y-92836764D01*
X81772527Y-92836764D01*
X78376792Y-92836764D01*
X78376786Y-92836765D01*
X78317179Y-92843172D01*
X78182334Y-92893466D01*
X78182332Y-92893468D01*
X78140522Y-92924767D01*
X78075058Y-92949184D01*
X78066211Y-92949500D01*
X77921155Y-92949500D01*
X77766510Y-92980261D01*
X77766498Y-92980264D01*
X77620827Y-93040602D01*
X77620814Y-93040609D01*
X77489711Y-93128210D01*
X77489707Y-93128213D01*
X77378213Y-93239707D01*
X77378210Y-93239711D01*
X77290609Y-93370814D01*
X77290602Y-93370827D01*
X77230264Y-93516498D01*
X77230261Y-93516510D01*
X77199500Y-93671153D01*
X73225500Y-93671153D01*
X73225500Y-93195826D01*
X73215436Y-93097315D01*
X73189325Y-93018520D01*
X73186924Y-92948695D01*
X73222655Y-92888653D01*
X73232721Y-92880252D01*
X73233329Y-92879796D01*
X73233331Y-92879796D01*
X73348546Y-92793546D01*
X73434796Y-92678331D01*
X73485091Y-92543483D01*
X73491500Y-92483873D01*
X73491499Y-92034095D01*
X73500145Y-92004649D01*
X73506667Y-91974669D01*
X73510419Y-91969655D01*
X73511183Y-91967057D01*
X73527813Y-91946420D01*
X73696004Y-91778229D01*
X73696014Y-91778222D01*
X73706214Y-91768020D01*
X73706216Y-91768020D01*
X73708392Y-91765843D01*
X73728192Y-91755029D01*
X73728227Y-91755005D01*
X73728235Y-91755001D01*
X73728237Y-91755005D01*
X73769710Y-91732355D01*
X73839402Y-91737334D01*
X73883759Y-91765838D01*
X73989707Y-91871786D01*
X73989711Y-91871789D01*
X74120814Y-91959390D01*
X74120827Y-91959397D01*
X74230468Y-92004811D01*
X74266503Y-92019737D01*
X74388727Y-92044049D01*
X74421153Y-92050499D01*
X74421156Y-92050500D01*
X74421158Y-92050500D01*
X74578844Y-92050500D01*
X74578845Y-92050499D01*
X74733497Y-92019737D01*
X74808963Y-91988478D01*
X74877864Y-91959939D01*
X74925316Y-91950500D01*
X75428428Y-91950500D01*
X75428436Y-91950499D01*
X75619394Y-91950499D01*
X75619404Y-91950499D01*
X75654156Y-91947765D01*
X75802887Y-91904555D01*
X75936198Y-91825715D01*
X76045715Y-91716198D01*
X76124555Y-91582887D01*
X76167765Y-91434156D01*
X76170500Y-91399405D01*
X76170499Y-91050596D01*
X76167765Y-91015844D01*
X76124555Y-90867113D01*
X76055933Y-90751079D01*
X76045717Y-90733805D01*
X76045710Y-90733796D01*
X75936203Y-90624289D01*
X75936194Y-90624282D01*
X75855111Y-90576330D01*
X75802887Y-90545445D01*
X75654156Y-90502235D01*
X75654153Y-90502234D01*
X75654151Y-90502234D01*
X75623395Y-90499814D01*
X75619405Y-90499500D01*
X75619404Y-90499500D01*
X75120606Y-90499500D01*
X75120584Y-90499501D01*
X75085846Y-90502234D01*
X74951744Y-90541194D01*
X74881875Y-90540994D01*
X74869698Y-90536678D01*
X74733501Y-90480264D01*
X74733489Y-90480261D01*
X74578845Y-90449500D01*
X74578842Y-90449500D01*
X74421158Y-90449500D01*
X74421155Y-90449500D01*
X74266510Y-90480261D01*
X74266498Y-90480264D01*
X74120815Y-90540607D01*
X74120437Y-90540810D01*
X74120216Y-90540855D01*
X74115192Y-90542937D01*
X74114797Y-90541983D01*
X74052032Y-90555042D01*
X73986792Y-90530032D01*
X73945430Y-90473721D01*
X73938000Y-90431443D01*
X73938000Y-86064059D01*
X73938001Y-86064046D01*
X73938001Y-85895945D01*
X73938001Y-85895943D01*
X73897077Y-85743215D01*
X73836188Y-85637753D01*
X73818020Y-85606284D01*
X73706216Y-85494480D01*
X73706213Y-85494478D01*
X73636818Y-85425083D01*
X73603333Y-85363760D01*
X73600499Y-85337402D01*
X73600499Y-84963330D01*
X73600498Y-84963313D01*
X73590174Y-84862247D01*
X73579173Y-84829049D01*
X73535908Y-84698484D01*
X73535904Y-84698478D01*
X73535903Y-84698475D01*
X73489641Y-84623473D01*
X73486014Y-84617594D01*
X73467574Y-84550203D01*
X73488496Y-84483539D01*
X73503869Y-84464820D01*
X73520340Y-84448350D01*
X73610908Y-84301516D01*
X73665174Y-84137753D01*
X73675500Y-84036677D01*
X73675499Y-83463324D01*
X73674921Y-83457669D01*
X73665174Y-83362247D01*
X73658615Y-83342454D01*
X73610908Y-83198484D01*
X73520340Y-83051650D01*
X73398350Y-82929660D01*
X73251516Y-82839092D01*
X73087753Y-82784826D01*
X73087751Y-82784825D01*
X72986678Y-82774500D01*
X72288330Y-82774500D01*
X72288312Y-82774501D01*
X72187247Y-82784825D01*
X72187244Y-82784826D01*
X72089324Y-82817274D01*
X72019495Y-82819676D01*
X71959454Y-82783944D01*
X71928261Y-82721423D01*
X71932614Y-82660565D01*
X71940174Y-82637753D01*
X71950500Y-82536677D01*
X71950499Y-81963324D01*
X71944179Y-81901459D01*
X71940174Y-81862247D01*
X71917468Y-81793726D01*
X71885908Y-81698484D01*
X71885904Y-81698478D01*
X71885903Y-81698475D01*
X71803634Y-81565097D01*
X71785193Y-81497705D01*
X71803634Y-81434903D01*
X71885903Y-81301524D01*
X71885902Y-81301524D01*
X71885908Y-81301516D01*
X71940174Y-81137753D01*
X71950500Y-81036677D01*
X71950499Y-80463324D01*
X71940174Y-80362247D01*
X71885908Y-80198484D01*
X71795340Y-80051650D01*
X71673350Y-79929660D01*
X71547839Y-79852244D01*
X71526518Y-79839093D01*
X71526513Y-79839091D01*
X71525069Y-79838612D01*
X71362753Y-79784826D01*
X71362751Y-79784825D01*
X71261678Y-79774500D01*
X70563330Y-79774500D01*
X70563312Y-79774501D01*
X70462247Y-79784825D01*
X70298484Y-79839092D01*
X70298481Y-79839093D01*
X70151648Y-79929661D01*
X70029661Y-80051648D01*
X69939093Y-80198481D01*
X69939092Y-80198484D01*
X69884826Y-80362247D01*
X69884826Y-80362248D01*
X69884825Y-80362248D01*
X69874500Y-80463315D01*
X69874500Y-81036669D01*
X69874501Y-81036687D01*
X69884825Y-81137752D01*
X69939092Y-81301515D01*
X69939093Y-81301518D01*
X70021366Y-81434903D01*
X70039806Y-81502296D01*
X70021366Y-81565097D01*
X69939093Y-81698481D01*
X69939091Y-81698486D01*
X69935884Y-81708165D01*
X69884826Y-81862247D01*
X69884826Y-81862248D01*
X69884825Y-81862248D01*
X69874500Y-81963315D01*
X69874500Y-82536669D01*
X69874501Y-82536687D01*
X69884825Y-82637752D01*
X69921109Y-82747249D01*
X69939092Y-82801516D01*
X70021366Y-82934904D01*
X70025476Y-82949925D01*
X70034137Y-82962868D01*
X70034508Y-82982933D01*
X70039806Y-83002294D01*
X70035159Y-83018118D01*
X70035430Y-83032725D01*
X70021366Y-83065096D01*
X69953012Y-83175915D01*
X69901064Y-83222640D01*
X69832101Y-83233861D01*
X69823282Y-83232435D01*
X69735852Y-83215044D01*
X69735848Y-83215044D01*
X69578164Y-83215044D01*
X69578161Y-83215044D01*
X69423516Y-83245805D01*
X69423504Y-83245808D01*
X69277833Y-83306146D01*
X69277826Y-83306150D01*
X69248934Y-83325455D01*
X69220961Y-83344146D01*
X69154285Y-83365024D01*
X69152071Y-83365044D01*
X67086352Y-83365044D01*
X67019313Y-83345359D01*
X66998671Y-83328725D01*
X63099319Y-79429373D01*
X63065834Y-79368050D01*
X63063000Y-79341692D01*
X63063000Y-73986999D01*
X63082685Y-73919960D01*
X63135489Y-73874205D01*
X63186996Y-73862999D01*
X63487401Y-73862999D01*
X63554440Y-73882684D01*
X63575082Y-73899318D01*
X63913181Y-74237416D01*
X63946666Y-74298739D01*
X63949500Y-74325097D01*
X63949500Y-74900001D01*
X63949501Y-74900019D01*
X63960000Y-75002796D01*
X63960001Y-75002799D01*
X64015185Y-75169331D01*
X64015187Y-75169336D01*
X64037019Y-75204731D01*
X64107288Y-75318656D01*
X64231344Y-75442712D01*
X64380666Y-75534814D01*
X64547203Y-75589999D01*
X64649991Y-75600500D01*
X65650008Y-75600499D01*
X65650016Y-75600498D01*
X65650019Y-75600498D01*
X65739620Y-75591345D01*
X65752797Y-75589999D01*
X65919334Y-75534814D01*
X66068656Y-75442712D01*
X66192712Y-75318656D01*
X66284814Y-75169334D01*
X66339999Y-75002797D01*
X66350500Y-74900009D01*
X66350499Y-74099992D01*
X66347872Y-74074280D01*
X66339999Y-73997203D01*
X66339998Y-73997200D01*
X66317701Y-73929912D01*
X66315299Y-73860084D01*
X66351031Y-73800042D01*
X66413551Y-73768849D01*
X66483010Y-73776409D01*
X66500494Y-73785364D01*
X66580666Y-73834814D01*
X66747203Y-73889999D01*
X66849991Y-73900500D01*
X67850008Y-73900499D01*
X67850016Y-73900498D01*
X67850019Y-73900498D01*
X67906302Y-73894748D01*
X67952797Y-73889999D01*
X68119334Y-73834814D01*
X68268656Y-73742712D01*
X68271630Y-73739737D01*
X68274174Y-73738348D01*
X68274319Y-73738234D01*
X68274338Y-73738258D01*
X68332947Y-73706251D01*
X68402639Y-73711232D01*
X68424406Y-73721876D01*
X68458188Y-73742713D01*
X68548475Y-73798403D01*
X68548478Y-73798404D01*
X68548484Y-73798408D01*
X68712247Y-73852674D01*
X68813323Y-73863000D01*
X69386676Y-73862999D01*
X69386684Y-73862998D01*
X69386687Y-73862998D01*
X69442030Y-73857344D01*
X69487753Y-73852674D01*
X69651516Y-73798408D01*
X69798350Y-73707840D01*
X69920340Y-73585850D01*
X70010908Y-73439016D01*
X70065174Y-73275253D01*
X70075500Y-73174177D01*
X70075499Y-72475824D01*
X70073969Y-72460850D01*
X70065174Y-72374747D01*
X70045050Y-72314018D01*
X70010908Y-72210984D01*
X69920340Y-72064150D01*
X69812621Y-71956431D01*
X69779136Y-71895108D01*
X69784120Y-71825416D01*
X69812621Y-71781069D01*
X69828504Y-71765186D01*
X69845340Y-71748350D01*
X69935908Y-71601516D01*
X69990174Y-71437753D01*
X70000500Y-71336677D01*
X70000500Y-71200479D01*
X70020185Y-71133440D01*
X70072989Y-71087685D01*
X70100309Y-71078862D01*
X70116291Y-71075682D01*
X70233497Y-71052369D01*
X70346166Y-71005699D01*
X70379172Y-70992029D01*
X70379172Y-70992028D01*
X70379179Y-70992026D01*
X70510289Y-70904421D01*
X70621789Y-70792921D01*
X70709394Y-70661811D01*
X70769737Y-70516129D01*
X70800500Y-70361474D01*
X70800500Y-70361472D01*
X70801286Y-70357521D01*
X70833670Y-70295610D01*
X70894386Y-70261036D01*
X70964156Y-70264775D01*
G37*
%TD.AperFunction*%
%TA.AperFunction,Conductor*%
G36*
X73538735Y-50520185D02*
G01*
X73584490Y-50572989D01*
X73594434Y-50642147D01*
X73565409Y-50705703D01*
X73537668Y-50729494D01*
X73434837Y-50794107D01*
X73197696Y-50983220D01*
X72983220Y-51197696D01*
X72794107Y-51434837D01*
X72632733Y-51691661D01*
X72501133Y-51964931D01*
X72400957Y-52251216D01*
X72400953Y-52251228D01*
X72333460Y-52546937D01*
X72333457Y-52546951D01*
X72299500Y-52848336D01*
X72299500Y-53151663D01*
X72333457Y-53453048D01*
X72333459Y-53453060D01*
X72333460Y-53453063D01*
X72343669Y-53497792D01*
X72400953Y-53748771D01*
X72400957Y-53748783D01*
X72501133Y-54035068D01*
X72632733Y-54308338D01*
X72632735Y-54308341D01*
X72794108Y-54565164D01*
X72983221Y-54802304D01*
X73197696Y-55016779D01*
X73434836Y-55205892D01*
X73691659Y-55367265D01*
X73964935Y-55498868D01*
X74179951Y-55574105D01*
X74251216Y-55599042D01*
X74251228Y-55599046D01*
X74546937Y-55666540D01*
X74546946Y-55666541D01*
X74546951Y-55666542D01*
X74747874Y-55689180D01*
X74848337Y-55700499D01*
X74848340Y-55700500D01*
X74848343Y-55700500D01*
X75151660Y-55700500D01*
X75151661Y-55700499D01*
X75305694Y-55683144D01*
X75453048Y-55666542D01*
X75453051Y-55666541D01*
X75453063Y-55666540D01*
X75748772Y-55599046D01*
X76035065Y-55498868D01*
X76308341Y-55367265D01*
X76565164Y-55205892D01*
X76802304Y-55016779D01*
X77016779Y-54802304D01*
X77205892Y-54565164D01*
X77367265Y-54308341D01*
X77498868Y-54035065D01*
X77599046Y-53748772D01*
X77666540Y-53453063D01*
X77676273Y-53366685D01*
X77683144Y-53305694D01*
X77700500Y-53151657D01*
X77700500Y-52848343D01*
X77684485Y-52706205D01*
X77666542Y-52546951D01*
X77666541Y-52546946D01*
X77666540Y-52546937D01*
X77599046Y-52251228D01*
X77498868Y-51964935D01*
X77401953Y-51763690D01*
X77367266Y-51691661D01*
X77354380Y-51671153D01*
X77205892Y-51434836D01*
X77016779Y-51197696D01*
X76802304Y-50983221D01*
X76798592Y-50980261D01*
X76668597Y-50876593D01*
X76565164Y-50794108D01*
X76462332Y-50729494D01*
X76416041Y-50677159D01*
X76405393Y-50608106D01*
X76433768Y-50544257D01*
X76492158Y-50505885D01*
X76528304Y-50500500D01*
X86971696Y-50500500D01*
X87038735Y-50520185D01*
X87084490Y-50572989D01*
X87094434Y-50642147D01*
X87065409Y-50705703D01*
X87037668Y-50729494D01*
X86934837Y-50794107D01*
X86697696Y-50983220D01*
X86483220Y-51197696D01*
X86294107Y-51434837D01*
X86132733Y-51691661D01*
X86001133Y-51964931D01*
X85900957Y-52251216D01*
X85900953Y-52251228D01*
X85833460Y-52546937D01*
X85833457Y-52546951D01*
X85799500Y-52848336D01*
X85799500Y-53151663D01*
X85833457Y-53453048D01*
X85833459Y-53453060D01*
X85833460Y-53453063D01*
X85843669Y-53497792D01*
X85900953Y-53748771D01*
X85900957Y-53748783D01*
X86001133Y-54035068D01*
X86132733Y-54308338D01*
X86132735Y-54308341D01*
X86294108Y-54565164D01*
X86483221Y-54802304D01*
X86697696Y-55016779D01*
X86934836Y-55205892D01*
X87191659Y-55367265D01*
X87464935Y-55498868D01*
X87679951Y-55574105D01*
X87751216Y-55599042D01*
X87751228Y-55599046D01*
X88046937Y-55666540D01*
X88046946Y-55666541D01*
X88046951Y-55666542D01*
X88247874Y-55689180D01*
X88348337Y-55700499D01*
X88348340Y-55700500D01*
X88348343Y-55700500D01*
X88651660Y-55700500D01*
X88651661Y-55700499D01*
X88805694Y-55683144D01*
X88953048Y-55666542D01*
X88953051Y-55666541D01*
X88953063Y-55666540D01*
X89248772Y-55599046D01*
X89535065Y-55498868D01*
X89808341Y-55367265D01*
X90065164Y-55205892D01*
X90302304Y-55016779D01*
X90516779Y-54802304D01*
X90705892Y-54565164D01*
X90867265Y-54308341D01*
X90998868Y-54035065D01*
X91099046Y-53748772D01*
X91166540Y-53453063D01*
X91176273Y-53366685D01*
X91183144Y-53305694D01*
X91200500Y-53151657D01*
X91200500Y-52848343D01*
X91184485Y-52706205D01*
X91166542Y-52546951D01*
X91166541Y-52546946D01*
X91166540Y-52546937D01*
X91099046Y-52251228D01*
X90998868Y-51964935D01*
X90901953Y-51763690D01*
X90867266Y-51691661D01*
X90854380Y-51671153D01*
X90705892Y-51434836D01*
X90516779Y-51197696D01*
X90302304Y-50983221D01*
X90298592Y-50980261D01*
X90168597Y-50876593D01*
X90065164Y-50794108D01*
X89962332Y-50729494D01*
X89916041Y-50677159D01*
X89905393Y-50608106D01*
X89933768Y-50544257D01*
X89992158Y-50505885D01*
X90028304Y-50500500D01*
X96934108Y-50500500D01*
X96996249Y-50500500D01*
X97003736Y-50500726D01*
X97293796Y-50518271D01*
X97308657Y-50520075D01*
X97455119Y-50546916D01*
X97590797Y-50571780D01*
X97605334Y-50575363D01*
X97879182Y-50660698D01*
X97893163Y-50666000D01*
X98154734Y-50783724D01*
X98167987Y-50790680D01*
X98413458Y-50939071D01*
X98425776Y-50947573D01*
X98606489Y-51089153D01*
X98651573Y-51124474D01*
X98662781Y-51134404D01*
X98865595Y-51337218D01*
X98875525Y-51348426D01*
X98913056Y-51396331D01*
X98999745Y-51506981D01*
X99052422Y-51574217D01*
X99060928Y-51586541D01*
X99209319Y-51832012D01*
X99216277Y-51845269D01*
X99232431Y-51881161D01*
X99325266Y-52087432D01*
X99333994Y-52106823D01*
X99339304Y-52120825D01*
X99424635Y-52394664D01*
X99428219Y-52409202D01*
X99479923Y-52691340D01*
X99481728Y-52706205D01*
X99499274Y-52996263D01*
X99499500Y-53003750D01*
X99499500Y-96996249D01*
X99499274Y-97003736D01*
X99481728Y-97293794D01*
X99479923Y-97308659D01*
X99428219Y-97590797D01*
X99424635Y-97605335D01*
X99339304Y-97879174D01*
X99333994Y-97893176D01*
X99216277Y-98154730D01*
X99209319Y-98167987D01*
X99060928Y-98413458D01*
X99052422Y-98425782D01*
X98875525Y-98651573D01*
X98865595Y-98662781D01*
X98662781Y-98865595D01*
X98651573Y-98875525D01*
X98425782Y-99052422D01*
X98413458Y-99060928D01*
X98167987Y-99209319D01*
X98154730Y-99216277D01*
X97893176Y-99333994D01*
X97879174Y-99339304D01*
X97605335Y-99424635D01*
X97590797Y-99428219D01*
X97308659Y-99479923D01*
X97293794Y-99481728D01*
X97003736Y-99499274D01*
X96996249Y-99499500D01*
X90028304Y-99499500D01*
X89961265Y-99479815D01*
X89915510Y-99427011D01*
X89905566Y-99357853D01*
X89934591Y-99294297D01*
X89962332Y-99270506D01*
X89976833Y-99261394D01*
X90065164Y-99205892D01*
X90302304Y-99016779D01*
X90516779Y-98802304D01*
X90705892Y-98565164D01*
X90867265Y-98308341D01*
X90998868Y-98035065D01*
X91099046Y-97748772D01*
X91166540Y-97453063D01*
X91200500Y-97151657D01*
X91200500Y-96848343D01*
X91166540Y-96546937D01*
X91099046Y-96251228D01*
X90998868Y-95964935D01*
X90867265Y-95691659D01*
X90705892Y-95434836D01*
X90516779Y-95197696D01*
X90302304Y-94983221D01*
X90208869Y-94908709D01*
X90168730Y-94851522D01*
X90165880Y-94781710D01*
X90201225Y-94721440D01*
X90263544Y-94689847D01*
X90286183Y-94687763D01*
X92212534Y-94687763D01*
X92212535Y-94687763D01*
X92272146Y-94681355D01*
X92406994Y-94631060D01*
X92522209Y-94544810D01*
X92608459Y-94429595D01*
X92658754Y-94294747D01*
X92665163Y-94235137D01*
X92665162Y-93289392D01*
X92658754Y-93229781D01*
X92646091Y-93195831D01*
X92608460Y-93094935D01*
X92608456Y-93094928D01*
X92522210Y-92979719D01*
X92522207Y-92979716D01*
X92406998Y-92893470D01*
X92406991Y-92893466D01*
X92348465Y-92871638D01*
X92292532Y-92829767D01*
X92268114Y-92764303D01*
X92270181Y-92731264D01*
X92272888Y-92717658D01*
X92280256Y-92680615D01*
X92300500Y-92578844D01*
X92300500Y-92421155D01*
X92300499Y-92421153D01*
X92290515Y-92370955D01*
X92296742Y-92301363D01*
X92339606Y-92246186D01*
X92405496Y-92222942D01*
X92412132Y-92222764D01*
X92999808Y-92222764D01*
X93023999Y-92225147D01*
X93151455Y-92250499D01*
X93151459Y-92250500D01*
X93151460Y-92250500D01*
X93348542Y-92250500D01*
X93348543Y-92250499D01*
X93541836Y-92212052D01*
X93723915Y-92136632D01*
X93887782Y-92027140D01*
X93935269Y-91979653D01*
X93996592Y-91946167D01*
X94066283Y-91951151D01*
X94122217Y-91993022D01*
X94134361Y-92012893D01*
X94139623Y-92023662D01*
X94145086Y-92044049D01*
X94172228Y-92091060D01*
X94174364Y-92094759D01*
X94174371Y-92094774D01*
X94224138Y-92180973D01*
X94224144Y-92180981D01*
X94343012Y-92299849D01*
X94343018Y-92299854D01*
X94760822Y-92717658D01*
X94794307Y-92778981D01*
X94789323Y-92848673D01*
X94747453Y-92904605D01*
X94647115Y-92979719D01*
X94560869Y-93094928D01*
X94560865Y-93094935D01*
X94510571Y-93229781D01*
X94504164Y-93289380D01*
X94504164Y-93289387D01*
X94504163Y-93289399D01*
X94504163Y-94235134D01*
X94504164Y-94235140D01*
X94510571Y-94294747D01*
X94560865Y-94429592D01*
X94560869Y-94429599D01*
X94647115Y-94544808D01*
X94647118Y-94544811D01*
X94762327Y-94631057D01*
X94762334Y-94631061D01*
X94897180Y-94681355D01*
X94897179Y-94681355D01*
X94904107Y-94682099D01*
X94956790Y-94687764D01*
X98352535Y-94687763D01*
X98412146Y-94681355D01*
X98546994Y-94631060D01*
X98662209Y-94544810D01*
X98748459Y-94429595D01*
X98798754Y-94294747D01*
X98805163Y-94235137D01*
X98805162Y-93289392D01*
X98798754Y-93229781D01*
X98786091Y-93195831D01*
X98748460Y-93094935D01*
X98748456Y-93094928D01*
X98662210Y-92979719D01*
X98662207Y-92979716D01*
X98546998Y-92893470D01*
X98546991Y-92893466D01*
X98412145Y-92843172D01*
X98412146Y-92843172D01*
X98352546Y-92836765D01*
X98352544Y-92836764D01*
X98352536Y-92836764D01*
X98352528Y-92836764D01*
X96629760Y-92836764D01*
X96562721Y-92817079D01*
X96542079Y-92800445D01*
X96101078Y-92359444D01*
X96090465Y-92340007D01*
X96075965Y-92323274D01*
X96074048Y-92309942D01*
X96067593Y-92298121D01*
X96069172Y-92276034D01*
X96066021Y-92254116D01*
X96071616Y-92241864D01*
X96072577Y-92228429D01*
X96085847Y-92210702D01*
X96095046Y-92190560D01*
X96106377Y-92183277D01*
X96114449Y-92172496D01*
X96135194Y-92164758D01*
X96153824Y-92152786D01*
X96175742Y-92149634D01*
X96179913Y-92148079D01*
X96188759Y-92147763D01*
X96249918Y-92147763D01*
X96297371Y-92157202D01*
X96315613Y-92164758D01*
X96362827Y-92184315D01*
X96556118Y-92222763D01*
X96556121Y-92222764D01*
X96556123Y-92222764D01*
X96753205Y-92222764D01*
X96753206Y-92222763D01*
X96946499Y-92184315D01*
X96993713Y-92164758D01*
X97011955Y-92157202D01*
X97059408Y-92147763D01*
X98352534Y-92147763D01*
X98352535Y-92147763D01*
X98412146Y-92141355D01*
X98546994Y-92091060D01*
X98662209Y-92004810D01*
X98748459Y-91889595D01*
X98798754Y-91754747D01*
X98805163Y-91695137D01*
X98805162Y-90749392D01*
X98798754Y-90689781D01*
X98794174Y-90677502D01*
X98748460Y-90554935D01*
X98748456Y-90554928D01*
X98662210Y-90439719D01*
X98662207Y-90439716D01*
X98546998Y-90353470D01*
X98546991Y-90353466D01*
X98412145Y-90303172D01*
X98412146Y-90303172D01*
X98352546Y-90296765D01*
X98352544Y-90296764D01*
X98352536Y-90296764D01*
X98352528Y-90296764D01*
X98124500Y-90296764D01*
X98057461Y-90277079D01*
X98011706Y-90224275D01*
X98000500Y-90172764D01*
X98000500Y-89901456D01*
X97962052Y-89708170D01*
X97962051Y-89708169D01*
X97962051Y-89708165D01*
X97941544Y-89658656D01*
X97886635Y-89526092D01*
X97886628Y-89526079D01*
X97777139Y-89362218D01*
X97777136Y-89362214D01*
X97637785Y-89222863D01*
X97637781Y-89222860D01*
X97473916Y-89113369D01*
X97473907Y-89113364D01*
X97291839Y-89037950D01*
X97291829Y-89037947D01*
X97098543Y-88999500D01*
X97098541Y-88999500D01*
X96901459Y-88999500D01*
X96901457Y-88999500D01*
X96708170Y-89037947D01*
X96708160Y-89037950D01*
X96526092Y-89113364D01*
X96526084Y-89113369D01*
X96362218Y-89222860D01*
X96362214Y-89222863D01*
X96222863Y-89362214D01*
X96222860Y-89362218D01*
X96113371Y-89526079D01*
X96113364Y-89526092D01*
X96037950Y-89708160D01*
X96037947Y-89708170D01*
X95999500Y-89901456D01*
X95999500Y-90172764D01*
X95979815Y-90239803D01*
X95927011Y-90285558D01*
X95875500Y-90296764D01*
X95429163Y-90296764D01*
X95362124Y-90277079D01*
X95316369Y-90224275D01*
X95305163Y-90172764D01*
X95305163Y-89328206D01*
X95303379Y-89321548D01*
X95303378Y-89321543D01*
X95264240Y-89175479D01*
X95228380Y-89113368D01*
X95185183Y-89038548D01*
X95073379Y-88926744D01*
X95073378Y-88926743D01*
X95069048Y-88922413D01*
X95069037Y-88922403D01*
X93038096Y-86891462D01*
X93004611Y-86830139D01*
X93009595Y-86760447D01*
X93051467Y-86704514D01*
X93056863Y-86700694D01*
X93174954Y-86621789D01*
X93286454Y-86510289D01*
X93374059Y-86379179D01*
X93434402Y-86233497D01*
X93465165Y-86078842D01*
X93465165Y-85921158D01*
X93465165Y-85921155D01*
X93465164Y-85921153D01*
X93434892Y-85768967D01*
X93434402Y-85766503D01*
X93405397Y-85696478D01*
X93374062Y-85620827D01*
X93374055Y-85620814D01*
X93286454Y-85489711D01*
X93286451Y-85489707D01*
X93174957Y-85378213D01*
X93174953Y-85378210D01*
X93043850Y-85290609D01*
X93043837Y-85290602D01*
X92898166Y-85230264D01*
X92898156Y-85230261D01*
X92754432Y-85201672D01*
X92692521Y-85169287D01*
X92663579Y-85118463D01*
X92661465Y-85119252D01*
X92608460Y-84977138D01*
X92608456Y-84977131D01*
X92522210Y-84861922D01*
X92522207Y-84861919D01*
X92406998Y-84775673D01*
X92406992Y-84775670D01*
X92370277Y-84761976D01*
X92314344Y-84720104D01*
X92289927Y-84654640D01*
X92291993Y-84621603D01*
X92300500Y-84578842D01*
X92300500Y-84421158D01*
X92300500Y-84421155D01*
X92300499Y-84421153D01*
X92269738Y-84266507D01*
X92269271Y-84264967D01*
X92269263Y-84264119D01*
X92268549Y-84260528D01*
X92269229Y-84260392D01*
X92269029Y-84238005D01*
X92265192Y-84211320D01*
X92268720Y-84203594D01*
X92268644Y-84195100D01*
X92283017Y-84172287D01*
X92294217Y-84147764D01*
X92301362Y-84143172D01*
X92305890Y-84135986D01*
X92330314Y-84124565D01*
X92352995Y-84109990D01*
X92365259Y-84108226D01*
X92369183Y-84106392D01*
X92387930Y-84104967D01*
X92441082Y-84104967D01*
X92508121Y-84124652D01*
X92509966Y-84125860D01*
X92526086Y-84136631D01*
X92708164Y-84212051D01*
X92856953Y-84241647D01*
X92901455Y-84250499D01*
X92901458Y-84250500D01*
X92901460Y-84250500D01*
X93098542Y-84250500D01*
X93098543Y-84250499D01*
X93291836Y-84212051D01*
X93473914Y-84136631D01*
X93637782Y-84027140D01*
X93777140Y-83887782D01*
X93880366Y-83733290D01*
X93891461Y-83724017D01*
X93898820Y-83711568D01*
X93917734Y-83702060D01*
X93933976Y-83688487D01*
X93948324Y-83686684D01*
X93961247Y-83680189D01*
X93982297Y-83682416D01*
X94003301Y-83679778D01*
X94016347Y-83686020D01*
X94030729Y-83687542D01*
X94047233Y-83700797D01*
X94066329Y-83709933D01*
X94074939Y-83723047D01*
X94085205Y-83731292D01*
X94096979Y-83756617D01*
X94101056Y-83762827D01*
X94104162Y-83772107D01*
X94104162Y-83773524D01*
X94145086Y-83926252D01*
X94164221Y-83959394D01*
X94203331Y-84027136D01*
X94224142Y-84063181D01*
X94224144Y-84063184D01*
X94343012Y-84182052D01*
X94343018Y-84182057D01*
X94760822Y-84599861D01*
X94794307Y-84661184D01*
X94789323Y-84730876D01*
X94747453Y-84786808D01*
X94647115Y-84861922D01*
X94560869Y-84977131D01*
X94560865Y-84977138D01*
X94510571Y-85111984D01*
X94504411Y-85169287D01*
X94504164Y-85171590D01*
X94504163Y-85171602D01*
X94504163Y-86117337D01*
X94504164Y-86117343D01*
X94510571Y-86176950D01*
X94560865Y-86311795D01*
X94560869Y-86311802D01*
X94647115Y-86427011D01*
X94647118Y-86427014D01*
X94762327Y-86513260D01*
X94762334Y-86513264D01*
X94897180Y-86563558D01*
X94897179Y-86563558D01*
X94904107Y-86564302D01*
X94956790Y-86569967D01*
X98352535Y-86569966D01*
X98412146Y-86563558D01*
X98546994Y-86513263D01*
X98662209Y-86427013D01*
X98748459Y-86311798D01*
X98798754Y-86176950D01*
X98805163Y-86117340D01*
X98805162Y-85171595D01*
X98799535Y-85119252D01*
X98798754Y-85111983D01*
X98748460Y-84977138D01*
X98748456Y-84977131D01*
X98662210Y-84861922D01*
X98662207Y-84861919D01*
X98546998Y-84775673D01*
X98546991Y-84775669D01*
X98412145Y-84725375D01*
X98412146Y-84725375D01*
X98352546Y-84718968D01*
X98352544Y-84718967D01*
X98352536Y-84718967D01*
X98352528Y-84718967D01*
X96629760Y-84718967D01*
X96562721Y-84699282D01*
X96542079Y-84682648D01*
X96101078Y-84241647D01*
X96090465Y-84222210D01*
X96075965Y-84205477D01*
X96074048Y-84192145D01*
X96067593Y-84180324D01*
X96069172Y-84158237D01*
X96066021Y-84136319D01*
X96071616Y-84124067D01*
X96072577Y-84110632D01*
X96085847Y-84092905D01*
X96095046Y-84072763D01*
X96106377Y-84065480D01*
X96114449Y-84054699D01*
X96135194Y-84046961D01*
X96153824Y-84034989D01*
X96175742Y-84031837D01*
X96179913Y-84030282D01*
X96188759Y-84029966D01*
X96249918Y-84029966D01*
X96297371Y-84039405D01*
X96315613Y-84046961D01*
X96362827Y-84066518D01*
X96556118Y-84104966D01*
X96556121Y-84104967D01*
X96556123Y-84104967D01*
X96753205Y-84104967D01*
X96753206Y-84104966D01*
X96946499Y-84066518D01*
X96993713Y-84046961D01*
X97011955Y-84039405D01*
X97059408Y-84029966D01*
X98352534Y-84029966D01*
X98352535Y-84029966D01*
X98412146Y-84023558D01*
X98546994Y-83973263D01*
X98662209Y-83887013D01*
X98748459Y-83771798D01*
X98798754Y-83636950D01*
X98805163Y-83577340D01*
X98805162Y-82631595D01*
X98798754Y-82571984D01*
X98785585Y-82536677D01*
X98748460Y-82437138D01*
X98748456Y-82437131D01*
X98662210Y-82321922D01*
X98662207Y-82321919D01*
X98550189Y-82238062D01*
X98508318Y-82182129D01*
X98500500Y-82138796D01*
X98500500Y-81901456D01*
X98462052Y-81708170D01*
X98462051Y-81708169D01*
X98462051Y-81708165D01*
X98397221Y-81551650D01*
X98386635Y-81526092D01*
X98386628Y-81526079D01*
X98277139Y-81362218D01*
X98277136Y-81362214D01*
X98137785Y-81222863D01*
X98137781Y-81222860D01*
X97973920Y-81113371D01*
X97973907Y-81113364D01*
X97791839Y-81037950D01*
X97791829Y-81037947D01*
X97598543Y-80999500D01*
X97598541Y-80999500D01*
X97401459Y-80999500D01*
X97401457Y-80999500D01*
X97208170Y-81037947D01*
X97208160Y-81037950D01*
X97026092Y-81113364D01*
X97026079Y-81113371D01*
X96862218Y-81222860D01*
X96862214Y-81222863D01*
X96722863Y-81362214D01*
X96722860Y-81362218D01*
X96613371Y-81526079D01*
X96613364Y-81526092D01*
X96537950Y-81708160D01*
X96537947Y-81708170D01*
X96520929Y-81793726D01*
X96488544Y-81855637D01*
X96486993Y-81857215D01*
X96201561Y-82142648D01*
X96140238Y-82176133D01*
X96113880Y-82178967D01*
X95429163Y-82178967D01*
X95362124Y-82159282D01*
X95316369Y-82106478D01*
X95305163Y-82054967D01*
X95305163Y-82000412D01*
X95305163Y-82000410D01*
X95264240Y-81847683D01*
X95233088Y-81793726D01*
X95185187Y-81710757D01*
X95185184Y-81710753D01*
X95185183Y-81710751D01*
X95073379Y-81598947D01*
X95073378Y-81598946D01*
X95069048Y-81594616D01*
X95069037Y-81594606D01*
X92590385Y-79115954D01*
X92585902Y-79107745D01*
X92578442Y-79102104D01*
X92569425Y-79077570D01*
X92556900Y-79054631D01*
X92557567Y-79045301D01*
X92554341Y-79036523D01*
X92560019Y-79011010D01*
X92561884Y-78984939D01*
X92567892Y-78975639D01*
X92569521Y-78968322D01*
X92581953Y-78953875D01*
X92590808Y-78940170D01*
X92597847Y-78933197D01*
X92599590Y-78932192D01*
X92674636Y-78857146D01*
X92705176Y-78840660D01*
X92735534Y-78824083D01*
X92736107Y-78823963D01*
X92736120Y-78823957D01*
X92736134Y-78823958D01*
X92737703Y-78823632D01*
X92738392Y-78823495D01*
X92738393Y-78823495D01*
X92893048Y-78792732D01*
X93005717Y-78746062D01*
X93038723Y-78732392D01*
X93038723Y-78732391D01*
X93038730Y-78732389D01*
X93169840Y-78644784D01*
X93281340Y-78533284D01*
X93368945Y-78402174D01*
X93379331Y-78377101D01*
X93405174Y-78314709D01*
X93429288Y-78256492D01*
X93460051Y-78101837D01*
X93460051Y-77944153D01*
X93460051Y-77944150D01*
X93460050Y-77944148D01*
X93429289Y-77789505D01*
X93429288Y-77789498D01*
X93393452Y-77702981D01*
X93368948Y-77643822D01*
X93368941Y-77643809D01*
X93281340Y-77512706D01*
X93281337Y-77512702D01*
X93169843Y-77401208D01*
X93169839Y-77401205D01*
X93038736Y-77313604D01*
X93038723Y-77313597D01*
X92893052Y-77253259D01*
X92893042Y-77253256D01*
X92764970Y-77227781D01*
X92703059Y-77195396D01*
X92668485Y-77134680D01*
X92665162Y-77106164D01*
X92665162Y-77053799D01*
X92665161Y-77053793D01*
X92665160Y-77053786D01*
X92658754Y-76994187D01*
X92615497Y-76878210D01*
X92608460Y-76859341D01*
X92608456Y-76859334D01*
X92522210Y-76744125D01*
X92522207Y-76744122D01*
X92406998Y-76657876D01*
X92406991Y-76657872D01*
X92272145Y-76607578D01*
X92272146Y-76607578D01*
X92212546Y-76601171D01*
X92212544Y-76601170D01*
X92212536Y-76601170D01*
X92212528Y-76601170D01*
X92147425Y-76601170D01*
X92080386Y-76581485D01*
X92034631Y-76528681D01*
X92024687Y-76459523D01*
X92025808Y-76452979D01*
X92050499Y-76328846D01*
X92050500Y-76328844D01*
X92050500Y-76171155D01*
X92043380Y-76135362D01*
X92049607Y-76065770D01*
X92092470Y-76010593D01*
X92158359Y-75987348D01*
X92164997Y-75987170D01*
X92822234Y-75987170D01*
X92846423Y-75989552D01*
X92882662Y-75996761D01*
X92901458Y-76000500D01*
X92901459Y-76000500D01*
X93098542Y-76000500D01*
X93098543Y-76000499D01*
X93291835Y-75962051D01*
X93473914Y-75886631D01*
X93637781Y-75777139D01*
X93777139Y-75637781D01*
X93845939Y-75534814D01*
X93877060Y-75488239D01*
X93930672Y-75443434D01*
X93999997Y-75434727D01*
X94063024Y-75464881D01*
X94099744Y-75524324D01*
X94104162Y-75557130D01*
X94104162Y-75655724D01*
X94104161Y-75655724D01*
X94132899Y-75762975D01*
X94145086Y-75808455D01*
X94169361Y-75850500D01*
X94219245Y-75936902D01*
X94224142Y-75945384D01*
X94224144Y-75945387D01*
X94343012Y-76064255D01*
X94343018Y-76064260D01*
X94760822Y-76482064D01*
X94794307Y-76543387D01*
X94789323Y-76613079D01*
X94747453Y-76669011D01*
X94647115Y-76744125D01*
X94560869Y-76859334D01*
X94560865Y-76859341D01*
X94510571Y-76994187D01*
X94504164Y-77053786D01*
X94504164Y-77053793D01*
X94504163Y-77053805D01*
X94504163Y-77999540D01*
X94504164Y-77999546D01*
X94510571Y-78059153D01*
X94560865Y-78193998D01*
X94560869Y-78194005D01*
X94647115Y-78309214D01*
X94647118Y-78309217D01*
X94762327Y-78395463D01*
X94762334Y-78395467D01*
X94897180Y-78445761D01*
X94897179Y-78445761D01*
X94904107Y-78446505D01*
X94956790Y-78452170D01*
X98352535Y-78452169D01*
X98412146Y-78445761D01*
X98546994Y-78395466D01*
X98662209Y-78309216D01*
X98748459Y-78194001D01*
X98798754Y-78059153D01*
X98805163Y-77999543D01*
X98805162Y-77053798D01*
X98798754Y-76994187D01*
X98755497Y-76878210D01*
X98748460Y-76859341D01*
X98748456Y-76859334D01*
X98662210Y-76744125D01*
X98662207Y-76744122D01*
X98546998Y-76657876D01*
X98546991Y-76657872D01*
X98412145Y-76607578D01*
X98412146Y-76607578D01*
X98352546Y-76601171D01*
X98352544Y-76601170D01*
X98352536Y-76601170D01*
X98352528Y-76601170D01*
X96629760Y-76601170D01*
X96562721Y-76581485D01*
X96542079Y-76564851D01*
X96101078Y-76123850D01*
X96090465Y-76104413D01*
X96075965Y-76087680D01*
X96074048Y-76074348D01*
X96067593Y-76062527D01*
X96069172Y-76040440D01*
X96066021Y-76018522D01*
X96071616Y-76006270D01*
X96072577Y-75992835D01*
X96085847Y-75975108D01*
X96095046Y-75954966D01*
X96106377Y-75947683D01*
X96114449Y-75936902D01*
X96135194Y-75929164D01*
X96153824Y-75917192D01*
X96175742Y-75914040D01*
X96179913Y-75912485D01*
X96188759Y-75912169D01*
X96249918Y-75912169D01*
X96297371Y-75921608D01*
X96315613Y-75929164D01*
X96362827Y-75948721D01*
X96498379Y-75975684D01*
X96556118Y-75987169D01*
X96556121Y-75987170D01*
X96556123Y-75987170D01*
X96753205Y-75987170D01*
X96753206Y-75987169D01*
X96946499Y-75948721D01*
X96993713Y-75929164D01*
X97011955Y-75921608D01*
X97059408Y-75912169D01*
X98352534Y-75912169D01*
X98352535Y-75912169D01*
X98412146Y-75905761D01*
X98546994Y-75855466D01*
X98662209Y-75769216D01*
X98748459Y-75654001D01*
X98798754Y-75519153D01*
X98805163Y-75459543D01*
X98805162Y-74513798D01*
X98798754Y-74454187D01*
X98748459Y-74319339D01*
X98748458Y-74319338D01*
X98748456Y-74319334D01*
X98662210Y-74204125D01*
X98662207Y-74204122D01*
X98550189Y-74120265D01*
X98508318Y-74064332D01*
X98500500Y-74020999D01*
X98500500Y-73901456D01*
X98462052Y-73708170D01*
X98462051Y-73708169D01*
X98462051Y-73708165D01*
X98455345Y-73691974D01*
X98386635Y-73526092D01*
X98386628Y-73526079D01*
X98277139Y-73362218D01*
X98277136Y-73362214D01*
X98137785Y-73222863D01*
X98137781Y-73222860D01*
X97973920Y-73113371D01*
X97973907Y-73113364D01*
X97791839Y-73037950D01*
X97791829Y-73037947D01*
X97598543Y-72999500D01*
X97598541Y-72999500D01*
X97401459Y-72999500D01*
X97401457Y-72999500D01*
X97208170Y-73037947D01*
X97208160Y-73037950D01*
X97026092Y-73113364D01*
X97026079Y-73113371D01*
X96862218Y-73222860D01*
X96862214Y-73222863D01*
X96722863Y-73362214D01*
X96722860Y-73362218D01*
X96613371Y-73526079D01*
X96613366Y-73526089D01*
X96561317Y-73651746D01*
X96534437Y-73691974D01*
X96201561Y-74024851D01*
X96140238Y-74058336D01*
X96113880Y-74061170D01*
X95429163Y-74061170D01*
X95362124Y-74041485D01*
X95316369Y-73988681D01*
X95305163Y-73937170D01*
X95305163Y-73882615D01*
X95305161Y-73882606D01*
X95302910Y-73874205D01*
X95301248Y-73868000D01*
X95264240Y-73729885D01*
X95242352Y-73691974D01*
X95233843Y-73677236D01*
X95233843Y-73677235D01*
X95185187Y-73592960D01*
X95185184Y-73592956D01*
X95185183Y-73592954D01*
X95073379Y-73481150D01*
X95073378Y-73481149D01*
X95069048Y-73476819D01*
X95069037Y-73476809D01*
X92784099Y-71191871D01*
X92750614Y-71130548D01*
X92755598Y-71060856D01*
X92784100Y-71016508D01*
X92831051Y-70969557D01*
X92831054Y-70969554D01*
X92918659Y-70838444D01*
X92979002Y-70692762D01*
X93009765Y-70538107D01*
X93009765Y-70380423D01*
X93009765Y-70380420D01*
X93009764Y-70380418D01*
X92994452Y-70303441D01*
X92979002Y-70225768D01*
X92971560Y-70207802D01*
X92918662Y-70080092D01*
X92918655Y-70080079D01*
X92831054Y-69948976D01*
X92831051Y-69948972D01*
X92719557Y-69837478D01*
X92714846Y-69833612D01*
X92715733Y-69832530D01*
X92675460Y-69784328D01*
X92665162Y-69734852D01*
X92665162Y-68936002D01*
X92665161Y-68935996D01*
X92665160Y-68935989D01*
X92658754Y-68876390D01*
X92656679Y-68870827D01*
X92608460Y-68741544D01*
X92608456Y-68741537D01*
X92522210Y-68626328D01*
X92522207Y-68626325D01*
X92406998Y-68540079D01*
X92406991Y-68540075D01*
X92272145Y-68489781D01*
X92272146Y-68489781D01*
X92221219Y-68484306D01*
X92156668Y-68457568D01*
X92116820Y-68400175D01*
X92112858Y-68385208D01*
X92108692Y-68364267D01*
X92106505Y-68353271D01*
X92105833Y-68351648D01*
X92046165Y-68207595D01*
X92046159Y-68207584D01*
X92036675Y-68193390D01*
X92015798Y-68126713D01*
X92034283Y-68059333D01*
X92086262Y-68012643D01*
X92139778Y-68000500D01*
X93598543Y-68000500D01*
X93752461Y-67969883D01*
X93791835Y-67962051D01*
X93952365Y-67895558D01*
X93973907Y-67886635D01*
X93973907Y-67886634D01*
X93973914Y-67886632D01*
X94074695Y-67819291D01*
X94104988Y-67809806D01*
X94134739Y-67798710D01*
X94138095Y-67799440D01*
X94141372Y-67798414D01*
X94171994Y-67806814D01*
X94203012Y-67813562D01*
X94206726Y-67816342D01*
X94208752Y-67816898D01*
X94231262Y-67834708D01*
X94335947Y-67939393D01*
X94335949Y-67939394D01*
X94343019Y-67946464D01*
X94760822Y-68364267D01*
X94794307Y-68425590D01*
X94789323Y-68495282D01*
X94747453Y-68551214D01*
X94647115Y-68626328D01*
X94560869Y-68741537D01*
X94560865Y-68741544D01*
X94510571Y-68876390D01*
X94504164Y-68935989D01*
X94504164Y-68935996D01*
X94504163Y-68936008D01*
X94504163Y-69881743D01*
X94504164Y-69881749D01*
X94510571Y-69941356D01*
X94560865Y-70076201D01*
X94560869Y-70076208D01*
X94647115Y-70191417D01*
X94647118Y-70191420D01*
X94762327Y-70277666D01*
X94762334Y-70277670D01*
X94897180Y-70327964D01*
X94897179Y-70327964D01*
X94904107Y-70328708D01*
X94956790Y-70334373D01*
X98352535Y-70334372D01*
X98412146Y-70327964D01*
X98546994Y-70277669D01*
X98662209Y-70191419D01*
X98748459Y-70076204D01*
X98798754Y-69941356D01*
X98805163Y-69881746D01*
X98805162Y-68936001D01*
X98798754Y-68876390D01*
X98796679Y-68870827D01*
X98748460Y-68741544D01*
X98748456Y-68741537D01*
X98662210Y-68626328D01*
X98662207Y-68626325D01*
X98546998Y-68540079D01*
X98546991Y-68540075D01*
X98412145Y-68489781D01*
X98412146Y-68489781D01*
X98352546Y-68483374D01*
X98352544Y-68483373D01*
X98352536Y-68483373D01*
X98352528Y-68483373D01*
X96629760Y-68483373D01*
X96562721Y-68463688D01*
X96542079Y-68447054D01*
X96101078Y-68006053D01*
X96090465Y-67986616D01*
X96075965Y-67969883D01*
X96074048Y-67956551D01*
X96067593Y-67944730D01*
X96069172Y-67922643D01*
X96066021Y-67900725D01*
X96071616Y-67888473D01*
X96072577Y-67875038D01*
X96085847Y-67857311D01*
X96095046Y-67837169D01*
X96106377Y-67829886D01*
X96114449Y-67819105D01*
X96135194Y-67811367D01*
X96153824Y-67799395D01*
X96175742Y-67796243D01*
X96179913Y-67794688D01*
X96188759Y-67794372D01*
X96249918Y-67794372D01*
X96297371Y-67803811D01*
X96325036Y-67815270D01*
X96362827Y-67830924D01*
X96556118Y-67869372D01*
X96556121Y-67869373D01*
X96556123Y-67869373D01*
X96753205Y-67869373D01*
X96753206Y-67869372D01*
X96946499Y-67830924D01*
X96987218Y-67814057D01*
X97011955Y-67803811D01*
X97059408Y-67794372D01*
X98352534Y-67794372D01*
X98352535Y-67794372D01*
X98412146Y-67787964D01*
X98546994Y-67737669D01*
X98662209Y-67651419D01*
X98748459Y-67536204D01*
X98798754Y-67401356D01*
X98805163Y-67341746D01*
X98805162Y-66396001D01*
X98798754Y-66336390D01*
X98748459Y-66201542D01*
X98730767Y-66177909D01*
X98706350Y-66112446D01*
X98710954Y-66071365D01*
X98710863Y-66071347D01*
X98711077Y-66070267D01*
X98711378Y-66067589D01*
X98712046Y-66065382D01*
X98712051Y-66065372D01*
X98750500Y-65872077D01*
X98750500Y-65674996D01*
X98750500Y-65651459D01*
X98750500Y-65651456D01*
X98712052Y-65458170D01*
X98712051Y-65458169D01*
X98712051Y-65458165D01*
X98706634Y-65445087D01*
X98636635Y-65276092D01*
X98636628Y-65276079D01*
X98527139Y-65112218D01*
X98527136Y-65112214D01*
X98387785Y-64972863D01*
X98387781Y-64972860D01*
X98223920Y-64863371D01*
X98223907Y-64863364D01*
X98041839Y-64787950D01*
X98041829Y-64787947D01*
X97848543Y-64749500D01*
X97848541Y-64749500D01*
X97651459Y-64749500D01*
X97651457Y-64749500D01*
X97458170Y-64787947D01*
X97458160Y-64787950D01*
X97276092Y-64863364D01*
X97276079Y-64863371D01*
X97112218Y-64972860D01*
X97112214Y-64972863D01*
X96972863Y-65112214D01*
X96932250Y-65172996D01*
X96916829Y-65191785D01*
X96201561Y-65907054D01*
X96140238Y-65940539D01*
X96113880Y-65943373D01*
X95429163Y-65943373D01*
X95424606Y-65942035D01*
X95419965Y-65943031D01*
X95391404Y-65932285D01*
X95362124Y-65923688D01*
X95359014Y-65920099D01*
X95354571Y-65918428D01*
X95336348Y-65893942D01*
X95316369Y-65870884D01*
X95314909Y-65865133D01*
X95312858Y-65862376D01*
X95309622Y-65844297D01*
X95305454Y-65827867D01*
X95305163Y-65823629D01*
X95305163Y-65764816D01*
X95302844Y-65756161D01*
X95264240Y-65612088D01*
X95223111Y-65540851D01*
X95185183Y-65475157D01*
X95073379Y-65363353D01*
X95073378Y-65363352D01*
X95069048Y-65359022D01*
X95069037Y-65359012D01*
X93389514Y-63679489D01*
X93356029Y-63618166D01*
X93361013Y-63548474D01*
X93374093Y-63522917D01*
X93459390Y-63395261D01*
X93459390Y-63395260D01*
X93459394Y-63395255D01*
X93519737Y-63249573D01*
X93533248Y-63181651D01*
X93546231Y-63116384D01*
X93578616Y-63054473D01*
X93639332Y-63019899D01*
X93667848Y-63016576D01*
X95442994Y-63016576D01*
X95443010Y-63016577D01*
X95450606Y-63016577D01*
X95608717Y-63016577D01*
X95608720Y-63016577D01*
X95761448Y-62975653D01*
X95813754Y-62945454D01*
X95813755Y-62945454D01*
X95898372Y-62896600D01*
X95898371Y-62896600D01*
X95898379Y-62896596D01*
X96010183Y-62784792D01*
X96010183Y-62784790D01*
X96020387Y-62774587D01*
X96020391Y-62774582D01*
X96542079Y-62252894D01*
X96603402Y-62219409D01*
X96629760Y-62216575D01*
X98352534Y-62216575D01*
X98352535Y-62216575D01*
X98412146Y-62210167D01*
X98546994Y-62159872D01*
X98662209Y-62073622D01*
X98748459Y-61958407D01*
X98798754Y-61823559D01*
X98805163Y-61763949D01*
X98805162Y-60818204D01*
X98798754Y-60758593D01*
X98791758Y-60739837D01*
X98748460Y-60623747D01*
X98748456Y-60623740D01*
X98662210Y-60508531D01*
X98662207Y-60508528D01*
X98546998Y-60422282D01*
X98546991Y-60422278D01*
X98412145Y-60371984D01*
X98412146Y-60371984D01*
X98352546Y-60365577D01*
X98352544Y-60365576D01*
X98352536Y-60365576D01*
X98352528Y-60365576D01*
X98098478Y-60365576D01*
X98031439Y-60345891D01*
X97985684Y-60293087D01*
X97975740Y-60223929D01*
X97976861Y-60217385D01*
X97999148Y-60105336D01*
X98000500Y-60098541D01*
X98000500Y-59800575D01*
X98020185Y-59733536D01*
X98072989Y-59687781D01*
X98124500Y-59676575D01*
X98352534Y-59676575D01*
X98352535Y-59676575D01*
X98412146Y-59670167D01*
X98546994Y-59619872D01*
X98662209Y-59533622D01*
X98748459Y-59418407D01*
X98798754Y-59283559D01*
X98805163Y-59223949D01*
X98805162Y-58278204D01*
X98798754Y-58218593D01*
X98795814Y-58210711D01*
X98748460Y-58083747D01*
X98748456Y-58083740D01*
X98662210Y-57968531D01*
X98662207Y-57968528D01*
X98546998Y-57882282D01*
X98546991Y-57882278D01*
X98412145Y-57831984D01*
X98412146Y-57831984D01*
X98352546Y-57825577D01*
X98352544Y-57825576D01*
X98352536Y-57825576D01*
X98352528Y-57825576D01*
X97059405Y-57825576D01*
X97051225Y-57823949D01*
X97046149Y-57824865D01*
X97011954Y-57816137D01*
X96980051Y-57802923D01*
X96980049Y-57802922D01*
X96946500Y-57789025D01*
X96946492Y-57789023D01*
X96849851Y-57769800D01*
X96753207Y-57750576D01*
X96753204Y-57750576D01*
X79976122Y-57750576D01*
X79976120Y-57750576D01*
X79782829Y-57789024D01*
X79782827Y-57789025D01*
X79717368Y-57816138D01*
X79669917Y-57825576D01*
X78376792Y-57825576D01*
X78376786Y-57825577D01*
X78317179Y-57831984D01*
X78182334Y-57882278D01*
X78182327Y-57882282D01*
X78067118Y-57968528D01*
X78067115Y-57968531D01*
X77980869Y-58083740D01*
X77980865Y-58083747D01*
X77930571Y-58218593D01*
X77926695Y-58254650D01*
X77924164Y-58278199D01*
X77924163Y-58278211D01*
X77924163Y-59223946D01*
X77924164Y-59223952D01*
X77930571Y-59283559D01*
X77980865Y-59418404D01*
X77980869Y-59418411D01*
X78067115Y-59533620D01*
X78067118Y-59533623D01*
X78182327Y-59619869D01*
X78182334Y-59619873D01*
X78235327Y-59639638D01*
X78291260Y-59681509D01*
X78315678Y-59746973D01*
X78300827Y-59815246D01*
X78260887Y-59858920D01*
X78255207Y-59862715D01*
X78255198Y-59862722D01*
X78143704Y-59974216D01*
X78143701Y-59974220D01*
X78056100Y-60105323D01*
X78056093Y-60105336D01*
X77995755Y-60251007D01*
X77995752Y-60251019D01*
X77964991Y-60405662D01*
X77964991Y-60405667D01*
X77964991Y-60563351D01*
X77964991Y-60563352D01*
X77964990Y-60563352D01*
X77971478Y-60595969D01*
X77966042Y-60663489D01*
X77930573Y-60758587D01*
X77930572Y-60758591D01*
X77930572Y-60758593D01*
X77924163Y-60818203D01*
X77924163Y-60818210D01*
X77924163Y-60818211D01*
X77924163Y-60818212D01*
X77924164Y-61291576D01*
X77904480Y-61358615D01*
X77851676Y-61404370D01*
X77800164Y-61415576D01*
X77328918Y-61415576D01*
X77261879Y-61395891D01*
X77241237Y-61379257D01*
X76881461Y-61019481D01*
X76881460Y-61019480D01*
X76781989Y-60962051D01*
X76781988Y-60962050D01*
X76744527Y-60940422D01*
X76688625Y-60925443D01*
X76591801Y-60899499D01*
X76433687Y-60899499D01*
X76426091Y-60899499D01*
X76426075Y-60899500D01*
X71636555Y-60899500D01*
X71569516Y-60879815D01*
X71523761Y-60827011D01*
X71513817Y-60757853D01*
X71518840Y-60739588D01*
X71517969Y-60739324D01*
X71519731Y-60733509D01*
X71519737Y-60733497D01*
X71550500Y-60578842D01*
X71550500Y-60449900D01*
X71570185Y-60382861D01*
X71609401Y-60344363D01*
X71648350Y-60320340D01*
X71770340Y-60198350D01*
X71860908Y-60051516D01*
X71915174Y-59887753D01*
X71925500Y-59786677D01*
X71925499Y-59213324D01*
X71915174Y-59112247D01*
X71860908Y-58948484D01*
X71770340Y-58801650D01*
X71648350Y-58679660D01*
X71648346Y-58679657D01*
X71546903Y-58617086D01*
X71500178Y-58565138D01*
X71488000Y-58511548D01*
X71488000Y-56568282D01*
X71488001Y-56568269D01*
X71488001Y-56400166D01*
X71466706Y-56320694D01*
X71447077Y-56247438D01*
X71421672Y-56203434D01*
X71368024Y-56110512D01*
X71368018Y-56110504D01*
X71061819Y-55804305D01*
X71028334Y-55742982D01*
X71025500Y-55716624D01*
X71025500Y-52714060D01*
X71025501Y-52714047D01*
X71025501Y-52545944D01*
X71009372Y-52485750D01*
X70984577Y-52393216D01*
X70972206Y-52371789D01*
X70905524Y-52256290D01*
X70905518Y-52256282D01*
X70661818Y-52012582D01*
X70628333Y-51951259D01*
X70625499Y-51924901D01*
X70625499Y-51500830D01*
X70625498Y-51500813D01*
X70615174Y-51399747D01*
X70599965Y-51353851D01*
X70560908Y-51235984D01*
X70470340Y-51089150D01*
X70348350Y-50967160D01*
X70257129Y-50910895D01*
X70201518Y-50876593D01*
X70201513Y-50876591D01*
X70200069Y-50876112D01*
X70037753Y-50822326D01*
X70037751Y-50822325D01*
X69936678Y-50812000D01*
X69363330Y-50812000D01*
X69363312Y-50812001D01*
X69262247Y-50822325D01*
X69098484Y-50876592D01*
X69098481Y-50876593D01*
X68951648Y-50967161D01*
X68829660Y-51089149D01*
X68829657Y-51089153D01*
X68767086Y-51190597D01*
X68715138Y-51237322D01*
X68661548Y-51249500D01*
X67708440Y-51249500D01*
X67667519Y-51260464D01*
X67667519Y-51260465D01*
X67630251Y-51270451D01*
X67555714Y-51290423D01*
X67555711Y-51290425D01*
X67460510Y-51345388D01*
X67398513Y-51362000D01*
X67225596Y-51362000D01*
X67115536Y-51376488D01*
X67115527Y-51376491D01*
X66978574Y-51433219D01*
X66978571Y-51433220D01*
X66978571Y-51433221D01*
X66890483Y-51500813D01*
X66860964Y-51523464D01*
X66770721Y-51641071D01*
X66740262Y-51714602D01*
X66696419Y-51769004D01*
X66649895Y-51788763D01*
X66591506Y-51800377D01*
X66591500Y-51800379D01*
X66445827Y-51860718D01*
X66445814Y-51860725D01*
X66314711Y-51948326D01*
X66314706Y-51948330D01*
X66264887Y-51998149D01*
X66242958Y-52010122D01*
X66223321Y-52025573D01*
X66212821Y-52026578D01*
X66203564Y-52031633D01*
X66178643Y-52029850D01*
X66153769Y-52032232D01*
X66144391Y-52027400D01*
X66133872Y-52026648D01*
X66113870Y-52011675D01*
X66091659Y-52000231D01*
X66081736Y-51987619D01*
X66077939Y-51984777D01*
X66069835Y-51972493D01*
X66068857Y-51970800D01*
X66068841Y-51970773D01*
X66030521Y-51904400D01*
X66030520Y-51904398D01*
X65918716Y-51792594D01*
X65918715Y-51792593D01*
X65914385Y-51788263D01*
X65914374Y-51788253D01*
X65751976Y-51625855D01*
X65751974Y-51625852D01*
X65633103Y-51506981D01*
X65633102Y-51506980D01*
X65546290Y-51456860D01*
X65496171Y-51427923D01*
X65391684Y-51399924D01*
X65385841Y-51397708D01*
X65385364Y-51397347D01*
X65382371Y-51396331D01*
X65334475Y-51376492D01*
X65334470Y-51376490D01*
X65224401Y-51362000D01*
X64375596Y-51362000D01*
X64265536Y-51376488D01*
X64265527Y-51376491D01*
X64128574Y-51433219D01*
X64128571Y-51433220D01*
X64128571Y-51433221D01*
X64010964Y-51523464D01*
X63937823Y-51618784D01*
X63920719Y-51641074D01*
X63869930Y-51763690D01*
X63826089Y-51818093D01*
X63759795Y-51840158D01*
X63755369Y-51840237D01*
X63621193Y-51840237D01*
X63463079Y-51840237D01*
X63310351Y-51881160D01*
X63310350Y-51881160D01*
X63310348Y-51881161D01*
X63310347Y-51881161D01*
X63273792Y-51902267D01*
X63173423Y-51960214D01*
X63173418Y-51960218D01*
X63061616Y-52072020D01*
X63061616Y-52072021D01*
X63061614Y-52072023D01*
X62996838Y-52136799D01*
X62933434Y-52200203D01*
X62872111Y-52233687D01*
X62802419Y-52228703D01*
X62746486Y-52186831D01*
X62722069Y-52121367D01*
X62732958Y-52061011D01*
X62758135Y-52005883D01*
X62778617Y-51863426D01*
X62758135Y-51720968D01*
X62698347Y-51590053D01*
X62698344Y-51590048D01*
X62660731Y-51543372D01*
X62660724Y-51543364D01*
X61956637Y-50839280D01*
X61956636Y-50839279D01*
X61956630Y-50839273D01*
X61909947Y-50801653D01*
X61894214Y-50794468D01*
X61770965Y-50738181D01*
X61772171Y-50735540D01*
X61725744Y-50705704D01*
X61696718Y-50642149D01*
X61706661Y-50572990D01*
X61752415Y-50520185D01*
X61819454Y-50500500D01*
X73471696Y-50500500D01*
X73538735Y-50520185D01*
G37*
%TD.AperFunction*%
%TA.AperFunction,Conductor*%
G36*
X71327071Y-90603614D02*
G01*
X71327255Y-90603603D01*
X71327505Y-90603742D01*
X71343323Y-90608386D01*
X71401517Y-90630091D01*
X71461127Y-90636500D01*
X71815476Y-90636499D01*
X71882514Y-90656183D01*
X71928269Y-90708987D01*
X71938213Y-90778146D01*
X71937093Y-90784687D01*
X71937000Y-90785154D01*
X71937000Y-90942844D01*
X71967760Y-91097486D01*
X71967763Y-91097496D01*
X71978800Y-91124141D01*
X71986269Y-91193611D01*
X71980421Y-91214926D01*
X71964908Y-91256517D01*
X71958501Y-91316116D01*
X71958501Y-91316123D01*
X71958500Y-91316135D01*
X71958500Y-92411227D01*
X71938815Y-92478266D01*
X71886011Y-92524021D01*
X71870758Y-92529808D01*
X71859161Y-92533353D01*
X71847315Y-92534564D01*
X71753118Y-92565777D01*
X71751757Y-92566194D01*
X71718203Y-92566567D01*
X71684674Y-92567721D01*
X71683387Y-92566955D01*
X71681891Y-92566972D01*
X71653468Y-92549149D01*
X71624633Y-92531989D01*
X71623964Y-92530649D01*
X71622696Y-92529854D01*
X71608413Y-92499479D01*
X71593440Y-92469468D01*
X71593239Y-92467209D01*
X71592965Y-92466626D01*
X71593098Y-92465619D01*
X71591499Y-92447623D01*
X71591499Y-91316128D01*
X71585091Y-91256517D01*
X71552529Y-91169215D01*
X71534797Y-91121671D01*
X71534793Y-91121664D01*
X71448547Y-91006455D01*
X71448544Y-91006452D01*
X71333335Y-90920206D01*
X71333328Y-90920202D01*
X71191215Y-90867198D01*
X71191987Y-90865126D01*
X71171932Y-90853707D01*
X71141919Y-90837029D01*
X71141601Y-90836437D01*
X71141018Y-90836105D01*
X71125115Y-90805705D01*
X71108890Y-90775460D01*
X71108942Y-90774790D01*
X71108631Y-90774194D01*
X71111693Y-90739965D01*
X71114391Y-90705807D01*
X71114797Y-90705272D01*
X71114857Y-90704603D01*
X71135908Y-90677502D01*
X71156675Y-90650185D01*
X71157382Y-90649857D01*
X71157719Y-90649424D01*
X71187777Y-90633500D01*
X71196561Y-90630297D01*
X71198483Y-90630091D01*
X71257162Y-90608204D01*
X71257529Y-90608071D01*
X71292054Y-90605858D01*
X71326357Y-90603405D01*
X71327071Y-90603614D01*
G37*
%TD.AperFunction*%
%TA.AperFunction,Conductor*%
G36*
X69003167Y-86468404D02*
G01*
X69049857Y-86520383D01*
X69062000Y-86573899D01*
X69062000Y-86613480D01*
X69042315Y-86680519D01*
X69025681Y-86701161D01*
X67254891Y-88471950D01*
X67193568Y-88505435D01*
X67123876Y-88500451D01*
X67067943Y-88458579D01*
X67051028Y-88427602D01*
X67006297Y-88307671D01*
X67006293Y-88307664D01*
X66920047Y-88192455D01*
X66799688Y-88102353D01*
X66757818Y-88046419D01*
X66750000Y-88003087D01*
X66750000Y-86724500D01*
X66769685Y-86657461D01*
X66822489Y-86611706D01*
X66874000Y-86600500D01*
X68531496Y-86600500D01*
X68622540Y-86582389D01*
X68666828Y-86573580D01*
X68794311Y-86520775D01*
X68794313Y-86520774D01*
X68869110Y-86470797D01*
X68935787Y-86449919D01*
X69003167Y-86468404D01*
G37*
%TD.AperFunction*%
%TA.AperFunction,Conductor*%
G36*
X76705703Y-78371069D02*
G01*
X76712181Y-78377101D01*
X77551126Y-79216046D01*
X77551136Y-79216057D01*
X77555466Y-79220387D01*
X77555467Y-79220388D01*
X77667271Y-79332192D01*
X77667273Y-79332193D01*
X77667277Y-79332196D01*
X77729379Y-79368050D01*
X77804203Y-79411249D01*
X77956930Y-79452173D01*
X77956932Y-79452173D01*
X78122641Y-79452173D01*
X78122657Y-79452172D01*
X91176771Y-79452172D01*
X91243810Y-79471857D01*
X91264452Y-79488491D01*
X94067844Y-82291883D01*
X94101329Y-82353206D01*
X94104163Y-82379564D01*
X94104163Y-82692872D01*
X94084478Y-82759911D01*
X94031674Y-82805666D01*
X93962516Y-82815610D01*
X93898960Y-82786585D01*
X93877061Y-82761762D01*
X93777141Y-82612220D01*
X93777140Y-82612219D01*
X93736904Y-82571983D01*
X93631607Y-82466686D01*
X93631606Y-82466685D01*
X93492249Y-82327328D01*
X93492248Y-82327327D01*
X93492247Y-82327326D01*
X93328386Y-82217838D01*
X93328377Y-82217833D01*
X93197498Y-82163622D01*
X93197497Y-82163621D01*
X93190178Y-82160590D01*
X93146303Y-82142416D01*
X93049655Y-82123191D01*
X93045478Y-82122360D01*
X93045474Y-82122359D01*
X92953011Y-82103967D01*
X92953008Y-82103967D01*
X79976122Y-82103967D01*
X79976120Y-82103967D01*
X79782829Y-82142415D01*
X79782827Y-82142416D01*
X79717368Y-82169529D01*
X79669917Y-82178967D01*
X78376792Y-82178967D01*
X78376786Y-82178968D01*
X78317179Y-82185375D01*
X78182334Y-82235669D01*
X78182327Y-82235673D01*
X78067118Y-82321919D01*
X78067115Y-82321922D01*
X77980869Y-82437131D01*
X77980865Y-82437138D01*
X77930571Y-82571984D01*
X77926246Y-82612219D01*
X77924164Y-82631590D01*
X77924163Y-82631602D01*
X77924163Y-83577337D01*
X77924164Y-83577343D01*
X77930571Y-83636950D01*
X77980865Y-83771795D01*
X77980867Y-83771798D01*
X78012760Y-83814401D01*
X78037178Y-83879865D01*
X78022327Y-83948138D01*
X77972922Y-83997544D01*
X77960947Y-84003274D01*
X77870824Y-84040604D01*
X77870814Y-84040609D01*
X77739711Y-84128210D01*
X77739707Y-84128213D01*
X77628213Y-84239707D01*
X77628210Y-84239711D01*
X77540609Y-84370814D01*
X77540602Y-84370827D01*
X77480264Y-84516498D01*
X77480261Y-84516508D01*
X77465904Y-84588685D01*
X77433518Y-84650596D01*
X77372802Y-84685170D01*
X77303033Y-84681429D01*
X77256606Y-84652174D01*
X76536819Y-83932387D01*
X76503334Y-83871064D01*
X76500500Y-83844706D01*
X76500500Y-78464782D01*
X76520185Y-78397743D01*
X76572989Y-78351988D01*
X76642147Y-78342044D01*
X76705703Y-78371069D01*
G37*
%TD.AperFunction*%
%TA.AperFunction,Conductor*%
G36*
X50642684Y-69492298D02*
G01*
X50643270Y-69492220D01*
X50674412Y-69506787D01*
X50705703Y-69521078D01*
X50706081Y-69521602D01*
X50706557Y-69521825D01*
X50729425Y-69548709D01*
X50735032Y-69557612D01*
X50746341Y-69584914D01*
X50833946Y-69716024D01*
X50836254Y-69718332D01*
X50841762Y-69727077D01*
X50849262Y-69753515D01*
X50860003Y-69778803D01*
X50858661Y-69786641D01*
X50860832Y-69794294D01*
X50851489Y-69828533D01*
X50848213Y-69847670D01*
X50845440Y-69850702D01*
X50844224Y-69855159D01*
X50817924Y-69900711D01*
X50817923Y-69900715D01*
X50776999Y-70053443D01*
X50776999Y-70053445D01*
X50776999Y-70221546D01*
X50777000Y-70221559D01*
X50777000Y-70956122D01*
X50776999Y-70956140D01*
X50776999Y-71121846D01*
X50776998Y-71121846D01*
X50776999Y-71121849D01*
X50817923Y-71274577D01*
X50826589Y-71289587D01*
X50826590Y-71289590D01*
X50826591Y-71289590D01*
X50896977Y-71411504D01*
X50896979Y-71411507D01*
X50896980Y-71411508D01*
X51008784Y-71523312D01*
X51008785Y-71523313D01*
X51535992Y-72050520D01*
X51535994Y-72050521D01*
X51535998Y-72050524D01*
X51620839Y-72099506D01*
X51672924Y-72129577D01*
X51825651Y-72170501D01*
X51825653Y-72170501D01*
X51991362Y-72170501D01*
X51991378Y-72170500D01*
X53163623Y-72170500D01*
X53163639Y-72170501D01*
X53171235Y-72170501D01*
X53329346Y-72170501D01*
X53329349Y-72170501D01*
X53482077Y-72129577D01*
X53534171Y-72099500D01*
X53619008Y-72050520D01*
X53730812Y-71938716D01*
X53730812Y-71938714D01*
X53741016Y-71928511D01*
X53741019Y-71928506D01*
X54740520Y-70929008D01*
X54819577Y-70792076D01*
X54860501Y-70639349D01*
X54860501Y-70481234D01*
X54860501Y-70473639D01*
X54860500Y-70473621D01*
X54860500Y-70228473D01*
X54880185Y-70161434D01*
X54932989Y-70115679D01*
X55002147Y-70105735D01*
X55023500Y-70110766D01*
X55112247Y-70140174D01*
X55213323Y-70150500D01*
X55786676Y-70150499D01*
X55786684Y-70150498D01*
X55786687Y-70150498D01*
X55842030Y-70144844D01*
X55887753Y-70140174D01*
X56051516Y-70085908D01*
X56198350Y-69995340D01*
X56320340Y-69873350D01*
X56321233Y-69871901D01*
X56322104Y-69871117D01*
X56324821Y-69867683D01*
X56325407Y-69868147D01*
X56328819Y-69865078D01*
X56333058Y-69855797D01*
X56354357Y-69842108D01*
X56373180Y-69825179D01*
X56384815Y-69822534D01*
X56391836Y-69818023D01*
X56426771Y-69813000D01*
X56672695Y-69813000D01*
X56739734Y-69832685D01*
X56760376Y-69849319D01*
X58112561Y-71201504D01*
X58146046Y-71262827D01*
X58146493Y-71264975D01*
X58148324Y-71274179D01*
X58153741Y-71301410D01*
X58147512Y-71371002D01*
X58119805Y-71413281D01*
X58024286Y-71508800D01*
X58024282Y-71508805D01*
X57945445Y-71642112D01*
X57945443Y-71642117D01*
X57925694Y-71710095D01*
X57888088Y-71768981D01*
X57824615Y-71798187D01*
X57806618Y-71799500D01*
X57163517Y-71799500D01*
X57096478Y-71779815D01*
X57050723Y-71727011D01*
X57048966Y-71722976D01*
X57033358Y-71685295D01*
X57033354Y-71685288D01*
X56937545Y-71541901D01*
X56937542Y-71541897D01*
X56815602Y-71419957D01*
X56815598Y-71419954D01*
X56672211Y-71324145D01*
X56672198Y-71324138D01*
X56512878Y-71258146D01*
X56512866Y-71258143D01*
X56343732Y-71224500D01*
X56343729Y-71224500D01*
X56171271Y-71224500D01*
X56171268Y-71224500D01*
X56002133Y-71258143D01*
X56002121Y-71258146D01*
X55842801Y-71324138D01*
X55842788Y-71324145D01*
X55699401Y-71419954D01*
X55699397Y-71419957D01*
X55577457Y-71541897D01*
X55577454Y-71541901D01*
X55481645Y-71685288D01*
X55481638Y-71685301D01*
X55415646Y-71844621D01*
X55415643Y-71844633D01*
X55382000Y-72013766D01*
X55382000Y-72186233D01*
X55415643Y-72355366D01*
X55415646Y-72355378D01*
X55481638Y-72514698D01*
X55481645Y-72514711D01*
X55577453Y-72658097D01*
X55577454Y-72658098D01*
X55577455Y-72658099D01*
X55638782Y-72719426D01*
X55672266Y-72780747D01*
X55667282Y-72850439D01*
X55638781Y-72894787D01*
X55284221Y-73249347D01*
X55284214Y-73249354D01*
X55281286Y-73252283D01*
X55281284Y-73252285D01*
X55169480Y-73364089D01*
X55147539Y-73402093D01*
X55141479Y-73412588D01*
X55141479Y-73412589D01*
X55090423Y-73501019D01*
X55049500Y-73653747D01*
X55049499Y-73653749D01*
X55049499Y-73821850D01*
X55049500Y-73821863D01*
X55049500Y-76195830D01*
X55049499Y-76195848D01*
X55049499Y-76361554D01*
X55049498Y-76361554D01*
X55090423Y-76514285D01*
X55100237Y-76531284D01*
X55115821Y-76558275D01*
X55145987Y-76610524D01*
X55169479Y-76651214D01*
X55169481Y-76651217D01*
X55288349Y-76770085D01*
X55288355Y-76770090D01*
X55631129Y-77112864D01*
X55664614Y-77174187D01*
X55659630Y-77243879D01*
X55631129Y-77288226D01*
X55577457Y-77341897D01*
X55577454Y-77341901D01*
X55481645Y-77485288D01*
X55481638Y-77485301D01*
X55415646Y-77644621D01*
X55415643Y-77644633D01*
X55382000Y-77813766D01*
X55382000Y-77986233D01*
X55415643Y-78155366D01*
X55415646Y-78155378D01*
X55481638Y-78314698D01*
X55481645Y-78314711D01*
X55577454Y-78458098D01*
X55577457Y-78458102D01*
X55699397Y-78580042D01*
X55699401Y-78580045D01*
X55842788Y-78675854D01*
X55842801Y-78675861D01*
X55979263Y-78732385D01*
X56002126Y-78741855D01*
X56171266Y-78775499D01*
X56171269Y-78775500D01*
X56171271Y-78775500D01*
X56343731Y-78775500D01*
X56343732Y-78775499D01*
X56512874Y-78741855D01*
X56672205Y-78675858D01*
X56815599Y-78580045D01*
X56937545Y-78458099D01*
X57033358Y-78314705D01*
X57048956Y-78277045D01*
X57092796Y-78222644D01*
X57159090Y-78200578D01*
X57163517Y-78200499D01*
X58215371Y-78200499D01*
X58215372Y-78200499D01*
X58274983Y-78194091D01*
X58409831Y-78143796D01*
X58525046Y-78057546D01*
X58552536Y-78020823D01*
X58608466Y-77978956D01*
X58664402Y-77971779D01*
X58700823Y-77975500D01*
X59113000Y-77975499D01*
X59180039Y-77995183D01*
X59225794Y-78047987D01*
X59237000Y-78099499D01*
X59237000Y-80231006D01*
X59237000Y-80368994D01*
X59237000Y-80368996D01*
X59236999Y-80368996D01*
X59263918Y-80504322D01*
X59263921Y-80504332D01*
X59316722Y-80631807D01*
X59393387Y-80746545D01*
X59393388Y-80746546D01*
X60063181Y-81416338D01*
X60096666Y-81477661D01*
X60099500Y-81504019D01*
X60099500Y-81786668D01*
X60099501Y-81786687D01*
X60109825Y-81887752D01*
X60164092Y-82051515D01*
X60164093Y-82051518D01*
X60185894Y-82086864D01*
X60243539Y-82180320D01*
X60262000Y-82245416D01*
X60262000Y-83077648D01*
X60253752Y-83105734D01*
X60248206Y-83134487D01*
X60244022Y-83138873D01*
X60242315Y-83144687D01*
X60220192Y-83163856D01*
X60199981Y-83185046D01*
X60193177Y-83187264D01*
X60189511Y-83190442D01*
X60167213Y-83198158D01*
X60159318Y-83200071D01*
X60105017Y-83205909D01*
X60048901Y-83226838D01*
X60041713Y-83228581D01*
X60013905Y-83227251D01*
X59986140Y-83229237D01*
X59972662Y-83225279D01*
X59971923Y-83225244D01*
X59971489Y-83224934D01*
X59969167Y-83224253D01*
X59919982Y-83205908D01*
X59919983Y-83205908D01*
X59860383Y-83199501D01*
X59860381Y-83199500D01*
X59860373Y-83199500D01*
X59860364Y-83199500D01*
X58264629Y-83199500D01*
X58264623Y-83199501D01*
X58205016Y-83205908D01*
X58070171Y-83256202D01*
X58070164Y-83256206D01*
X57954955Y-83342452D01*
X57874211Y-83450312D01*
X57818277Y-83492182D01*
X57774945Y-83500000D01*
X50624500Y-83500000D01*
X50557461Y-83480315D01*
X50511706Y-83427511D01*
X50500500Y-83376000D01*
X50500500Y-69614791D01*
X50500666Y-69614224D01*
X50500505Y-69613656D01*
X50510513Y-69580689D01*
X50520185Y-69547752D01*
X50520630Y-69547366D01*
X50520802Y-69546800D01*
X50547047Y-69524475D01*
X50572989Y-69501997D01*
X50573572Y-69501913D01*
X50574023Y-69501530D01*
X50608103Y-69496948D01*
X50642147Y-69492053D01*
X50642684Y-69492298D01*
G37*
%TD.AperFunction*%
%TA.AperFunction,Conductor*%
G36*
X61543203Y-73313663D02*
G01*
X61549681Y-73319695D01*
X61725681Y-73495695D01*
X61759166Y-73557018D01*
X61762000Y-73583376D01*
X61762000Y-79726569D01*
X61762000Y-79726571D01*
X61761999Y-79726571D01*
X61784382Y-79839088D01*
X61786998Y-79852240D01*
X61787000Y-79852246D01*
X61836034Y-79970625D01*
X61907226Y-80077173D01*
X61907227Y-80077174D01*
X65118373Y-83288319D01*
X65151858Y-83349642D01*
X65146874Y-83419334D01*
X65105002Y-83475267D01*
X65039538Y-83499684D01*
X65030692Y-83500000D01*
X62250055Y-83500000D01*
X62183016Y-83480315D01*
X62150789Y-83450312D01*
X62112499Y-83399164D01*
X62070046Y-83342454D01*
X62070044Y-83342453D01*
X62070044Y-83342452D01*
X61954835Y-83256206D01*
X61954828Y-83256202D01*
X61819983Y-83205908D01*
X61773743Y-83200937D01*
X61709193Y-83174199D01*
X61669345Y-83116806D01*
X61663000Y-83077648D01*
X61663000Y-82529779D01*
X61682685Y-82462740D01*
X61735489Y-82416985D01*
X61747988Y-82412076D01*
X61751516Y-82410908D01*
X61898350Y-82320340D01*
X62020340Y-82198350D01*
X62110908Y-82051516D01*
X62165174Y-81887753D01*
X62175500Y-81786677D01*
X62175499Y-81213324D01*
X62165174Y-81112247D01*
X62110908Y-80948484D01*
X62020340Y-80801650D01*
X61898350Y-80679660D01*
X61751516Y-80589092D01*
X61587753Y-80534826D01*
X61587751Y-80534825D01*
X61486684Y-80524500D01*
X61486677Y-80524500D01*
X61204019Y-80524500D01*
X61136980Y-80504815D01*
X61116338Y-80488181D01*
X60674319Y-80046162D01*
X60640834Y-79984839D01*
X60638000Y-79958481D01*
X60638000Y-76279018D01*
X60657685Y-76211979D01*
X60674319Y-76191337D01*
X61181607Y-75684049D01*
X61181613Y-75684043D01*
X61188635Y-75673535D01*
X61258275Y-75569311D01*
X61297790Y-75473914D01*
X61311080Y-75441829D01*
X61319806Y-75397960D01*
X61325870Y-75367471D01*
X61338000Y-75306495D01*
X61338000Y-73407376D01*
X61357685Y-73340337D01*
X61410489Y-73294582D01*
X61479647Y-73284638D01*
X61543203Y-73313663D01*
G37*
%TD.AperFunction*%
%TA.AperFunction,Conductor*%
G36*
X77449220Y-71379684D02*
G01*
X77453734Y-71379469D01*
X77486500Y-71392587D01*
X77587369Y-71450824D01*
X77600039Y-71458138D01*
X77602531Y-71459577D01*
X77755258Y-71500501D01*
X77755260Y-71500501D01*
X77920969Y-71500501D01*
X77920985Y-71500500D01*
X91342896Y-71500500D01*
X91409935Y-71520185D01*
X91430577Y-71536819D01*
X94067844Y-74174086D01*
X94101329Y-74235409D01*
X94104163Y-74261767D01*
X94104163Y-74442870D01*
X94084478Y-74509909D01*
X94031674Y-74555664D01*
X93962516Y-74565608D01*
X93898960Y-74536583D01*
X93877061Y-74511761D01*
X93777140Y-74362219D01*
X93777139Y-74362218D01*
X93705527Y-74290606D01*
X93624452Y-74209531D01*
X93624451Y-74209530D01*
X93624450Y-74209529D01*
X93460589Y-74100041D01*
X93460580Y-74100036D01*
X93330489Y-74046151D01*
X93330486Y-74046150D01*
X93322381Y-74042793D01*
X93278506Y-74024619D01*
X93140677Y-73997203D01*
X93097835Y-73988681D01*
X93085212Y-73986170D01*
X93085211Y-73986170D01*
X79976122Y-73986170D01*
X79976120Y-73986170D01*
X79782829Y-74024618D01*
X79782827Y-74024619D01*
X79717368Y-74051732D01*
X79669917Y-74061170D01*
X78376792Y-74061170D01*
X78376786Y-74061171D01*
X78317179Y-74067578D01*
X78182334Y-74117872D01*
X78182327Y-74117876D01*
X78067118Y-74204122D01*
X78067115Y-74204125D01*
X77980869Y-74319334D01*
X77980865Y-74319341D01*
X77930571Y-74454187D01*
X77924581Y-74509909D01*
X77924164Y-74513793D01*
X77924163Y-74513805D01*
X77924163Y-75459540D01*
X77924164Y-75459546D01*
X77930571Y-75519153D01*
X77980865Y-75653998D01*
X77980869Y-75654005D01*
X78067115Y-75769214D01*
X78067118Y-75769217D01*
X78182327Y-75855463D01*
X78182334Y-75855467D01*
X78317180Y-75905761D01*
X78317179Y-75905761D01*
X78324107Y-75906505D01*
X78376790Y-75912170D01*
X79669918Y-75912169D01*
X79717370Y-75921608D01*
X79774779Y-75945387D01*
X79782828Y-75948721D01*
X79782832Y-75948721D01*
X79782833Y-75948722D01*
X79976119Y-75987170D01*
X79976122Y-75987170D01*
X90335003Y-75987170D01*
X90402042Y-76006855D01*
X90447797Y-76059659D01*
X90457741Y-76128817D01*
X90456620Y-76135362D01*
X90449500Y-76171155D01*
X90449500Y-76328846D01*
X90474192Y-76452979D01*
X90467965Y-76522570D01*
X90425102Y-76577747D01*
X90359212Y-76600992D01*
X90352575Y-76601170D01*
X88816792Y-76601170D01*
X88816786Y-76601171D01*
X88757179Y-76607578D01*
X88622334Y-76657872D01*
X88622327Y-76657876D01*
X88507118Y-76744122D01*
X88463929Y-76801815D01*
X88407995Y-76843685D01*
X88338303Y-76848669D01*
X88276980Y-76815183D01*
X88265397Y-76801815D01*
X88236355Y-76763021D01*
X88222209Y-76744124D01*
X88222207Y-76744123D01*
X88222207Y-76744122D01*
X88106998Y-76657876D01*
X88106991Y-76657872D01*
X87972145Y-76607578D01*
X87972146Y-76607578D01*
X87912546Y-76601171D01*
X87912544Y-76601170D01*
X87912536Y-76601170D01*
X87912527Y-76601170D01*
X84516792Y-76601170D01*
X84516786Y-76601171D01*
X84457179Y-76607578D01*
X84322334Y-76657872D01*
X84322328Y-76657875D01*
X84271548Y-76695889D01*
X84206084Y-76720305D01*
X84173048Y-76718238D01*
X84078846Y-76699500D01*
X84078842Y-76699500D01*
X83921158Y-76699500D01*
X83921155Y-76699500D01*
X83766510Y-76730261D01*
X83766498Y-76730264D01*
X83620827Y-76790602D01*
X83620814Y-76790609D01*
X83489711Y-76878210D01*
X83489707Y-76878213D01*
X83378213Y-76989707D01*
X83378210Y-76989711D01*
X83290609Y-77120814D01*
X83290602Y-77120827D01*
X83230264Y-77266498D01*
X83230261Y-77266510D01*
X83199500Y-77421153D01*
X83199500Y-77578846D01*
X83224192Y-77702981D01*
X83217965Y-77772572D01*
X83175102Y-77827750D01*
X83109212Y-77850994D01*
X83102575Y-77851172D01*
X82349163Y-77851172D01*
X82282124Y-77831487D01*
X82236369Y-77778683D01*
X82225163Y-77727172D01*
X82225162Y-77053799D01*
X82225161Y-77053793D01*
X82225160Y-77053786D01*
X82218754Y-76994187D01*
X82175497Y-76878210D01*
X82168460Y-76859341D01*
X82168456Y-76859334D01*
X82082210Y-76744125D01*
X82082207Y-76744122D01*
X81966998Y-76657876D01*
X81966991Y-76657872D01*
X81832145Y-76607578D01*
X81832146Y-76607578D01*
X81772546Y-76601171D01*
X81772544Y-76601170D01*
X81772536Y-76601170D01*
X81772528Y-76601170D01*
X80049760Y-76601170D01*
X80020319Y-76592525D01*
X79990333Y-76586002D01*
X79985317Y-76582247D01*
X79982721Y-76581485D01*
X79962079Y-76564851D01*
X79935583Y-76538355D01*
X79935581Y-76538352D01*
X79816710Y-76419481D01*
X79816709Y-76419480D01*
X79729897Y-76369360D01*
X79729897Y-76369359D01*
X79729893Y-76369358D01*
X79679778Y-76340423D01*
X79527050Y-76299499D01*
X79368936Y-76299499D01*
X79361340Y-76299499D01*
X79361324Y-76299500D01*
X78329766Y-76299500D01*
X78262727Y-76279815D01*
X78260875Y-76278602D01*
X78129185Y-76190609D01*
X78129172Y-76190602D01*
X77983501Y-76130264D01*
X77983489Y-76130261D01*
X77828845Y-76099500D01*
X77828842Y-76099500D01*
X77671158Y-76099500D01*
X77671155Y-76099500D01*
X77516510Y-76130261D01*
X77516498Y-76130264D01*
X77471952Y-76148716D01*
X77402483Y-76156185D01*
X77340004Y-76124909D01*
X77304352Y-76064820D01*
X77300500Y-76034155D01*
X77300500Y-71499974D01*
X77302210Y-71494149D01*
X77301061Y-71488187D01*
X77311941Y-71461008D01*
X77320185Y-71432935D01*
X77324771Y-71428960D01*
X77327029Y-71423322D01*
X77350876Y-71406340D01*
X77372989Y-71387180D01*
X77378997Y-71386315D01*
X77383944Y-71382794D01*
X77413179Y-71381401D01*
X77442147Y-71377236D01*
X77449220Y-71379684D01*
G37*
%TD.AperFunction*%
%TA.AperFunction,Conductor*%
G36*
X65005039Y-69345185D02*
G01*
X65050794Y-69397989D01*
X65062000Y-69449500D01*
X65062000Y-69925830D01*
X65061999Y-69925848D01*
X65061999Y-70091554D01*
X65061998Y-70091554D01*
X65102924Y-70244289D01*
X65102925Y-70244290D01*
X65126720Y-70285503D01*
X65126721Y-70285505D01*
X65181975Y-70381209D01*
X65181981Y-70381217D01*
X65300849Y-70500085D01*
X65300855Y-70500090D01*
X66176107Y-71375343D01*
X66206833Y-71431613D01*
X66207697Y-71431327D01*
X66209271Y-71436079D01*
X66209592Y-71436666D01*
X66209676Y-71437055D01*
X66209823Y-71437745D01*
X66264091Y-71601513D01*
X66264093Y-71601518D01*
X66289132Y-71642112D01*
X66346482Y-71735092D01*
X66354661Y-71748351D01*
X66359789Y-71753479D01*
X66393274Y-71814802D01*
X66388290Y-71884494D01*
X66359791Y-71928840D01*
X66307288Y-71981344D01*
X66215187Y-72130663D01*
X66215185Y-72130668D01*
X66196774Y-72186229D01*
X66160001Y-72297203D01*
X66160001Y-72297204D01*
X66160000Y-72297204D01*
X66149500Y-72399983D01*
X66149500Y-73200001D01*
X66149501Y-73200019D01*
X66160000Y-73302796D01*
X66160002Y-73302803D01*
X66182298Y-73370088D01*
X66184700Y-73439916D01*
X66148968Y-73499958D01*
X66086447Y-73531150D01*
X66016988Y-73523589D01*
X65999500Y-73514632D01*
X65919334Y-73465186D01*
X65752797Y-73410001D01*
X65752795Y-73410000D01*
X65650016Y-73399500D01*
X65650009Y-73399500D01*
X64825098Y-73399500D01*
X64758059Y-73379815D01*
X64737417Y-73363181D01*
X64361818Y-72987582D01*
X64347114Y-72960654D01*
X64330522Y-72934836D01*
X64329630Y-72928635D01*
X64328333Y-72926259D01*
X64325499Y-72899901D01*
X64325499Y-72750099D01*
X64345184Y-72683060D01*
X64361818Y-72662417D01*
X64366138Y-72658097D01*
X64440410Y-72583826D01*
X64519467Y-72446894D01*
X64560391Y-72294167D01*
X64560391Y-72136052D01*
X64560391Y-72128457D01*
X64560390Y-72128439D01*
X64560390Y-70149780D01*
X64560389Y-70149776D01*
X64549370Y-70108650D01*
X64542225Y-70081984D01*
X64538000Y-70049891D01*
X64538000Y-69449500D01*
X64557685Y-69382461D01*
X64610489Y-69336706D01*
X64662000Y-69325500D01*
X64938000Y-69325500D01*
X65005039Y-69345185D01*
G37*
%TD.AperFunction*%
%TA.AperFunction,Conductor*%
G36*
X53341334Y-68637914D02*
G01*
X53397267Y-68679786D01*
X53421684Y-68745250D01*
X53422000Y-68754095D01*
X53422000Y-68937869D01*
X53422001Y-68937876D01*
X53428408Y-68997483D01*
X53478702Y-69132328D01*
X53478706Y-69132335D01*
X53564951Y-69247543D01*
X53564952Y-69247544D01*
X53564954Y-69247546D01*
X53609812Y-69281127D01*
X53651682Y-69337059D01*
X53659500Y-69380392D01*
X53659500Y-70260194D01*
X53639815Y-70327233D01*
X53623181Y-70347875D01*
X53037876Y-70933181D01*
X52976553Y-70966666D01*
X52950195Y-70969500D01*
X52204806Y-70969500D01*
X52175365Y-70960855D01*
X52145379Y-70954332D01*
X52140363Y-70950577D01*
X52137767Y-70949815D01*
X52117125Y-70933181D01*
X52014319Y-70830375D01*
X51980834Y-70769052D01*
X51978000Y-70742694D01*
X51978000Y-70432597D01*
X51997685Y-70365558D01*
X52014319Y-70344916D01*
X52474917Y-69884318D01*
X52536240Y-69850833D01*
X52562598Y-69847999D01*
X52687871Y-69847999D01*
X52687872Y-69847999D01*
X52747483Y-69841591D01*
X52882331Y-69791296D01*
X52997546Y-69705046D01*
X53083796Y-69589831D01*
X53134091Y-69454983D01*
X53140500Y-69395373D01*
X53140499Y-68787596D01*
X53149145Y-68758150D01*
X53155667Y-68728170D01*
X53159419Y-68723156D01*
X53160183Y-68720558D01*
X53176814Y-68699920D01*
X53210320Y-68666414D01*
X53271642Y-68632930D01*
X53341334Y-68637914D01*
G37*
%TD.AperFunction*%
%TA.AperFunction,Conductor*%
G36*
X72899191Y-65982685D02*
G01*
X72944946Y-66035489D01*
X72953769Y-66062808D01*
X72980261Y-66195991D01*
X72980264Y-66196001D01*
X73040602Y-66341672D01*
X73040609Y-66341685D01*
X73128210Y-66472788D01*
X73128213Y-66472792D01*
X73239707Y-66584286D01*
X73239711Y-66584289D01*
X73370814Y-66671890D01*
X73370827Y-66671897D01*
X73496414Y-66723916D01*
X73516503Y-66732237D01*
X73671153Y-66762999D01*
X73671156Y-66763000D01*
X73671158Y-66763000D01*
X73828844Y-66763000D01*
X73828845Y-66762999D01*
X73983497Y-66732237D01*
X74129179Y-66671894D01*
X74153608Y-66655571D01*
X74260875Y-66583898D01*
X74327553Y-66563020D01*
X74329766Y-66563000D01*
X74662403Y-66563000D01*
X74729442Y-66582685D01*
X74750084Y-66599319D01*
X75263181Y-67112416D01*
X75296666Y-67173739D01*
X75299500Y-67200097D01*
X75299500Y-70455125D01*
X75279815Y-70522164D01*
X75227011Y-70567919D01*
X75157853Y-70577863D01*
X75094297Y-70548838D01*
X75087819Y-70542806D01*
X71111819Y-66566806D01*
X71078334Y-66505483D01*
X71075500Y-66479125D01*
X71075500Y-66087000D01*
X71095185Y-66019961D01*
X71147989Y-65974206D01*
X71199500Y-65963000D01*
X72832152Y-65963000D01*
X72899191Y-65982685D01*
G37*
%TD.AperFunction*%
%TA.AperFunction,Conductor*%
G36*
X69779303Y-67656911D02*
G01*
X69830704Y-67680385D01*
X69837182Y-67686417D01*
X71184606Y-69033841D01*
X71218091Y-69095164D01*
X71213107Y-69164856D01*
X71184611Y-69209199D01*
X71179660Y-69214149D01*
X71089093Y-69360981D01*
X71089091Y-69360986D01*
X71064495Y-69435212D01*
X71034826Y-69524747D01*
X71034826Y-69524748D01*
X71034825Y-69524748D01*
X71024500Y-69625815D01*
X71024500Y-70070924D01*
X71004815Y-70137963D01*
X70952011Y-70183718D01*
X70882853Y-70193662D01*
X70819297Y-70164637D01*
X70781523Y-70105859D01*
X70778886Y-70095132D01*
X70769737Y-70049135D01*
X70769735Y-70049130D01*
X70709397Y-69903459D01*
X70709390Y-69903446D01*
X70621789Y-69772343D01*
X70621786Y-69772339D01*
X70510292Y-69660845D01*
X70510288Y-69660842D01*
X70379185Y-69573241D01*
X70379172Y-69573234D01*
X70233501Y-69512896D01*
X70233489Y-69512893D01*
X70078845Y-69482132D01*
X70078842Y-69482132D01*
X70051571Y-69482132D01*
X69984532Y-69462447D01*
X69963890Y-69445813D01*
X69661819Y-69143742D01*
X69628334Y-69082419D01*
X69625500Y-69056061D01*
X69625500Y-67922337D01*
X69625500Y-67912338D01*
X69625501Y-67912336D01*
X69625501Y-67774097D01*
X69645186Y-67707058D01*
X69697990Y-67661303D01*
X69758454Y-67652609D01*
X69767148Y-67651360D01*
X69767149Y-67651360D01*
X69779303Y-67656911D01*
G37*
%TD.AperFunction*%
%TA.AperFunction,Conductor*%
G36*
X60017539Y-64120185D02*
G01*
X60063294Y-64172989D01*
X60074500Y-64224500D01*
X60074500Y-64786669D01*
X60074501Y-64786687D01*
X60084825Y-64887752D01*
X60107376Y-64955805D01*
X60139092Y-65051516D01*
X60229660Y-65198350D01*
X60351650Y-65320340D01*
X60432303Y-65370087D01*
X60470161Y-65393438D01*
X60516886Y-65445386D01*
X60528107Y-65514349D01*
X60500264Y-65578431D01*
X60492745Y-65586658D01*
X58631286Y-67448118D01*
X58519481Y-67559922D01*
X58519475Y-67559930D01*
X58477676Y-67632330D01*
X58477676Y-67632331D01*
X58440423Y-67696855D01*
X58399499Y-67849583D01*
X58399499Y-67849585D01*
X58399499Y-68017686D01*
X58399500Y-68017699D01*
X58399500Y-69207766D01*
X58379815Y-69274805D01*
X58327011Y-69320560D01*
X58257853Y-69330504D01*
X58194297Y-69301479D01*
X58187819Y-69295447D01*
X57460759Y-68568387D01*
X57346021Y-68491722D01*
X57218546Y-68438921D01*
X57218536Y-68438918D01*
X57083210Y-68412000D01*
X57083208Y-68412000D01*
X57083207Y-68412000D01*
X56426771Y-68412000D01*
X56359732Y-68392315D01*
X56325132Y-68357070D01*
X56324821Y-68357317D01*
X56322528Y-68354417D01*
X56321233Y-68353098D01*
X56320340Y-68351650D01*
X56198350Y-68229660D01*
X56051516Y-68139092D01*
X55887753Y-68084826D01*
X55887751Y-68084825D01*
X55786684Y-68074500D01*
X55221356Y-68074500D01*
X55154317Y-68054815D01*
X55108562Y-68002011D01*
X55098717Y-67941227D01*
X55098101Y-67941194D01*
X55098000Y-67941194D01*
X55097999Y-67941188D01*
X55097822Y-67941179D01*
X55097996Y-67937901D01*
X55098000Y-67937873D01*
X55097999Y-67562128D01*
X55092745Y-67513252D01*
X55092745Y-67486746D01*
X55098000Y-67437873D01*
X55097999Y-67062128D01*
X55091591Y-67002517D01*
X55041296Y-66867669D01*
X55041295Y-66867668D01*
X55041293Y-66867664D01*
X54955047Y-66752455D01*
X54955044Y-66752452D01*
X54839835Y-66666206D01*
X54839825Y-66666201D01*
X54811326Y-66655571D01*
X54755393Y-66613699D01*
X54730977Y-66548235D01*
X54745829Y-66479962D01*
X54766982Y-66451707D01*
X54770340Y-66448350D01*
X54860908Y-66301516D01*
X54915174Y-66137753D01*
X54925500Y-66036677D01*
X54925499Y-65901548D01*
X54945183Y-65834510D01*
X54997987Y-65788755D01*
X55002028Y-65786996D01*
X55057402Y-65764059D01*
X55129173Y-65734332D01*
X55129176Y-65734330D01*
X55129179Y-65734329D01*
X55260289Y-65646724D01*
X55371789Y-65535224D01*
X55423282Y-65458160D01*
X55446375Y-65423599D01*
X55499987Y-65378794D01*
X55569312Y-65370087D01*
X55632340Y-65400241D01*
X55637158Y-65404809D01*
X55677436Y-65445087D01*
X55677440Y-65445090D01*
X55808543Y-65532691D01*
X55808556Y-65532698D01*
X55938829Y-65586658D01*
X55954232Y-65593038D01*
X56108882Y-65623800D01*
X56108885Y-65623801D01*
X56108887Y-65623801D01*
X56266573Y-65623801D01*
X56266574Y-65623800D01*
X56421226Y-65593038D01*
X56560795Y-65535227D01*
X56566901Y-65532698D01*
X56566901Y-65532697D01*
X56566908Y-65532695D01*
X56698018Y-65445090D01*
X56809518Y-65333590D01*
X56897123Y-65202480D01*
X56957466Y-65056798D01*
X56988229Y-64902143D01*
X56988367Y-64901451D01*
X57020752Y-64839540D01*
X57022247Y-64838017D01*
X57723446Y-64136819D01*
X57784769Y-64103334D01*
X57811127Y-64100500D01*
X59950500Y-64100500D01*
X60017539Y-64120185D01*
G37*
%TD.AperFunction*%
%TA.AperFunction,Conductor*%
G36*
X50683934Y-64405118D02*
G01*
X50690547Y-64408728D01*
X50690550Y-64408731D01*
X50825398Y-64459026D01*
X50885008Y-64465435D01*
X51348381Y-64465434D01*
X51415420Y-64485118D01*
X51461175Y-64537922D01*
X51472381Y-64589434D01*
X51472381Y-66476211D01*
X51472380Y-66476229D01*
X51472380Y-66641935D01*
X51472379Y-66641935D01*
X51513304Y-66794666D01*
X51522305Y-66810256D01*
X51587686Y-66923500D01*
X51604159Y-66991401D01*
X51581306Y-67057427D01*
X51526385Y-67100618D01*
X51480300Y-67109500D01*
X51354630Y-67109500D01*
X51354623Y-67109501D01*
X51295016Y-67115908D01*
X51160171Y-67166202D01*
X51160164Y-67166206D01*
X51044955Y-67252452D01*
X51044952Y-67252455D01*
X50958706Y-67367664D01*
X50958702Y-67367671D01*
X50908410Y-67502513D01*
X50908409Y-67502517D01*
X50902000Y-67562127D01*
X50902000Y-67562134D01*
X50902000Y-67562135D01*
X50902000Y-67937869D01*
X50902001Y-67937874D01*
X50907255Y-67986746D01*
X50907255Y-68013250D01*
X50902000Y-68062127D01*
X50902000Y-68062132D01*
X50902000Y-68062133D01*
X50902000Y-68437869D01*
X50902001Y-68437874D01*
X50907255Y-68486746D01*
X50907254Y-68513258D01*
X50905902Y-68525831D01*
X50897177Y-68560018D01*
X50896159Y-68562476D01*
X50878858Y-68627040D01*
X50846768Y-68682623D01*
X50833947Y-68695444D01*
X50746344Y-68826550D01*
X50746339Y-68826558D01*
X50739061Y-68844131D01*
X50695220Y-68898534D01*
X50628926Y-68920599D01*
X50561227Y-68903320D01*
X50513616Y-68852183D01*
X50500500Y-68796678D01*
X50500500Y-64513946D01*
X50520185Y-64446907D01*
X50572989Y-64401152D01*
X50642147Y-64391208D01*
X50683934Y-64405118D01*
G37*
%TD.AperFunction*%
%TA.AperFunction,Conductor*%
G36*
X91843808Y-63836261D02*
G01*
X91864450Y-63852895D01*
X93824437Y-65812882D01*
X93857922Y-65874205D01*
X93852938Y-65943897D01*
X93811066Y-65999830D01*
X93745602Y-66024247D01*
X93712565Y-66022180D01*
X93598545Y-65999500D01*
X93598541Y-65999500D01*
X92427819Y-65999500D01*
X92384486Y-65991682D01*
X92272145Y-65949781D01*
X92272146Y-65949781D01*
X92212546Y-65943374D01*
X92212544Y-65943373D01*
X92212536Y-65943373D01*
X92212527Y-65943373D01*
X88816792Y-65943373D01*
X88816786Y-65943374D01*
X88757179Y-65949781D01*
X88644840Y-65991682D01*
X88601507Y-65999500D01*
X88127819Y-65999500D01*
X88084486Y-65991682D01*
X87972145Y-65949781D01*
X87972146Y-65949781D01*
X87912546Y-65943374D01*
X87912544Y-65943373D01*
X87912536Y-65943373D01*
X87912527Y-65943373D01*
X84516792Y-65943373D01*
X84516786Y-65943374D01*
X84457179Y-65949781D01*
X84344840Y-65991682D01*
X84301507Y-65999500D01*
X81987819Y-65999500D01*
X81944486Y-65991682D01*
X81832145Y-65949781D01*
X81832146Y-65949781D01*
X81772546Y-65943374D01*
X81772544Y-65943373D01*
X81772536Y-65943373D01*
X81772528Y-65943373D01*
X80479405Y-65943373D01*
X80431952Y-65933934D01*
X80407216Y-65923688D01*
X80366499Y-65906822D01*
X80366491Y-65906820D01*
X80173206Y-65868373D01*
X80173203Y-65868373D01*
X79976123Y-65868373D01*
X79976120Y-65868373D01*
X79782834Y-65906819D01*
X79782825Y-65906822D01*
X79717372Y-65933934D01*
X79669920Y-65943373D01*
X78376792Y-65943373D01*
X78376786Y-65943374D01*
X78317180Y-65949781D01*
X78267831Y-65968187D01*
X78198139Y-65973170D01*
X78136817Y-65939683D01*
X78103333Y-65878360D01*
X78100500Y-65852004D01*
X78100500Y-64670945D01*
X78100500Y-64670943D01*
X78099903Y-64668716D01*
X78087103Y-64620943D01*
X78059577Y-64518216D01*
X78018407Y-64446907D01*
X77980524Y-64381290D01*
X77980521Y-64381286D01*
X77980520Y-64381284D01*
X77868716Y-64269480D01*
X77868715Y-64269479D01*
X77864385Y-64265149D01*
X77864374Y-64265139D01*
X77627492Y-64028257D01*
X77594007Y-63966934D01*
X77598991Y-63897242D01*
X77640863Y-63841309D01*
X77706327Y-63816892D01*
X77715173Y-63816576D01*
X91776769Y-63816576D01*
X91843808Y-63836261D01*
G37*
%TD.AperFunction*%
%TA.AperFunction,Conductor*%
G36*
X68624881Y-61534710D02*
G01*
X68680815Y-61576581D01*
X68704664Y-61636108D01*
X68710561Y-61685216D01*
X68710561Y-61714783D01*
X68706636Y-61747470D01*
X68699500Y-61806898D01*
X68699500Y-61993102D01*
X68702869Y-62021158D01*
X68710561Y-62085217D01*
X68710561Y-62114783D01*
X68705553Y-62156491D01*
X68699500Y-62206898D01*
X68699500Y-62393102D01*
X68703263Y-62424435D01*
X68710561Y-62485217D01*
X68710561Y-62514783D01*
X68704718Y-62563440D01*
X68699500Y-62606898D01*
X68699500Y-62793102D01*
X68705222Y-62840754D01*
X68710561Y-62885217D01*
X68710561Y-62914783D01*
X68699506Y-63006850D01*
X68671969Y-63071065D01*
X68614087Y-63110198D01*
X68600582Y-63113684D01*
X68562261Y-63121306D01*
X68562251Y-63121309D01*
X68416580Y-63181647D01*
X68416567Y-63181654D01*
X68285464Y-63269255D01*
X68285460Y-63269258D01*
X68173966Y-63380752D01*
X68173963Y-63380756D01*
X68086362Y-63511859D01*
X68086355Y-63511872D01*
X68026017Y-63657543D01*
X68026014Y-63657555D01*
X67995253Y-63812198D01*
X67995253Y-63969891D01*
X68026014Y-64124534D01*
X68026016Y-64124542D01*
X68052230Y-64187828D01*
X68059699Y-64257298D01*
X68040772Y-64304171D01*
X67990615Y-64379235D01*
X67930276Y-64524909D01*
X67930273Y-64524921D01*
X67899512Y-64679564D01*
X67899512Y-64837257D01*
X67906331Y-64871539D01*
X67900104Y-64941131D01*
X67857240Y-64996308D01*
X67791350Y-65019552D01*
X67784714Y-65019730D01*
X67721155Y-65019730D01*
X67566510Y-65050491D01*
X67566498Y-65050494D01*
X67420828Y-65110832D01*
X67420814Y-65110840D01*
X67401108Y-65124007D01*
X67334431Y-65144883D01*
X67267051Y-65126397D01*
X67263329Y-65124005D01*
X67147955Y-65046914D01*
X67147943Y-65046907D01*
X67002272Y-64986569D01*
X67002260Y-64986566D01*
X66847616Y-64955805D01*
X66847613Y-64955805D01*
X66689929Y-64955805D01*
X66689926Y-64955805D01*
X66535281Y-64986566D01*
X66535269Y-64986569D01*
X66389599Y-65046907D01*
X66384218Y-65049784D01*
X66383327Y-65048117D01*
X66325031Y-65066360D01*
X66257654Y-65047863D01*
X66219738Y-65011269D01*
X66138518Y-64889715D01*
X66138512Y-64889707D01*
X66027018Y-64778213D01*
X66027014Y-64778210D01*
X65895911Y-64690609D01*
X65895898Y-64690602D01*
X65750227Y-64630264D01*
X65750215Y-64630261D01*
X65595571Y-64599500D01*
X65595568Y-64599500D01*
X65437884Y-64599500D01*
X65437881Y-64599500D01*
X65283236Y-64630261D01*
X65283224Y-64630264D01*
X65137553Y-64690602D01*
X65137540Y-64690609D01*
X65006437Y-64778210D01*
X65006433Y-64778213D01*
X64894939Y-64889707D01*
X64894936Y-64889711D01*
X64807335Y-65020814D01*
X64807328Y-65020827D01*
X64746989Y-65166500D01*
X64746987Y-65166506D01*
X64735647Y-65223518D01*
X64726881Y-65240274D01*
X64722862Y-65258752D01*
X64704116Y-65283792D01*
X64703261Y-65285428D01*
X64701711Y-65287006D01*
X64609410Y-65379307D01*
X64548087Y-65412792D01*
X64478395Y-65407808D01*
X64422462Y-65365936D01*
X64398045Y-65300472D01*
X64407167Y-65244176D01*
X64453012Y-65133497D01*
X64483775Y-64978842D01*
X64483775Y-64821158D01*
X64483775Y-64821155D01*
X64462578Y-64714593D01*
X64468805Y-64645001D01*
X64496509Y-64602725D01*
X64780520Y-64318716D01*
X64859577Y-64181784D01*
X64900501Y-64029057D01*
X64900501Y-63870942D01*
X64900501Y-63863347D01*
X64900500Y-63863329D01*
X64900500Y-62124500D01*
X64920185Y-62057461D01*
X64972989Y-62011706D01*
X65024500Y-62000500D01*
X66263331Y-62000500D01*
X66263347Y-62000501D01*
X66270943Y-62000501D01*
X66429054Y-62000501D01*
X66429057Y-62000501D01*
X66581785Y-61959577D01*
X66647992Y-61921352D01*
X66718716Y-61880520D01*
X66790054Y-61809181D01*
X66796100Y-61804472D01*
X66821742Y-61794342D01*
X66845945Y-61781127D01*
X66855411Y-61781042D01*
X66861083Y-61778802D01*
X66871692Y-61780897D01*
X66896496Y-61780676D01*
X66996155Y-61800500D01*
X66996158Y-61800500D01*
X67153844Y-61800500D01*
X67153845Y-61800499D01*
X67308497Y-61769737D01*
X67373033Y-61743005D01*
X67452548Y-61710070D01*
X67522017Y-61702601D01*
X67547452Y-61710070D01*
X67685250Y-61767147D01*
X67691503Y-61769737D01*
X67815200Y-61794342D01*
X67846153Y-61800499D01*
X67846156Y-61800500D01*
X67846158Y-61800500D01*
X68003844Y-61800500D01*
X68003845Y-61800499D01*
X68158497Y-61769737D01*
X68304179Y-61709394D01*
X68435289Y-61621789D01*
X68493868Y-61563209D01*
X68555189Y-61529726D01*
X68624881Y-61534710D01*
G37*
%TD.AperFunction*%
%TA.AperFunction,Conductor*%
G36*
X61520732Y-50520185D02*
G01*
X61566487Y-50572989D01*
X61576431Y-50642147D01*
X61547406Y-50705703D01*
X61500977Y-50735540D01*
X61502184Y-50738181D01*
X61363202Y-50801651D01*
X61316509Y-50839279D01*
X60541714Y-51614077D01*
X60541705Y-51614087D01*
X60504090Y-51660762D01*
X60444302Y-51791679D01*
X60423821Y-51934135D01*
X60444302Y-52076592D01*
X60449253Y-52087432D01*
X60459196Y-52156591D01*
X60430170Y-52220146D01*
X60424139Y-52226624D01*
X57827843Y-54822920D01*
X57766520Y-54856405D01*
X57696828Y-54851421D01*
X57688659Y-54848037D01*
X57677813Y-54843084D01*
X57677811Y-54843083D01*
X57559275Y-54826041D01*
X57535355Y-54822602D01*
X57535354Y-54822602D01*
X57392898Y-54843083D01*
X57261983Y-54902870D01*
X57215290Y-54940498D01*
X56440495Y-55715296D01*
X56440486Y-55715306D01*
X56402871Y-55761981D01*
X56343083Y-55892898D01*
X56328269Y-55995934D01*
X56299243Y-56059489D01*
X56283851Y-56074421D01*
X56254099Y-56098659D01*
X56254082Y-56098674D01*
X55848672Y-56504086D01*
X55848663Y-56504096D01*
X55784496Y-56582864D01*
X55707069Y-56737035D01*
X55673610Y-56878213D01*
X55667285Y-56904901D01*
X55667285Y-57077421D01*
X55707071Y-57245290D01*
X55758409Y-57347514D01*
X55784500Y-57399464D01*
X55833308Y-57459379D01*
X55848667Y-57478233D01*
X56271767Y-57901331D01*
X56271775Y-57901337D01*
X56271780Y-57901342D01*
X56350533Y-57965497D01*
X56350536Y-57965499D01*
X56350541Y-57965503D01*
X56504710Y-58042929D01*
X56672579Y-58082715D01*
X56672582Y-58082715D01*
X56845100Y-58082715D01*
X57012964Y-58042930D01*
X57012965Y-58042929D01*
X57012967Y-58042929D01*
X57167137Y-57965503D01*
X57245910Y-57901333D01*
X57651331Y-57495910D01*
X57652960Y-57493911D01*
X57665741Y-57478221D01*
X57715503Y-57417137D01*
X57792929Y-57262967D01*
X57826618Y-57120827D01*
X57832715Y-57095100D01*
X57832715Y-57062855D01*
X57852400Y-56995816D01*
X57869030Y-56975178D01*
X58559508Y-56284700D01*
X58597128Y-56238018D01*
X58656916Y-56107102D01*
X58677398Y-55964645D01*
X58656916Y-55822187D01*
X58651966Y-55811349D01*
X58642020Y-55742194D01*
X58671043Y-55678637D01*
X58677064Y-55672169D01*
X61273376Y-53075857D01*
X61334697Y-53042374D01*
X61404389Y-53047358D01*
X61412555Y-53050741D01*
X61423406Y-53055697D01*
X61565864Y-53076179D01*
X61708321Y-53055697D01*
X61839237Y-52995909D01*
X61885919Y-52958291D01*
X62094604Y-52749605D01*
X62155924Y-52716122D01*
X62225616Y-52721106D01*
X62281550Y-52762977D01*
X62305967Y-52828441D01*
X62291115Y-52896714D01*
X62289673Y-52899283D01*
X62286188Y-52905319D01*
X62286186Y-52905322D01*
X62271443Y-52960346D01*
X62245262Y-53058053D01*
X62245262Y-53058055D01*
X62245262Y-53226156D01*
X62245263Y-53226169D01*
X62245263Y-54824779D01*
X62245262Y-54824797D01*
X62245262Y-54990503D01*
X62245261Y-54990503D01*
X62245262Y-54990506D01*
X62286186Y-55143234D01*
X62286187Y-55143235D01*
X62301094Y-55169056D01*
X62301098Y-55169061D01*
X62365242Y-55280163D01*
X62365244Y-55280166D01*
X62484112Y-55399034D01*
X62484118Y-55399039D01*
X63288181Y-56203102D01*
X63321666Y-56264425D01*
X63324500Y-56290783D01*
X63324500Y-58438403D01*
X63304815Y-58505442D01*
X63252011Y-58551197D01*
X63182853Y-58561141D01*
X63119297Y-58532116D01*
X63112819Y-58526084D01*
X62841385Y-58254650D01*
X62841383Y-58254647D01*
X62722512Y-58135776D01*
X62722507Y-58135772D01*
X62630608Y-58082715D01*
X62585580Y-58056718D01*
X62432852Y-58015794D01*
X62274738Y-58015794D01*
X62267142Y-58015794D01*
X62267126Y-58015795D01*
X61838385Y-58015795D01*
X61771346Y-57996110D01*
X61725591Y-57943306D01*
X61715647Y-57874148D01*
X61723824Y-57844343D01*
X61754700Y-57769800D01*
X61769737Y-57733497D01*
X61800500Y-57578842D01*
X61800500Y-57421158D01*
X61800500Y-57421155D01*
X61800499Y-57421153D01*
X61781273Y-57324500D01*
X61769737Y-57266503D01*
X61760950Y-57245290D01*
X61709397Y-57120827D01*
X61709390Y-57120814D01*
X61621789Y-56989711D01*
X61621786Y-56989707D01*
X61510292Y-56878213D01*
X61510288Y-56878210D01*
X61379185Y-56790609D01*
X61379172Y-56790602D01*
X61233501Y-56730264D01*
X61233489Y-56730261D01*
X61078845Y-56699500D01*
X61078842Y-56699500D01*
X60921158Y-56699500D01*
X60921155Y-56699500D01*
X60766510Y-56730261D01*
X60766498Y-56730264D01*
X60620827Y-56790602D01*
X60620814Y-56790609D01*
X60489711Y-56878210D01*
X60489707Y-56878213D01*
X60378213Y-56989707D01*
X60378210Y-56989711D01*
X60290609Y-57120814D01*
X60290602Y-57120827D01*
X60230264Y-57266498D01*
X60230261Y-57266508D01*
X60214394Y-57346278D01*
X60182009Y-57408189D01*
X60121293Y-57442763D01*
X60110424Y-57444824D01*
X60009193Y-57459378D01*
X59878278Y-57519165D01*
X59831585Y-57556793D01*
X59056790Y-58331591D01*
X59056781Y-58331601D01*
X59019166Y-58378276D01*
X58959378Y-58509193D01*
X58938897Y-58651649D01*
X58959378Y-58794107D01*
X59019166Y-58925022D01*
X59019169Y-58925027D01*
X59056782Y-58971703D01*
X59056789Y-58971711D01*
X59653914Y-59568833D01*
X59760884Y-59675803D01*
X59807567Y-59713423D01*
X59938482Y-59773211D01*
X59973863Y-59778298D01*
X60037419Y-59807323D01*
X60075194Y-59866101D01*
X60079575Y-59913637D01*
X60074500Y-59963310D01*
X60074500Y-59963323D01*
X60074500Y-60193651D01*
X60074501Y-60300500D01*
X60054817Y-60367539D01*
X60002013Y-60413294D01*
X59950501Y-60424500D01*
X58550491Y-60424500D01*
X58483452Y-60404815D01*
X58437697Y-60352011D01*
X58432785Y-60339505D01*
X58429389Y-60329257D01*
X58410908Y-60273484D01*
X58320340Y-60126650D01*
X58198350Y-60004660D01*
X58096044Y-59941557D01*
X58051518Y-59914093D01*
X58051513Y-59914091D01*
X58000974Y-59897344D01*
X57887753Y-59859826D01*
X57887751Y-59859825D01*
X57786678Y-59849500D01*
X57213330Y-59849500D01*
X57213312Y-59849501D01*
X57112247Y-59859825D01*
X56948484Y-59914092D01*
X56948481Y-59914093D01*
X56815097Y-59996366D01*
X56747704Y-60014806D01*
X56684903Y-59996366D01*
X56551518Y-59914093D01*
X56551513Y-59914091D01*
X56500974Y-59897344D01*
X56387753Y-59859826D01*
X56387751Y-59859825D01*
X56286678Y-59849500D01*
X55713330Y-59849500D01*
X55713312Y-59849501D01*
X55612247Y-59859825D01*
X55448484Y-59914092D01*
X55448481Y-59914093D01*
X55301648Y-60004661D01*
X55179661Y-60126648D01*
X55089093Y-60273481D01*
X55089091Y-60273486D01*
X55067215Y-60339505D01*
X55034826Y-60437247D01*
X55034826Y-60437248D01*
X55034825Y-60437248D01*
X55024500Y-60538315D01*
X55024500Y-60739837D01*
X55004815Y-60806876D01*
X54988181Y-60827518D01*
X53485339Y-62330360D01*
X53424016Y-62363845D01*
X53421850Y-62364296D01*
X53266504Y-62395197D01*
X53266501Y-62395198D01*
X53178097Y-62431815D01*
X53108627Y-62439282D01*
X53087317Y-62433437D01*
X53080361Y-62430843D01*
X53080364Y-62430843D01*
X53020764Y-62424436D01*
X53020762Y-62424435D01*
X53020754Y-62424435D01*
X53020746Y-62424435D01*
X52432978Y-62424435D01*
X52403537Y-62415790D01*
X52373551Y-62409267D01*
X52368535Y-62405512D01*
X52365939Y-62404750D01*
X52345297Y-62388116D01*
X52248848Y-62291667D01*
X52215363Y-62230344D01*
X52216755Y-62171889D01*
X52220882Y-62156492D01*
X52220882Y-61998377D01*
X52220882Y-61990782D01*
X52220881Y-61990764D01*
X52220881Y-61933386D01*
X52240566Y-61866347D01*
X52279783Y-61827848D01*
X52381231Y-61765275D01*
X52503221Y-61643285D01*
X52593789Y-61496451D01*
X52648055Y-61332688D01*
X52658381Y-61231612D01*
X52658380Y-60658259D01*
X52657162Y-60646339D01*
X52648055Y-60557182D01*
X52641803Y-60538315D01*
X52593789Y-60393419D01*
X52503221Y-60246585D01*
X52381231Y-60124595D01*
X52381227Y-60124592D01*
X52279784Y-60062021D01*
X52233059Y-60010073D01*
X52220881Y-59956483D01*
X52220881Y-59601950D01*
X52240566Y-59534911D01*
X52293370Y-59489156D01*
X52344881Y-59477950D01*
X52490335Y-59477950D01*
X52658199Y-59438165D01*
X52658200Y-59438164D01*
X52658202Y-59438164D01*
X52812372Y-59360738D01*
X52891145Y-59296568D01*
X53296566Y-58891145D01*
X53360738Y-58812372D01*
X53438164Y-58658202D01*
X53440642Y-58647749D01*
X53477950Y-58490335D01*
X53477950Y-58317816D01*
X53477950Y-58317814D01*
X53438164Y-58149945D01*
X53360738Y-57995776D01*
X53360735Y-57995772D01*
X53360734Y-57995770D01*
X53296577Y-57917013D01*
X53296576Y-57917012D01*
X53296568Y-57917002D01*
X52873468Y-57493904D01*
X52873460Y-57493897D01*
X52873454Y-57493892D01*
X52794701Y-57429737D01*
X52794695Y-57429733D01*
X52794694Y-57429732D01*
X52640525Y-57352306D01*
X52472656Y-57312520D01*
X52311480Y-57312520D01*
X52244441Y-57292835D01*
X52198686Y-57240031D01*
X52187480Y-57188520D01*
X52187480Y-57027346D01*
X52181937Y-57003957D01*
X52147694Y-56859475D01*
X52070268Y-56705306D01*
X52070265Y-56705302D01*
X52070264Y-56705300D01*
X52006107Y-56626543D01*
X52006106Y-56626542D01*
X52006098Y-56626532D01*
X51582998Y-56203434D01*
X51582991Y-56203428D01*
X51582982Y-56203420D01*
X51529887Y-56160166D01*
X51528781Y-56158555D01*
X51527002Y-56157743D01*
X51509084Y-56129863D01*
X51490344Y-56102563D01*
X51489949Y-56100087D01*
X51489228Y-56098965D01*
X51484205Y-56064030D01*
X51484205Y-55928775D01*
X51503890Y-55861736D01*
X51520520Y-55841098D01*
X51943213Y-55418405D01*
X51980833Y-55371723D01*
X52040621Y-55240807D01*
X52061103Y-55098350D01*
X52040621Y-54955892D01*
X52035671Y-54945054D01*
X52025725Y-54875899D01*
X52054748Y-54812342D01*
X52060769Y-54805874D01*
X54657081Y-52209562D01*
X54718402Y-52176079D01*
X54788094Y-52181063D01*
X54796260Y-52184446D01*
X54807111Y-52189402D01*
X54949569Y-52209884D01*
X55092026Y-52189402D01*
X55151406Y-52162283D01*
X55164839Y-52160351D01*
X55176766Y-52153866D01*
X55198748Y-52155475D01*
X55220562Y-52152339D01*
X55234406Y-52158087D01*
X55246449Y-52158969D01*
X55264457Y-52170564D01*
X55277397Y-52175937D01*
X55284400Y-52181198D01*
X55333722Y-52230520D01*
X55397769Y-52267497D01*
X55470653Y-52309577D01*
X55623381Y-52350501D01*
X55670236Y-52350501D01*
X55737275Y-52370186D01*
X55739127Y-52371399D01*
X55870814Y-52459390D01*
X55870827Y-52459397D01*
X55934450Y-52485750D01*
X56016503Y-52519737D01*
X56148249Y-52545943D01*
X56171153Y-52550499D01*
X56171156Y-52550500D01*
X56171158Y-52550500D01*
X56328844Y-52550500D01*
X56328845Y-52550499D01*
X56483497Y-52519737D01*
X56629179Y-52459394D01*
X56760289Y-52371789D01*
X56871789Y-52260289D01*
X56959394Y-52129179D01*
X57019737Y-51983497D01*
X57050500Y-51828842D01*
X57050500Y-51671158D01*
X57050500Y-51671155D01*
X57050499Y-51671153D01*
X57044515Y-51641071D01*
X57019737Y-51516503D01*
X57015793Y-51506981D01*
X56959397Y-51370827D01*
X56959390Y-51370814D01*
X56871789Y-51239711D01*
X56871786Y-51239707D01*
X56760292Y-51128213D01*
X56760288Y-51128210D01*
X56629185Y-51040609D01*
X56629172Y-51040602D01*
X56483501Y-50980264D01*
X56483489Y-50980261D01*
X56328845Y-50949500D01*
X56328842Y-50949500D01*
X56262509Y-50949500D01*
X56195470Y-50929815D01*
X56151753Y-50881259D01*
X56143227Y-50864324D01*
X56141840Y-50854673D01*
X56082052Y-50723758D01*
X56056492Y-50692039D01*
X56050562Y-50680259D01*
X56046555Y-50658339D01*
X56038028Y-50637752D01*
X56040394Y-50624637D01*
X56037998Y-50611528D01*
X56046479Y-50590919D01*
X56050436Y-50568992D01*
X56059516Y-50559239D01*
X56064588Y-50546916D01*
X56082860Y-50534167D01*
X56098047Y-50517856D01*
X56111544Y-50514153D01*
X56121889Y-50506936D01*
X56140424Y-50506231D01*
X56161318Y-50500500D01*
X61453693Y-50500500D01*
X61520732Y-50520185D01*
G37*
%TD.AperFunction*%
%TA.AperFunction,Conductor*%
G36*
X79717370Y-59686014D02*
G01*
X79782823Y-59713125D01*
X79782828Y-59713127D01*
X79782832Y-59713127D01*
X79782833Y-59713128D01*
X79976119Y-59751576D01*
X79976122Y-59751576D01*
X95875500Y-59751576D01*
X95942539Y-59771261D01*
X95988294Y-59824065D01*
X95999500Y-59875576D01*
X95999500Y-60098545D01*
X96023139Y-60217385D01*
X96016912Y-60286976D01*
X95974049Y-60342154D01*
X95908159Y-60365398D01*
X95901522Y-60365576D01*
X94956792Y-60365576D01*
X94956786Y-60365577D01*
X94897179Y-60371984D01*
X94762334Y-60422278D01*
X94762327Y-60422282D01*
X94647118Y-60508528D01*
X94647115Y-60508531D01*
X94560869Y-60623740D01*
X94560865Y-60623747D01*
X94510571Y-60758593D01*
X94504164Y-60818192D01*
X94504163Y-60818203D01*
X94504163Y-61281564D01*
X94504164Y-61691576D01*
X94484480Y-61758615D01*
X94431676Y-61804370D01*
X94380164Y-61815576D01*
X92789163Y-61815576D01*
X92722124Y-61795891D01*
X92676369Y-61743087D01*
X92665163Y-61691576D01*
X92665162Y-60818205D01*
X92665161Y-60818199D01*
X92665160Y-60818192D01*
X92658754Y-60758593D01*
X92651758Y-60739837D01*
X92608460Y-60623747D01*
X92608456Y-60623740D01*
X92522210Y-60508531D01*
X92522207Y-60508528D01*
X92406998Y-60422282D01*
X92406991Y-60422278D01*
X92272145Y-60371984D01*
X92272146Y-60371984D01*
X92212546Y-60365577D01*
X92212544Y-60365576D01*
X92212536Y-60365576D01*
X92212527Y-60365576D01*
X88816792Y-60365576D01*
X88816786Y-60365577D01*
X88757179Y-60371984D01*
X88622334Y-60422278D01*
X88622327Y-60422282D01*
X88507118Y-60508528D01*
X88463929Y-60566221D01*
X88407995Y-60608091D01*
X88338303Y-60613075D01*
X88276980Y-60579589D01*
X88265397Y-60566221D01*
X88244039Y-60537691D01*
X88222209Y-60508530D01*
X88222207Y-60508529D01*
X88222207Y-60508528D01*
X88106998Y-60422282D01*
X88106991Y-60422278D01*
X87972145Y-60371984D01*
X87972146Y-60371984D01*
X87912546Y-60365577D01*
X87912544Y-60365576D01*
X87912536Y-60365576D01*
X87912527Y-60365576D01*
X84516792Y-60365576D01*
X84516786Y-60365577D01*
X84457179Y-60371984D01*
X84322334Y-60422278D01*
X84322327Y-60422282D01*
X84207118Y-60508528D01*
X84147727Y-60587864D01*
X84091793Y-60629734D01*
X84072653Y-60635169D01*
X84016508Y-60646337D01*
X84016500Y-60646339D01*
X83870827Y-60706678D01*
X83870814Y-60706685D01*
X83739711Y-60794286D01*
X83739707Y-60794289D01*
X83628213Y-60905783D01*
X83628210Y-60905787D01*
X83540609Y-61036890D01*
X83540602Y-61036903D01*
X83480264Y-61182574D01*
X83480261Y-61182584D01*
X83453769Y-61315768D01*
X83421384Y-61377679D01*
X83360668Y-61412253D01*
X83332152Y-61415576D01*
X82349163Y-61415576D01*
X82282124Y-61395891D01*
X82236369Y-61343087D01*
X82225163Y-61291576D01*
X82225162Y-60818205D01*
X82225161Y-60818199D01*
X82225160Y-60818192D01*
X82218754Y-60758593D01*
X82211758Y-60739837D01*
X82168460Y-60623747D01*
X82168456Y-60623740D01*
X82082210Y-60508531D01*
X82082207Y-60508528D01*
X81966998Y-60422282D01*
X81966991Y-60422278D01*
X81832145Y-60371984D01*
X81832146Y-60371984D01*
X81772546Y-60365577D01*
X81772544Y-60365576D01*
X81772536Y-60365576D01*
X81772528Y-60365576D01*
X80049760Y-60365576D01*
X79982721Y-60345891D01*
X79962079Y-60329257D01*
X79755686Y-60122864D01*
X79755684Y-60122861D01*
X79636813Y-60003990D01*
X79636805Y-60003984D01*
X79534400Y-59944861D01*
X79534394Y-59944858D01*
X79528676Y-59941557D01*
X79499881Y-59924932D01*
X79473456Y-59917851D01*
X79464631Y-59913940D01*
X79445038Y-59897344D01*
X79423120Y-59883984D01*
X79418823Y-59875139D01*
X79411317Y-59868781D01*
X79403807Y-59844226D01*
X79392591Y-59821137D01*
X79393758Y-59811371D01*
X79390882Y-59801966D01*
X79397838Y-59777253D01*
X79400886Y-59751762D01*
X79407147Y-59744177D01*
X79409813Y-59734710D01*
X79429026Y-59717680D01*
X79445372Y-59697884D01*
X79454740Y-59694889D01*
X79462100Y-59688366D01*
X79487468Y-59684427D01*
X79511924Y-59676610D01*
X79514862Y-59676575D01*
X79669918Y-59676575D01*
X79717370Y-59686014D01*
G37*
%TD.AperFunction*%
%TA.AperFunction,Conductor*%
G36*
X69363323Y-52888000D02*
G01*
X69700500Y-52887999D01*
X69767539Y-52907683D01*
X69813294Y-52960487D01*
X69824500Y-53011999D01*
X69824500Y-55716624D01*
X69804815Y-55783663D01*
X69788181Y-55804305D01*
X68754306Y-56838181D01*
X68692983Y-56871666D01*
X68666625Y-56874500D01*
X67974170Y-56874500D01*
X67974154Y-56874499D01*
X67966558Y-56874499D01*
X67808443Y-56874499D01*
X67732079Y-56894961D01*
X67655714Y-56915423D01*
X67655709Y-56915426D01*
X67518790Y-56994475D01*
X67518782Y-56994481D01*
X67225083Y-57288181D01*
X67198155Y-57302884D01*
X67172337Y-57319477D01*
X67166136Y-57320368D01*
X67163760Y-57321666D01*
X67137402Y-57324500D01*
X66928801Y-57324500D01*
X66861762Y-57304815D01*
X66816007Y-57252011D01*
X66814252Y-57247981D01*
X66811495Y-57241324D01*
X66803266Y-57229008D01*
X66723890Y-57110213D01*
X66612393Y-56998716D01*
X66612389Y-56998713D01*
X66481286Y-56911112D01*
X66481273Y-56911105D01*
X66335602Y-56850767D01*
X66335590Y-56850764D01*
X66180946Y-56820003D01*
X66180943Y-56820003D01*
X66023259Y-56820003D01*
X66023256Y-56820003D01*
X65868611Y-56850764D01*
X65868599Y-56850767D01*
X65722928Y-56911105D01*
X65722915Y-56911112D01*
X65591812Y-56998713D01*
X65591808Y-56998716D01*
X65537181Y-57053344D01*
X65475858Y-57086829D01*
X65406166Y-57081845D01*
X65350233Y-57039973D01*
X65325816Y-56974509D01*
X65325500Y-56965663D01*
X65325500Y-56408375D01*
X65345185Y-56341336D01*
X65361819Y-56320694D01*
X67533195Y-54149318D01*
X67594518Y-54115833D01*
X67620876Y-54112999D01*
X68074403Y-54112999D01*
X68184463Y-54098511D01*
X68184467Y-54098509D01*
X68184472Y-54098509D01*
X68321429Y-54041779D01*
X68439036Y-53951536D01*
X68529279Y-53833929D01*
X68529858Y-53832528D01*
X68530665Y-53831527D01*
X68533342Y-53826892D01*
X68534064Y-53827309D01*
X68573696Y-53778125D01*
X68620231Y-53758360D01*
X68625881Y-53757237D01*
X68771563Y-53696894D01*
X68902673Y-53609289D01*
X69014173Y-53497789D01*
X69101778Y-53366679D01*
X69162121Y-53220997D01*
X69192884Y-53066342D01*
X69192884Y-53007901D01*
X69197203Y-52993191D01*
X69196575Y-52977870D01*
X69206847Y-52960346D01*
X69212569Y-52940862D01*
X69224155Y-52930822D01*
X69231910Y-52917594D01*
X69250025Y-52908406D01*
X69265373Y-52895107D01*
X69281477Y-52892453D01*
X69294223Y-52885989D01*
X69329485Y-52884543D01*
X69363323Y-52888000D01*
G37*
%TD.AperFunction*%
%TD*%
M02*
